<?xml version="1.0" encoding="utf-8"?><svg xmlns="http://www.w3.org/2000/svg" xmlns:xlink="http://www.w3.org/1999/xlink"><symbol viewBox="0 0 8 6" id="arrow" xmlns="http://www.w3.org/2000/svg"><path d="M4 6L0 0h8L4 6z"/></symbol><symbol viewBox="0 0 34 17" id="arrow2" xmlns="http://www.w3.org/2000/svg"><path d="M1 1l16 15L33 1"/></symbol><symbol viewBox="0 0 14 8" id="arrow3" xmlns="http://www.w3.org/2000/svg"><path d="M6.99 7.265a.912.912 0 01-.584-.21L.93 2.484a.915.915 0 011.168-1.407L6.99 5.172l4.892-3.948a.912.912 0 011.287.137.913.913 0 01-.128 1.334L7.565 7.11a.912.912 0 01-.575.156z"/></symbol><symbol viewBox="0 0 15 10" id="arrow4" xmlns="http://www.w3.org/2000/svg"><path fill-rule="evenodd" clip-rule="evenodd" d="M.889 5.223a.667.667 0 01.667-.666h10.39L9.084 1.695a.668.668 0 11.944-.944l4 4a.666.666 0 010 .944l-4 4a.668.668 0 01-.944-.944l2.862-2.861H1.556a.667.667 0 01-.667-.667z"/></symbol><symbol viewBox="0 0 31 8" id="arrow5" xmlns="http://www.w3.org/2000/svg"><path d="M.646 3.646a.5.5 0 000 .708l3.182 3.182a.5.5 0 10.708-.708L1.707 4l2.829-2.828a.5.5 0 00-.708-.708L.646 3.646zM31 3.5H1v1h30v-1z"/></symbol><symbol viewBox="0 0 7 12" id="arrow6" xmlns="http://www.w3.org/2000/svg"><path d="M1 1l5 5-5 5"/></symbol><symbol viewBox="0 0 18 24" id="bookmark" xmlns="http://www.w3.org/2000/svg"><path d="M9.217 19.218L9 19.113l-.217.105L.5 23.204V1.714c0-.314.13-.62.372-.85A1.35 1.35 0 011.8.5h14.4c.352 0 .686.134.928.364.241.23.372.536.372.85v21.49l-8.283-3.986z"/></symbol><symbol viewBox="0 0 14 15" id="calendar" xmlns="http://www.w3.org/2000/svg"><path d="M11.375 2.143H14V15H0V2.143h2.625v-.857c0-.352.131-.652.385-.909A1.29 1.29 0 013.938 0c.358 0 .673.129.927.377.254.257.385.557.385.909v.857h3.5v-.857c0-.352.131-.652.385-.909A1.29 1.29 0 0110.063 0c.358 0 .673.129.927.377.254.257.385.557.385.909v.857zM3.5 1.286v2.143a.413.413 0 00.126.305.43.43 0 00.312.123.437.437 0 00.311-.123.42.42 0 00.126-.305V1.286a.385.385 0 00-.131-.3.401.401 0 00-.306-.129.401.401 0 00-.307.129.385.385 0 00-.131.3zm6.125 0v2.143c0 .12.044.222.123.308.087.077.192.12.315.12a.464.464 0 00.314-.12.444.444 0 00.123-.308V1.286a.413.413 0 00-.126-.306.43.43 0 00-.312-.123.438.438 0 00-.311.123.42.42 0 00-.126.306zm3.5 12.857V5.57H.875v8.572h12.25zm-8.75-7.714v1.714h-1.75V6.429h1.75zm1.75 0h1.75v1.714h-1.75V6.429zm3.5 1.714V6.429h1.75v1.714h-1.75zM4.375 9v1.714h-1.75V9h1.75zm1.75 0h1.75v1.714h-1.75V9zm3.5 1.714V9h1.75v1.714h-1.75zm-5.25.857v1.715h-1.75V11.57h1.75zm3.5 1.715h-1.75V11.57h1.75v1.715zm3.5 0h-1.75V11.57h1.75v1.715z"/></symbol><symbol viewBox="0 0 12 11" id="camera" xmlns="http://www.w3.org/2000/svg"><path fill-rule="evenodd" clip-rule="evenodd" d="M3.102 1.2L4.2 0h3.6l1.098 1.2H10.8c.66 0 1.2.54 1.2 1.2v7.2c0 .66-.54 1.2-1.2 1.2H1.2c-.66 0-1.2-.54-1.2-1.2V2.4c0-.66.54-1.2 1.2-1.2h1.902zM3 6a3.001 3.001 0 006 0 3.001 3.001 0 00-6 0zm4.92 0a1.92 1.92 0 11-3.84 0 1.92 1.92 0 013.84 0z"/></symbol><symbol viewBox="0 0 18 17" id="close" xmlns="http://www.w3.org/2000/svg"><path fill-rule="evenodd" clip-rule="evenodd" d="M.868 1.075l15.557 15.557.707-.707L1.575.368l-.707.707z"/><path fill-rule="evenodd" clip-rule="evenodd" d="M1.576 16.632L17.132 1.075l-.707-.707L.868 15.925l.708.707z"/></symbol><symbol viewBox="0 0 13 23" id="facebook" xmlns="http://www.w3.org/2000/svg"><path d="M11.836 12.266H8.518v10.03H3.763v-10.03H.778V8.34h3.151V5.526c0-2.023.885-5.193 4.644-5.193h3.893v3.57h-2.82a1.127 1.127 0 00-.847.372 1.075 1.075 0 00-.259.873v3.191h3.76l-.464 3.927z"/></symbol><symbol viewBox="0 0 22 22" id="instagram" xmlns="http://www.w3.org/2000/svg"><path d="M21.558 5.594a5.438 5.438 0 00-1.736-3.57A6.041 6.041 0 0015.896.456 81.588 81.588 0 005.303.564 5.44 5.44 0 002.34 1.878 5.246 5.246 0 00.691 4.62c-.497 1.785-.42 9.986-.11 11.738a5.26 5.26 0 001.386 2.963 5.46 5.46 0 002.893 1.613c1.692.433 9.952.38 11.832.076a5.451 5.451 0 003.034-1.35 5.253 5.253 0 001.644-2.837c.475-1.817.31-9.574.188-11.23zm-1.99 10.44a3.51 3.51 0 01-1.101 2.198 3.655 3.655 0 01-2.294.972c-1.714.184-9.433.293-11.058-.162a3.541 3.541 0 01-1.8-1.07 3.416 3.416 0 01-.854-1.883 68.467 68.467 0 010-10.549 3.5 3.5 0 011.112-2.182 3.645 3.645 0 012.294-.955 72.703 72.703 0 0110.527.054 3.68 3.68 0 012.241 1.088c.593.61.946 1.404.999 2.244.2 3.414.163 6.837-.11 10.246h.043zM11.03 5.433a5.558 5.558 0 00-3.026.929 5.38 5.38 0 00-1.992 2.414 5.247 5.247 0 00-.289 3.09 5.322 5.322 0 001.51 2.728 5.512 5.512 0 002.804 1.45 5.585 5.585 0 003.155-.313 5.45 5.45 0 002.448-1.973 5.255 5.255 0 00.493-5.042 5.351 5.351 0 00-1.213-1.75 5.487 5.487 0 00-1.81-1.153 5.58 5.58 0 00-2.125-.38h.045zm0 8.85a3.593 3.593 0 01-1.96-.6 3.477 3.477 0 01-1.288-1.565 3.392 3.392 0 01-.184-2 3.44 3.44 0 01.982-1.764 3.565 3.565 0 011.82-.934 3.61 3.61 0 012.042.211 3.521 3.521 0 011.578 1.285c.385.571.588 1.241.583 1.926a3.409 3.409 0 01-.289 1.341 3.474 3.474 0 01-.797 1.128c-.34.32-.742.571-1.181.738a3.62 3.62 0 01-1.382.233h.078zm7.021-9.034a1.236 1.236 0 01-.227.693 1.278 1.278 0 01-.582.452 1.31 1.31 0 01-1.392-.29 1.23 1.23 0 01-.261-1.369c.1-.228.266-.422.477-.557.212-.136.46-.207.714-.205.327.024.633.17.855.407.221.237.343.548.339.87h.077z"/></symbol><symbol viewBox="0 0 11 39" id="knife" xmlns="http://www.w3.org/2000/svg"><path fill-rule="evenodd" clip-rule="evenodd" d="M5.444.494c1.946 1.592.295 6.31-.413 8.139l-.106.277c-.233.61-.462 1.21-.513 1.875-.083.794.21 1.517.464 2.143.378.932.67 1.65-.494 2.074-.236.088-3.656-.03-3.656-.06 0 0-.148-7.46-.236-8.875C.4 4.504.49.022 3.29.022c.12 0 .238-.005.358-.01.562-.027 1.138-.053 1.795.482zm-2.36 1.74c0 .442.354.796.797.796.413 0 .766-.354.796-.796a.793.793 0 00-.796-.797.793.793 0 00-.796.797zM.373 38.71s10.439.914 10.439-17.693c0-2.005-2.566-2.211-5.072-2.211H.372V38.71zm4.894-13.83l.502 2.006c.03.147.177.236.324.236l2.064-.148c.325-.03.472.413.177.59l-1.77 1.12c-.117.089-.176.236-.117.384l.767 1.917c.117.294-.236.56-.502.354L5.12 30.011a.354.354 0 00-.413 0l-1.592 1.326c-.266.207-.62-.059-.502-.353l.767-1.917c.06-.148 0-.295-.118-.384l-1.77-1.12c-.265-.177-.147-.62.178-.59l2.064.148c.147 0 .295-.089.324-.236l.502-2.005c.177-.325.648-.325.707 0z"/></symbol><symbol viewBox="0 0 14 12" id="telegram" xmlns="http://www.w3.org/2000/svg"><path d="M.469 5.587C1.872 4.814 3.438 4.17 4.9 3.521 7.418 2.46 9.945 1.416 12.497.445c.497-.166 1.39-.327 1.477.409-.048 1.041-.245 2.077-.38 3.113-.343 2.277-.74 4.547-1.127 6.817-.133.756-1.08 1.148-1.686.664-1.457-.984-2.925-1.958-4.363-2.965-.47-.479-.034-1.166.387-1.508 1.2-1.182 2.472-2.186 3.609-3.43.306-.74-.6-.116-.899.075C7.873 4.752 6.271 5.953 4.54 6.947c-.884.487-1.915.071-2.8-.2-.792-.329-1.954-.66-1.27-1.16z"/></symbol><symbol viewBox="0 0 16 18" id="user" xmlns="http://www.w3.org/2000/svg"><path fill-rule="evenodd" clip-rule="evenodd" d="M11.333 5.4c0 1.901-1.515 3.4-3.333 3.4-1.818 0-3.333-1.499-3.333-3.4C4.667 3.499 6.182 2 8 2c1.818 0 3.333 1.499 3.333 3.4zm-.99 4.853a5.406 5.406 0 002.99-4.853C13.333 2.418 10.945 0 8 0 5.054 0 2.667 2.418 2.667 5.4a5.406 5.406 0 002.99 4.853C2.383 11.267 0 14.352 0 18h2c0-3.392 2.71-6.1 6-6.1s6 2.708 6 6.1h2c0-3.648-2.382-6.733-5.658-7.747z"/></symbol><symbol viewBox="0 0 20 15" id="youtube" xmlns="http://www.w3.org/2000/svg"><path d="M19.872 3.756c0-.76-.308-1.49-.858-2.027a2.964 2.964 0 00-2.072-.84H3.264c-.385 0-.766.074-1.122.218a2.936 2.936 0 00-.95.622 2.864 2.864 0 00-.636.93c-.147.348-.223.72-.223 1.097v7.649c0 .376.076.749.223 1.097.148.348.363.664.635.93.273.266.596.477.951.621.356.144.737.219 1.122.219h13.678c.777 0 1.523-.302 2.072-.84.55-.538.858-1.267.858-2.027v-7.65zM8.405 10.54V3.895l6.186 3.323-6.186 3.323z"/></symbol></svg>