<svg width="14" height="8" viewBox="0 0 14 8" fill="none" xmlns="http://www.w3.org/2000/svg">
<path d="M6.98997 7.26454C6.77672 7.26495 6.57005 7.19059 6.40585 7.05436L0.929717 2.48529C0.743331 2.33018 0.626119 2.10729 0.603868 1.86566C0.581617 1.62402 0.656149 1.38343 0.811067 1.19682C0.965986 1.0102 1.1886 0.892845 1.42994 0.870566C1.67128 0.848288 1.91157 0.922911 2.09796 1.07802L6.98997 5.1719L11.882 1.22423C11.9753 1.14832 12.0828 1.09164 12.1981 1.05743C12.3134 1.02323 12.4343 1.01218 12.5539 1.02491C12.6735 1.03765 12.7894 1.07393 12.8949 1.13166C13.0004 1.18939 13.0935 1.26743 13.1689 1.3613C13.2525 1.45526 13.3158 1.56549 13.3548 1.68509C13.3939 1.80468 13.4078 1.93106 13.3958 2.05631C13.3838 2.18156 13.3461 2.30298 13.2851 2.41297C13.2241 2.52295 13.141 2.61913 13.0411 2.69547L7.56496 7.10919C7.39604 7.22389 7.19359 7.27858 6.98997 7.26454Z" fill="white"/>
</svg>
