<svg width="15" height="10" viewBox="0 0 15 10" fill="none" xmlns="http://www.w3.org/2000/svg">
<path fill-rule="evenodd" clip-rule="evenodd" d="M0.888916 5.22317C0.888916 5.04636 0.959154 4.87679 1.08418 4.75177C1.2092 4.62674 1.37877 4.55651 1.55558 4.55651H11.9462L9.08358 1.69517C8.9584 1.56999 8.88807 1.40021 8.88807 1.22317C8.88807 1.04614 8.9584 0.876355 9.08358 0.751173C9.20877 0.625991 9.37855 0.555664 9.55558 0.555664C9.73262 0.555664 9.9024 0.625991 10.0276 0.751173L14.0276 4.75117C14.0897 4.8131 14.1389 4.88667 14.1725 4.96766C14.2061 5.04865 14.2234 5.13548 14.2234 5.22317C14.2234 5.31086 14.2061 5.39769 14.1725 5.47868C14.1389 5.55968 14.0897 5.63324 14.0276 5.69517L10.0276 9.69517C9.9024 9.82035 9.73262 9.89068 9.55558 9.89068C9.37855 9.89068 9.20877 9.82035 9.08358 9.69517C8.9584 9.56999 8.88807 9.40021 8.88807 9.22317C8.88807 9.04614 8.9584 8.87635 9.08358 8.75117L11.9462 5.88984H1.55558C1.37877 5.88984 1.2092 5.8196 1.08418 5.69458C0.959154 5.56955 0.888916 5.39998 0.888916 5.22317Z" fill="white"/>
</svg>
