<svg width="14" height="15" viewBox="0 0 14 15" fill="none" xmlns="http://www.w3.org/2000/svg">
<path d="M11.375 2.14286H14V15H0V2.14286H2.625V1.28571C2.625 0.934286 2.75625 0.634286 3.01 0.377143C3.26375 0.128571 3.57875 0 3.9375 0C4.29625 0 4.61125 0.128571 4.865 0.377143C5.11875 0.634286 5.25 0.934286 5.25 1.28571V2.14286H8.75V1.28571C8.75 0.934286 8.88125 0.634286 9.135 0.377143C9.38875 0.128571 9.70375 0 10.0625 0C10.4212 0 10.7362 0.128571 10.99 0.377143C11.2437 0.634286 11.375 0.934286 11.375 1.28571V2.14286ZM3.5 1.28571V3.42857C3.49893 3.48514 3.50952 3.54134 3.53113 3.59381C3.55273 3.64628 3.58492 3.69394 3.62576 3.73395C3.6666 3.77396 3.71526 3.80549 3.76882 3.82665C3.82238 3.84782 3.87975 3.85819 3.9375 3.85714C3.99525 3.85819 4.05262 3.84782 4.10618 3.82665C4.15974 3.80549 4.2084 3.77396 4.24924 3.73395C4.29008 3.69394 4.32227 3.64628 4.34387 3.59381C4.36548 3.54134 4.37607 3.48514 4.375 3.42857V1.28571C4.375 1.16571 4.33125 1.06286 4.24375 0.985714C4.165 0.9 4.06 0.857143 3.9375 0.857143C3.815 0.857143 3.71 0.9 3.63125 0.985714C3.54375 1.06286 3.5 1.16571 3.5 1.28571ZM9.625 1.28571V3.42857C9.625 3.54857 9.66875 3.65143 9.7475 3.73714C9.835 3.81429 9.94 3.85714 10.0625 3.85714C10.185 3.85714 10.29 3.81429 10.3775 3.73714C10.4562 3.65143 10.5 3.54857 10.5 3.42857V1.28571C10.5011 1.22915 10.4905 1.17295 10.4689 1.12048C10.4473 1.06801 10.4151 1.02034 10.3742 0.980337C10.3334 0.94033 10.2847 0.908801 10.2312 0.887633C10.1776 0.866466 10.1202 0.856096 10.0625 0.857143C10.0048 0.856096 9.94738 0.866466 9.89382 0.887633C9.84026 0.908801 9.7916 0.94033 9.75076 0.980337C9.70992 1.02034 9.67773 1.06801 9.65613 1.12048C9.63452 1.17295 9.62393 1.22915 9.625 1.28571ZM13.125 14.1429V5.57143H0.875V14.1429H13.125ZM4.375 6.42857V8.14286H2.625V6.42857H4.375ZM6.125 6.42857H7.875V8.14286H6.125V6.42857ZM9.625 8.14286V6.42857H11.375V8.14286H9.625ZM4.375 9V10.7143H2.625V9H4.375ZM6.125 9H7.875V10.7143H6.125V9ZM9.625 10.7143V9H11.375V10.7143H9.625ZM4.375 11.5714V13.2857H2.625V11.5714H4.375ZM7.875 13.2857H6.125V11.5714H7.875V13.2857ZM11.375 13.2857H9.625V11.5714H11.375V13.2857Z" fill="#1F3C53"/>
</svg>
