<svg width="12" height="11" viewBox="0 0 12 11" fill="none" xmlns="http://www.w3.org/2000/svg">
<path fill-rule="evenodd" clip-rule="evenodd" d="M3.102 1.2L4.2 0H7.8L8.898 1.2H10.8C11.46 1.2 12 1.74 12 2.4V9.6C12 10.26 11.46 10.8 10.8 10.8H1.2C0.54 10.8 0 10.26 0 9.6V2.4C0 1.74 0.54 1.2 1.2 1.2H3.102ZM3 6C3 7.656 4.344 9 6 9C7.656 9 9 7.656 9 6C9 4.344 7.656 3 6 3C4.344 3 3 4.344 3 6ZM7.91969 5.99998C7.91969 7.06037 7.06007 7.91998 5.99969 7.91998C4.9393 7.91998 4.07969 7.06037 4.07969 5.99998C4.07969 4.93959 4.9393 4.07998 5.99969 4.07998C7.06007 4.07998 7.91969 4.93959 7.91969 5.99998Z" fill="#1F3C53"/>
</svg>
