<svg width="22" height="22" viewBox="0 0 22 22" fill="none" xmlns="http://www.w3.org/2000/svg">
<path d="M21.5577 5.59449C21.4527 4.23466 20.8338 2.96185 19.8216 2.02431C18.7533 1.04915 17.3567 0.491025 15.8961 0.455598C12.3664 0.262122 8.82742 0.298264 5.30261 0.563785C4.20034 0.692567 3.16567 1.15148 2.34024 1.87773C1.51481 2.60397 0.938943 3.56204 0.691472 4.6208C0.193867 6.40589 0.27127 14.6065 0.580891 16.3591C0.714293 17.4644 1.19914 18.5007 1.96699 19.3218C2.73484 20.1429 3.7469 20.7074 4.8603 20.9354C6.55215 21.3682 14.8124 21.3141 16.6922 21.0112C17.8237 20.8854 18.8855 20.4127 19.7257 19.6606C20.5658 18.9086 21.1413 17.9158 21.3697 16.8243C21.8452 15.0068 21.6793 7.24975 21.5577 5.59449ZM19.5673 16.0345C19.4792 16.8716 19.0891 17.6505 18.4669 18.2315C17.8447 18.8124 17.0312 19.1574 16.1725 19.2044C14.4585 19.3883 6.74013 19.4965 5.11462 19.0422C4.41752 18.8728 3.78989 18.4992 3.31564 17.9714C2.84139 17.4436 2.54313 16.7867 2.46073 16.0886C2.18948 12.5776 2.18948 9.05147 2.46073 5.54039C2.55437 4.70662 2.94866 3.93279 3.57285 3.35779C4.19704 2.78279 5.01026 2.44426 5.86656 2.40297C9.37214 2.16659 12.8908 2.18467 16.3937 2.45706C17.2485 2.54986 18.0423 2.93508 18.6351 3.54474C19.2279 4.1544 19.5815 4.94931 19.6336 5.78922C19.834 9.20284 19.797 12.6258 19.5231 16.0345H19.5673ZM11.0306 5.43221C9.95043 5.44288 8.89764 5.76601 8.00481 6.36091C7.11197 6.95581 6.41902 7.79587 6.01319 8.7753C5.60737 9.75474 5.50683 10.8298 5.72424 11.865C5.94164 12.9002 6.46727 13.8494 7.23493 14.5929C8.00259 15.3365 8.97795 15.8412 10.0382 16.0434C11.0984 16.2457 12.1962 16.1366 13.1931 15.7297C14.1901 15.3228 15.0417 14.6365 15.6408 13.757C16.2398 12.8775 16.5595 11.8443 16.5595 10.7875C16.5597 10.0759 16.4148 9.37152 16.1336 8.71536C15.8523 8.0592 15.4402 7.46446 14.9213 6.96588C14.4025 6.46731 13.7872 6.07489 13.1116 5.81156C12.436 5.54823 11.7135 5.41927 10.9864 5.43221H11.0306ZM11.0306 14.2819C10.3313 14.2755 9.64954 14.0665 9.07155 13.6812C8.49356 13.296 8.04522 12.7518 7.78315 12.1174C7.52107 11.483 7.45702 10.7868 7.59908 10.1169C7.74114 9.44688 8.08294 8.83311 8.58132 8.35306C9.07969 7.87302 9.71229 7.54823 10.3992 7.41971C11.0861 7.29119 11.7966 7.36471 12.4408 7.63098C13.0851 7.89725 13.6342 8.34433 14.0189 8.91576C14.4036 9.48718 14.6066 10.1573 14.6023 10.8416C14.5981 11.3032 14.4998 11.7594 14.3133 12.1834C14.1267 12.6074 13.8557 12.9908 13.5159 13.3112C13.1761 13.6315 12.7745 13.8823 12.3345 14.049C11.8944 14.2157 11.4249 14.2949 10.9532 14.2819H11.0306ZM18.0524 5.24829C18.048 5.49599 17.9688 5.73689 17.8247 5.94062C17.6806 6.14435 17.4782 6.30181 17.2428 6.39316C17.0074 6.4845 16.7497 6.50564 16.502 6.45392C16.2544 6.4022 16.0279 6.27993 15.8512 6.10251C15.6745 5.92509 15.5554 5.70046 15.5089 5.45693C15.4624 5.2134 15.4907 4.96186 15.5901 4.734C15.6895 4.50615 15.8556 4.31217 16.0674 4.17651C16.2793 4.04085 16.5275 3.96958 16.7807 3.97168C17.1082 3.99638 17.4139 4.14204 17.6356 4.37912C17.8574 4.61619 17.9787 4.92693 17.975 5.24829H18.0524Z" fill="white"/>
</svg>
