<svg width="11" height="39" viewBox="0 0 11 39" fill="none" xmlns="http://www.w3.org/2000/svg">
<path fill-rule="evenodd" clip-rule="evenodd" d="M5.44366 0.493846C7.38986 2.08619 5.73853 6.80426 5.03082 8.63251C4.99598 8.72543 4.96063 8.81784 4.92537 8.91C4.69207 9.51984 4.46281 10.1191 4.41158 10.7851C4.32862 11.5791 4.62192 12.3017 4.87612 12.9279C5.25443 13.8599 5.54614 14.5786 4.38209 15.0019C4.14619 15.0904 0.72559 14.9724 0.72559 14.9429C0.72559 14.9429 0.57815 7.48248 0.489685 6.06706C0.401222 4.5042 0.489687 0.0220394 3.29104 0.0220394C3.41008 0.0220394 3.52913 0.0165882 3.64881 0.0111084C4.21099 -0.0146332 4.78723 -0.0410194 5.44366 0.493846ZM3.08463 2.23363C3.08463 2.67595 3.43848 3.02981 3.8808 3.02981C4.29363 3.02981 4.64748 2.67595 4.67697 2.23363C4.67697 1.79132 4.32312 1.43746 3.8808 1.43746C3.43848 1.43746 3.08463 1.79132 3.08463 2.23363ZM0.37207 38.7103C0.37207 38.7103 10.8108 39.6244 10.8108 21.0175C10.8108 19.0123 8.24535 18.8059 5.73887 18.8059H0.37207V38.7103ZM5.26635 24.8806L5.76764 26.8858C5.79713 27.0332 5.94457 27.1217 6.09201 27.1217L8.15616 26.9743C8.48053 26.9448 8.62797 27.3871 8.33309 27.564L6.56382 28.6845C6.44587 28.773 6.38689 28.9205 6.44586 29.0679L7.21255 30.9846C7.3305 31.2795 6.97665 31.5449 6.71126 31.3385L5.11891 30.0115C5.00096 29.923 4.82403 29.923 4.70608 30.0115L3.11373 31.3385C2.84834 31.5449 2.49448 31.2795 2.61243 30.9846L3.37912 29.0679C3.4381 28.9205 3.37912 28.773 3.26117 28.6845L1.49189 27.564C1.2265 27.3871 1.34446 26.9448 1.66882 26.9743L3.73298 27.1217C3.88042 27.1217 4.02786 27.0332 4.05735 26.8858L4.55864 24.8806C4.73557 24.5562 5.20737 24.5562 5.26635 24.8806Z" fill="white"/>
</svg>
