<svg width="14" height="12" viewBox="0 0 14 12" fill="none" xmlns="http://www.w3.org/2000/svg">
<path d="M0.46882 5.58706C1.87161 4.81436 3.43751 4.16946 4.90061 3.52126C7.41771 2.45956 9.94481 1.41626 12.4974 0.444958C12.9941 0.279458 13.8864 0.117608 13.9739 0.853608C13.926 1.89541 13.7289 2.93111 13.5937 3.96681C13.2506 6.24441 12.854 8.51421 12.4672 10.7843C12.334 11.5405 11.3867 11.9319 10.7806 11.448C9.32401 10.4641 7.85621 9.48981 6.41821 8.48311C5.94716 8.00446 6.38396 7.31711 6.80466 6.97531C8.00436 5.79301 9.27666 4.78851 10.4137 3.54511C10.7204 2.80446 9.81416 3.42866 9.51526 3.61991C7.87286 4.75171 6.27066 5.95261 4.53906 6.94731C3.65456 7.43421 2.62366 7.01811 1.73956 6.74641C0.94685 6.41821 -0.214759 6.08756 0.46874 5.58711L0.46882 5.58706Z" fill="white"/>
</svg>
