<svg width="16" height="18" viewBox="0 0 16 18" fill="none" xmlns="http://www.w3.org/2000/svg">
<path fill-rule="evenodd" clip-rule="evenodd" d="M11.3333 5.4C11.3333 7.30126 9.81756 8.8 7.99996 8.8C6.18236 8.8 4.66663 7.30126 4.66663 5.4C4.66663 3.49874 6.18236 2 7.99996 2C9.81756 2 11.3333 3.49874 11.3333 5.4ZM10.3423 10.2527C12.1136 9.37457 13.3333 7.53151 13.3333 5.4C13.3333 2.41766 10.9455 0 7.99996 0C5.05444 0 2.66663 2.41766 2.66663 5.4C2.66663 7.53152 3.88636 9.3746 5.65769 10.2527C2.38225 11.2667 0 14.3517 0 18H2C2 14.6076 4.70964 11.9 8 11.9C11.2904 11.9 14 14.6076 14 18H16C16 14.3516 13.6177 11.2666 10.3423 10.2527Z" fill="black"/>
</svg>
