<svg width="20" height="15" viewBox="0 0 20 15" fill="none" xmlns="http://www.w3.org/2000/svg">
<path d="M19.8725 3.75588C19.8725 2.99551 19.5638 2.26629 19.0143 1.72863C18.4647 1.19097 17.7194 0.888916 16.9422 0.888916H3.26357C2.87875 0.888916 2.4977 0.963072 2.14217 1.10715C1.78664 1.25123 1.46361 1.46241 1.1915 1.72863C0.919394 1.99485 0.703546 2.3109 0.556283 2.65874C0.409019 3.00657 0.333221 3.37938 0.333221 3.75588V11.4047C0.333221 11.7812 0.409019 12.154 0.556283 12.5018C0.703546 12.8497 0.919394 13.1657 1.1915 13.432C1.46361 13.6982 1.78664 13.9094 2.14217 14.0534C2.4977 14.1975 2.87875 14.2717 3.26357 14.2717H16.9422C17.7194 14.2717 18.4647 13.9696 19.0143 13.432C19.5638 12.8943 19.8725 12.1651 19.8725 11.4047V3.75588ZM8.40549 10.541V3.89476L14.5911 7.21786L8.40549 10.541Z" fill="white"/>
</svg>
