<svg width="8" height="6" viewBox="0 0 8 6" fill="none" xmlns="http://www.w3.org/2000/svg">
<path d="M7.85399 0.853899C7.94788 0.760013 8.00062 0.632675 8.00062 0.499899C8.00062 0.367124 7.94788 0.239786 7.85399 0.145899C7.7601 0.0520127 7.63277 -0.000732422 7.49999 -0.000732422C7.36722 -0.000732422 7.23988 0.0520127 7.14599 0.145899L2.49999 4.7929L0.853991 3.1459C0.760104 3.05201 0.632767 2.99927 0.499991 2.99927C0.367215 2.99927 0.239877 3.05201 0.145991 3.1459C0.0521042 3.23979 -0.000640866 3.36712 -0.000640869 3.4999C-0.000640873 3.63268 0.0521042 3.76001 0.145991 3.8539L2.14599 5.8539C2.19244 5.90046 2.24761 5.93741 2.30836 5.96261C2.3691 5.98782 2.43422 6.00079 2.49999 6.00079C2.56576 6.00079 2.63088 5.98782 2.69162 5.96261C2.75237 5.93741 2.80755 5.90046 2.85399 5.8539L7.85399 0.853899Z" fill="white"/>
</svg>
