<svg width="657" height="220" viewBox="0 0 657 220" fill="none" xmlns="http://www.w3.org/2000/svg">
<path d="M286.115 120.812C285.866 184.656 186.305 185.278 186.056 120.812C186.18 56.2209 285.866 56.3454 286.115 120.812Z" fill="#DC1915"/>
<path d="M18.419 211.039L7.96499 197.847L17.7967 186.647C17.9212 186.398 18.0456 186.273 18.1701 186.149C18.2945 186.025 18.2945 185.9 18.2945 185.651C18.2945 185.527 18.2945 185.527 18.2945 185.402C18.2945 185.278 18.1701 185.278 18.1701 185.278C18.0456 185.278 17.9212 185.153 17.7967 185.153C17.6723 185.153 17.4234 185.153 17.1745 185.153C16.9255 185.153 16.6766 185.153 16.5522 185.153C16.4277 185.153 16.1788 185.153 16.0544 185.278C15.9299 185.278 15.8055 185.402 15.681 185.402C15.5566 185.527 15.4321 185.527 15.4321 185.651L4.97814 197.847V185.651C4.97814 185.527 4.97814 185.527 4.85369 185.402C4.85369 185.278 4.72924 185.278 4.60479 185.278C4.48033 185.278 4.35588 185.153 4.23143 185.153C4.10698 185.153 3.85808 185.153 3.60917 185.153C3.36027 185.153 3.23581 185.153 2.98691 185.153C2.86246 185.153 2.73801 185.278 2.61356 185.278C2.4891 185.278 2.4891 185.402 2.36465 185.402C2.36465 185.527 2.2402 185.527 2.2402 185.651V211.786C2.2402 211.911 2.2402 211.911 2.36465 212.035C2.36465 212.159 2.4891 212.159 2.61356 212.159C2.73801 212.159 2.86246 212.284 2.98691 212.284C3.11136 212.284 3.36027 212.284 3.60917 212.284C3.85808 212.284 4.10698 212.284 4.23143 212.284C4.35588 212.284 4.48033 212.159 4.60479 212.159C4.72924 212.159 4.72924 212.035 4.85369 212.035C4.85369 211.911 4.97814 211.911 4.97814 211.786V197.972L15.8055 211.786C15.9299 211.911 16.0544 212.035 16.1788 212.159C16.3033 212.284 16.5522 212.284 16.8011 212.284C17.05 212.284 17.2989 212.284 17.5478 212.284C17.7967 212.284 18.0456 212.284 18.1701 212.284C18.2945 212.284 18.419 212.159 18.5434 212.159C18.6679 212.159 18.6679 212.035 18.6679 212.035C18.6679 211.911 18.6679 211.911 18.6679 211.786C18.6679 211.662 18.6679 211.662 18.5434 211.537C18.7923 211.537 18.6679 211.288 18.419 211.039Z" fill="white"/>
<path d="M36.3402 193.118C36.3402 192.994 36.3402 192.994 36.2157 192.994L36.0913 192.869C35.9668 192.869 35.8424 192.745 35.5935 192.621C35.3446 192.496 35.0957 192.496 34.8468 192.372C34.5979 192.372 34.349 192.247 34.1 192.247C33.8511 192.247 33.6022 192.247 33.4778 192.247C33.1044 192.247 32.6066 192.247 32.2333 192.372C31.8599 192.496 31.4866 192.621 30.9887 192.869C30.6154 193.118 30.1176 193.492 29.6198 193.99C29.122 194.487 28.6241 195.11 28.1263 195.856V192.869C28.1263 192.745 28.1263 192.745 28.1263 192.621C28.1263 192.496 28.0019 192.496 28.0019 192.496C27.8774 192.496 27.753 192.372 27.6285 192.372C27.5041 192.372 27.2552 192.372 27.0063 192.372C26.7574 192.372 26.6329 192.372 26.384 192.372C26.2596 192.372 26.1351 192.372 26.0107 192.496C25.8862 192.496 25.8862 192.621 25.7618 192.621C25.7618 192.745 25.7618 192.745 25.7618 192.869V211.662C25.7618 211.786 25.7618 211.786 25.7618 211.911C25.7618 212.035 25.8862 212.035 26.0107 212.035C26.1351 212.035 26.2596 212.16 26.384 212.16C26.5085 212.16 26.7574 212.16 27.0063 212.16C27.2552 212.16 27.5041 212.16 27.6285 212.16C27.753 212.16 27.8774 212.035 28.0019 212.035C28.1263 212.035 28.1263 211.911 28.2508 211.911C28.2508 211.786 28.3753 211.786 28.3753 211.662V198.968C28.8731 198.096 29.3709 197.35 29.8687 196.852C30.3665 196.23 30.7398 195.856 31.1132 195.483C31.4866 195.11 31.8599 194.861 32.2333 194.736C32.6066 194.612 32.98 194.487 33.3533 194.487C33.7267 194.487 33.9756 194.487 34.2245 194.612C34.4734 194.736 34.7223 194.736 34.9712 194.861C35.2201 194.985 35.3446 194.985 35.5935 195.11C35.7179 195.11 35.9668 195.234 36.0913 195.234C36.2157 195.234 36.2157 195.234 36.3402 195.11C36.3402 195.11 36.4646 194.985 36.4646 194.861C36.4646 194.736 36.4646 194.612 36.5891 194.487C36.5891 194.363 36.5891 194.114 36.5891 193.99C36.5891 193.741 36.5891 193.616 36.5891 193.492C36.3402 193.367 36.3402 193.243 36.3402 193.118Z" fill="white"/>
<path d="M54.6344 194.114C54.1366 193.492 53.3899 193.118 52.5187 192.745C51.6475 192.372 50.5275 192.247 49.2829 192.247C48.6607 192.247 47.914 192.372 47.2917 192.496C46.6694 192.621 46.0472 192.745 45.4249 192.994C44.8027 193.243 44.3049 193.367 43.9315 193.616C43.4337 193.865 43.1848 194.114 43.0603 194.238C42.9359 194.363 42.8114 194.612 42.687 194.736C42.687 194.861 42.5625 195.11 42.5625 195.483C42.5625 195.607 42.5625 195.732 42.5625 195.856C42.5625 195.981 42.5625 196.105 42.687 196.105C42.687 196.23 42.8114 196.23 42.8114 196.23C42.9359 196.23 42.9359 196.23 43.0603 196.23C43.1848 196.23 43.4337 196.105 43.807 195.981C44.1804 195.732 44.5538 195.607 45.0516 195.358C45.5494 195.11 46.1716 194.861 46.7939 194.736C47.4162 194.487 48.1629 194.487 49.034 194.487C49.9052 194.487 50.6519 194.612 51.2742 194.861C51.8964 195.11 52.3942 195.358 52.7676 195.856C53.141 196.23 53.3899 196.727 53.6388 197.35C53.7632 197.972 53.8877 198.719 53.8877 199.465V201.083H50.9008C49.5318 201.083 48.2873 201.208 47.1673 201.457C46.0472 201.706 45.0516 202.079 44.3048 202.577C43.5581 203.075 42.9359 203.697 42.4381 204.443C42.0647 205.19 41.8158 206.061 41.8158 207.181C41.8158 208.053 41.9403 208.799 42.3136 209.422C42.5625 210.044 43.0603 210.666 43.5581 211.164C44.0559 211.662 44.8027 212.035 45.5494 212.284C46.2961 212.533 47.1673 212.657 48.1629 212.657C49.2829 212.657 50.2786 212.408 51.2742 211.911C52.2698 211.413 53.2654 210.666 54.1366 209.795V211.911C54.1366 212.035 54.1366 212.16 54.261 212.284C54.3855 212.408 54.5099 212.408 54.6344 212.408C54.7588 212.408 55.0077 212.408 55.2566 212.408C55.5055 212.408 55.7544 212.408 55.8789 212.408C56.0033 212.408 56.1278 212.284 56.2523 212.284C56.3767 212.16 56.3767 212.16 56.3767 211.911V199.216C56.3767 198.096 56.2523 197.225 56.0033 196.354C55.5055 195.358 55.1322 194.612 54.6344 194.114ZM53.6388 207.43C52.6431 208.426 51.772 209.297 50.9008 209.795C50.0296 210.293 49.1585 210.542 48.1629 210.542C46.9184 210.542 45.9227 210.168 45.3005 209.546C44.5538 208.924 44.3048 208.053 44.3048 206.933C44.3048 206.31 44.4293 205.812 44.6782 205.315C44.9271 204.817 45.3005 204.443 45.7983 204.07C46.2961 203.697 46.9183 203.448 47.6651 203.323C48.4118 203.199 49.2829 203.075 50.2786 203.075H53.7632V207.43H53.6388Z" fill="white"/>
<path d="M86.2448 194.736C86.4937 194.736 86.6182 194.612 86.7427 194.487C86.8671 194.363 86.8671 194.114 86.8671 193.741C86.8671 193.616 86.8671 193.367 86.8671 193.243C86.8671 193.118 86.7427 192.994 86.7427 192.869C86.7427 192.745 86.6182 192.745 86.4937 192.621C86.3693 192.621 86.3693 192.496 86.2448 192.496H81.0178V187.891C81.0178 187.767 81.0179 187.767 80.8934 187.642C80.8934 187.518 80.7689 187.518 80.6445 187.518C80.52 187.518 80.3956 187.394 80.2711 187.394C80.1467 187.394 79.8978 187.394 79.6489 187.394C79.4 187.394 79.1511 187.394 79.0266 187.394C78.9022 187.394 78.7777 187.394 78.6533 187.518C78.5288 187.518 78.5288 187.642 78.4044 187.642C78.4044 187.767 78.2799 187.767 78.2799 187.891V192.496H69.0705V190.256C69.0705 189.385 69.0704 188.514 69.1949 187.891C69.3194 187.269 69.4438 186.771 69.6927 186.273C69.9416 185.9 70.315 185.527 70.6883 185.402C71.0617 185.153 71.5595 185.153 72.1818 185.153C72.5551 185.153 72.9285 185.153 73.3018 185.278C73.6752 185.402 73.9241 185.402 74.173 185.527C74.4219 185.651 74.5463 185.651 74.7952 185.776C74.9197 185.9 75.0442 185.9 75.1686 185.9C75.2931 185.9 75.2931 185.9 75.2931 185.9L75.4175 185.776C75.4175 185.651 75.4175 185.651 75.542 185.527C75.542 185.402 75.542 185.278 75.542 185.029C75.542 184.904 75.542 184.656 75.542 184.531C75.542 184.407 75.542 184.282 75.4175 184.158C75.4175 184.033 75.2931 183.909 75.1686 183.909C75.0442 183.784 74.9197 183.784 74.7952 183.66C74.5463 183.536 74.2974 183.536 73.7996 183.411C73.3018 183.287 72.804 183.287 72.3062 183.287C71.3106 183.287 70.5639 183.411 69.8172 183.66C69.0704 183.909 68.4482 184.407 68.0748 184.904C67.577 185.527 67.2037 186.273 66.9548 187.145C66.7059 188.016 66.5814 189.136 66.5814 190.505V192.621H63.719C63.5946 192.621 63.5946 192.621 63.4701 192.745C63.3457 192.745 63.3457 192.869 63.3457 192.994C63.3457 193.118 63.2212 193.243 63.2212 193.367C63.2212 193.492 63.2212 193.616 63.2212 193.865C63.2212 194.238 63.2212 194.487 63.3457 194.612C63.4701 194.736 63.5946 194.861 63.8435 194.861H66.7059V212.035C66.7059 212.159 66.7059 212.159 66.7059 212.284C66.7059 212.408 66.8303 212.408 66.9548 212.408C67.0792 212.408 67.2037 212.533 67.3281 212.533C67.4526 212.533 67.7015 212.533 67.9504 212.533C68.1993 212.533 68.4482 212.533 68.5726 212.533C68.6971 212.533 68.8215 212.408 68.946 212.408C69.0705 212.408 69.0704 212.284 69.1949 212.284C69.1949 212.159 69.3194 212.159 69.3194 212.035V194.861H78.5288V206.559C78.5288 207.555 78.6533 208.55 78.7777 209.297C79.0266 210.044 79.2755 210.666 79.6489 211.164C80.0222 211.662 80.6445 212.035 81.2668 212.284C81.889 212.533 82.7602 212.657 83.6313 212.657C83.8803 212.657 84.2536 212.657 84.5025 212.657C84.7514 212.657 85.1248 212.533 85.3737 212.533C85.6226 212.408 85.8715 212.408 86.1204 212.284C86.3693 212.159 86.4937 212.159 86.6182 212.035C86.7426 211.911 86.7426 211.786 86.8671 211.662C86.8671 211.537 86.9916 211.288 86.9916 210.915C86.9916 210.791 86.9916 210.542 86.9916 210.417C86.9916 210.293 86.9916 210.168 86.8671 210.168C86.8671 210.044 86.7427 210.044 86.7427 210.044H86.6182C86.4937 210.044 86.3693 210.044 86.2448 210.168C86.1204 210.293 85.8715 210.293 85.747 210.417C85.4981 210.542 85.2492 210.542 85.0003 210.666C84.7514 210.791 84.3781 210.791 84.1292 210.791C83.0091 210.791 82.2624 210.417 81.889 209.67C81.5157 208.924 81.2668 207.804 81.2668 206.435V195.11H86.2448V194.736Z" fill="white"/>
<path d="M113.625 185.402C113.5 185.402 113.376 185.278 113.251 185.278C113.127 185.278 112.878 185.278 112.629 185.278C112.38 185.278 112.131 185.278 112.007 185.278C111.882 185.278 111.758 185.402 111.633 185.402C111.509 185.402 111.509 185.527 111.384 185.527C111.384 185.651 111.26 185.651 111.26 185.776V197.101H97.8192V185.776C97.8192 185.651 97.8192 185.651 97.6947 185.527C97.6947 185.402 97.5703 185.402 97.4458 185.402C97.3214 185.402 97.1969 185.278 97.0725 185.278C96.948 185.278 96.6991 185.278 96.4502 185.278C96.2013 185.278 96.0769 185.278 95.828 185.278C95.7035 185.278 95.579 185.402 95.4546 185.402C95.3301 185.402 95.3301 185.527 95.2057 185.527C95.2057 185.651 95.0812 185.651 95.0812 185.776V211.911C95.0812 212.035 95.0812 212.035 95.2057 212.159C95.2057 212.284 95.3301 212.284 95.4546 212.284C95.579 212.284 95.7035 212.408 95.828 212.408C95.9524 212.408 96.2013 212.408 96.4502 212.408C96.6991 212.408 96.948 212.408 97.0725 212.408C97.1969 212.408 97.3214 212.284 97.4458 212.284C97.5703 212.284 97.5703 212.159 97.6947 212.159C97.6947 212.035 97.8192 212.035 97.8192 211.911V199.341H111.26V211.911C111.26 212.035 111.26 212.035 111.384 212.159C111.384 212.284 111.509 212.284 111.633 212.284C111.758 212.284 111.882 212.408 112.007 212.408C112.131 212.408 112.38 212.408 112.629 212.408C112.878 212.408 113.127 212.408 113.251 212.408C113.376 212.408 113.5 212.284 113.625 212.284C113.749 212.284 113.749 212.159 113.874 212.159C113.874 212.035 113.998 212.035 113.998 211.911V185.776C113.998 185.651 113.998 185.651 113.874 185.527C113.874 185.402 113.749 185.402 113.625 185.402Z" fill="white"/>
<path d="M138.017 194.861C137.395 194.114 136.524 193.367 135.528 192.994C134.532 192.496 133.288 192.247 131.919 192.247C130.55 192.247 129.43 192.496 128.31 192.994C127.19 193.492 126.319 194.114 125.572 194.985C124.825 195.856 124.203 196.976 123.829 198.221C123.456 199.465 123.207 200.959 123.207 202.452C123.207 204.07 123.456 205.564 123.829 206.808C124.203 208.053 124.825 209.173 125.572 210.044C126.319 210.915 127.314 211.537 128.434 212.035C129.554 212.533 130.799 212.657 132.292 212.657C133.163 212.657 134.035 212.533 134.781 212.408C135.528 212.284 136.275 212.16 136.773 211.911C137.395 211.786 137.768 211.537 138.141 211.413C138.515 211.288 138.764 211.164 138.764 211.039C138.888 210.915 138.888 210.915 138.888 210.791C138.888 210.666 139.013 210.666 139.013 210.542C139.013 210.417 139.013 210.417 139.013 210.293C139.013 210.168 139.013 210.168 139.013 210.044C139.013 209.795 139.013 209.67 139.013 209.546C139.013 209.422 139.013 209.297 138.888 209.173C138.888 209.048 138.764 209.048 138.764 208.924C138.639 208.924 138.639 208.799 138.515 208.799C138.39 208.799 138.141 208.924 137.768 209.048C137.395 209.173 137.021 209.422 136.524 209.546C136.026 209.67 135.404 209.919 134.781 210.044C134.035 210.168 133.288 210.293 132.417 210.293C131.172 210.293 130.177 210.168 129.305 209.795C128.434 209.422 127.812 208.924 127.19 208.302C126.692 207.679 126.319 206.808 126.07 205.937C125.821 204.941 125.696 203.946 125.696 202.826H138.515C138.764 202.826 139.013 202.701 139.262 202.577C139.51 202.452 139.635 202.079 139.635 201.581V201.083C139.635 199.963 139.51 198.843 139.137 197.723C139.137 196.603 138.639 195.607 138.017 194.861ZM125.945 200.71C125.945 199.839 126.194 199.092 126.443 198.345C126.692 197.599 127.065 196.852 127.563 196.354C128.061 195.732 128.683 195.358 129.43 194.985C130.177 194.612 130.923 194.487 131.919 194.487C133.786 194.487 135.155 195.11 136.15 196.23C137.146 197.35 137.519 198.968 137.519 200.959H125.945V200.71Z" fill="white"/>
<path d="M151.085 192.621C150.96 192.621 150.836 192.496 150.711 192.496C150.587 192.496 150.338 192.496 150.089 192.496C149.84 192.496 149.716 192.496 149.467 192.496C149.342 192.496 149.218 192.496 149.093 192.621C148.969 192.621 148.969 192.745 148.844 192.745C148.844 192.869 148.844 192.869 148.844 192.994V211.786C148.844 211.911 148.844 211.911 148.844 212.035C148.844 212.16 148.969 212.16 149.093 212.16C149.218 212.16 149.342 212.284 149.467 212.284C149.591 212.284 149.84 212.284 150.089 212.284C150.338 212.284 150.587 212.284 150.711 212.284C150.836 212.284 150.96 212.16 151.085 212.16C151.209 212.16 151.209 212.035 151.333 212.035C151.333 211.911 151.458 211.911 151.458 211.786V192.994C151.458 192.869 151.458 192.869 151.333 192.745C151.209 192.745 151.085 192.621 151.085 192.621Z" fill="white"/>
<path d="M150.089 185.029C149.467 185.029 149.094 185.153 148.845 185.402C148.596 185.651 148.471 186.149 148.471 186.771C148.471 187.394 148.596 187.891 148.845 188.14C149.094 188.389 149.467 188.514 150.089 188.514C150.711 188.514 151.085 188.389 151.334 188.14C151.583 187.891 151.707 187.394 151.707 186.771C151.707 186.149 151.583 185.651 151.334 185.402C151.085 185.153 150.711 185.029 150.089 185.029Z" fill="white"/>
<path d="M175.229 194.612C174.731 193.865 173.984 193.367 173.238 192.869C172.366 192.496 171.371 192.247 170.126 192.247C169.131 192.247 168.011 192.496 167.015 193.118C166.019 193.616 164.899 194.487 163.779 195.732V193.118C163.779 192.994 163.779 192.994 163.779 192.869C163.779 192.745 163.655 192.745 163.655 192.745C163.53 192.745 163.406 192.621 163.281 192.621C163.157 192.621 162.908 192.621 162.659 192.621C162.41 192.621 162.286 192.621 162.037 192.621C161.912 192.621 161.788 192.621 161.664 192.745C161.539 192.745 161.539 192.869 161.415 192.869C161.415 192.994 161.415 192.994 161.415 193.118V211.911C161.415 212.035 161.415 212.035 161.415 212.16C161.415 212.284 161.539 212.284 161.664 212.284C161.788 212.284 161.912 212.408 162.037 212.408C162.161 212.408 162.41 212.408 162.659 212.408C162.908 212.408 163.157 212.408 163.281 212.408C163.406 212.408 163.53 212.284 163.655 212.284C163.779 212.284 163.779 212.16 163.904 212.16C163.904 212.035 164.028 212.035 164.028 211.911V198.345C165.024 196.976 166.144 195.981 167.015 195.358C168.011 194.736 168.882 194.363 169.877 194.363C170.624 194.363 171.246 194.487 171.869 194.736C172.491 194.985 172.864 195.483 173.238 195.981C173.611 196.479 173.86 197.101 174.109 197.848C174.233 198.594 174.358 199.465 174.358 200.71V211.911C174.358 212.035 174.358 212.035 174.482 212.16C174.482 212.284 174.607 212.284 174.731 212.284C174.855 212.284 174.98 212.408 175.104 212.408C175.229 212.408 175.478 212.408 175.727 212.408C175.976 212.408 176.1 212.408 176.349 212.408C176.473 212.408 176.598 212.284 176.722 212.284C176.847 212.284 176.847 212.16 176.971 212.16C176.971 212.035 177.096 212.035 177.096 211.911V200.461C177.096 199.092 176.971 197.972 176.722 197.101C176.1 196.105 175.727 195.234 175.229 194.612Z" fill="white"/>
<path d="M198.004 210.417C198.004 210.293 197.879 210.293 197.755 210.168C197.63 210.168 197.63 210.044 197.506 210.044H187.923L196.884 195.981C197.008 195.732 197.133 195.607 197.257 195.358C197.382 195.234 197.382 194.985 197.506 194.861C197.506 194.736 197.63 194.612 197.63 194.487C197.63 194.363 197.63 194.238 197.63 194.114V193.616C197.63 193.367 197.63 193.243 197.506 193.118C197.506 192.994 197.382 192.869 197.382 192.745C197.382 192.62 197.257 192.62 197.133 192.496C197.008 192.496 196.884 192.372 196.759 192.372H186.305C186.181 192.372 186.181 192.372 186.056 192.496C185.932 192.496 185.932 192.62 185.807 192.745C185.807 192.869 185.683 192.994 185.683 193.118C185.683 193.243 185.683 193.367 185.683 193.616C185.683 193.989 185.807 194.238 185.932 194.487C186.056 194.612 186.181 194.736 186.43 194.736H195.266L186.305 208.799C186.181 209.048 186.056 209.173 185.932 209.297C185.807 209.422 185.807 209.546 185.683 209.795C185.683 209.919 185.559 210.044 185.559 210.168C185.559 210.293 185.559 210.417 185.559 210.542V211.164C185.559 211.537 185.683 211.786 185.807 212.035C185.932 212.159 186.181 212.284 186.43 212.284H197.63C197.755 212.284 197.879 212.284 197.879 212.159C198.004 212.159 198.004 212.035 198.128 211.911C198.128 211.786 198.253 211.662 198.253 211.537C198.253 211.413 198.253 211.288 198.253 211.039C198.253 210.915 198.253 210.666 198.253 210.542C198.004 210.542 198.004 210.417 198.004 210.417Z" fill="white"/>
<path d="M233.472 185.651C233.348 185.527 233.348 185.527 233.223 185.402C233.099 185.402 233.099 185.278 232.974 185.278H221.152C220.903 185.278 220.654 185.402 220.405 185.527C220.156 185.651 220.031 186.025 220.031 186.522V211.786C220.031 211.911 220.031 211.911 220.156 212.035C220.156 212.159 220.28 212.159 220.405 212.159C220.529 212.159 220.654 212.284 220.778 212.284C220.903 212.284 221.152 212.284 221.4 212.284C221.649 212.284 221.898 212.284 222.023 212.284C222.147 212.284 222.272 212.159 222.396 212.159C222.52 212.159 222.52 212.035 222.645 212.035C222.645 211.911 222.769 211.911 222.769 211.786V199.963H232.601C232.726 199.963 232.726 199.963 232.85 199.839C232.974 199.839 232.974 199.714 233.099 199.59C233.223 199.465 233.223 199.341 233.223 199.216C233.223 199.092 233.223 198.968 233.223 198.719C233.223 198.47 233.223 198.345 233.223 198.221C233.223 198.096 233.099 197.972 233.099 197.848C233.099 197.723 232.974 197.723 232.85 197.723C232.726 197.723 232.726 197.723 232.601 197.723H222.769V187.518H233.223C233.348 187.518 233.472 187.518 233.472 187.394C233.597 187.394 233.597 187.269 233.721 187.145C233.846 187.02 233.846 186.896 233.846 186.771C233.846 186.647 233.846 186.522 233.846 186.273C233.846 186.025 233.846 185.9 233.846 185.776C233.597 185.9 233.597 185.776 233.472 185.651Z" fill="white"/>
<path d="M256.123 194.985C255.376 194.114 254.505 193.492 253.385 192.994C252.265 192.496 251.02 192.247 249.527 192.247C248.033 192.247 246.664 192.496 245.544 192.994C244.424 193.492 243.429 194.238 242.682 195.11C241.935 195.981 241.313 197.101 240.94 198.345C240.566 199.59 240.317 200.959 240.317 202.452C240.317 203.946 240.442 205.439 240.815 206.684C241.188 207.928 241.686 208.924 242.433 209.795C243.18 210.666 244.051 211.288 245.171 211.786C246.291 212.284 247.535 212.533 249.029 212.533C250.522 212.533 251.891 212.284 253.011 211.786C254.131 211.288 255.127 210.542 255.874 209.67C256.621 208.799 257.243 207.679 257.616 206.435C257.989 205.19 258.238 203.821 258.238 202.328C258.238 200.834 257.989 199.341 257.616 198.221C257.492 196.852 256.869 195.856 256.123 194.985ZM255.376 205.688C255.127 206.684 254.754 207.555 254.256 208.177C253.758 208.924 253.011 209.422 252.265 209.795C251.394 210.168 250.522 210.417 249.402 210.417C248.158 210.417 247.162 210.168 246.291 209.795C245.42 209.422 244.798 208.799 244.3 208.053C243.802 207.306 243.429 206.435 243.304 205.439C243.055 204.443 242.931 203.448 242.931 202.328C242.931 201.208 243.055 200.212 243.304 199.216C243.553 198.221 243.926 197.35 244.424 196.727C244.922 195.981 245.669 195.483 246.415 195.11C247.287 194.736 248.158 194.487 249.278 194.487C250.522 194.487 251.518 194.736 252.389 195.11C253.26 195.607 253.883 196.105 254.38 196.852C254.878 197.599 255.252 198.47 255.376 199.465C255.625 200.461 255.749 201.457 255.749 202.577C255.749 203.572 255.625 204.692 255.376 205.688Z" fill="white"/>
<path d="M281.635 194.985C280.889 194.114 280.017 193.492 278.897 192.994C277.777 192.496 276.533 192.247 275.039 192.247C273.546 192.247 272.177 192.496 271.057 192.994C269.937 193.492 268.941 194.238 268.194 195.11C267.448 195.981 266.826 197.101 266.452 198.345C266.079 199.59 265.83 200.959 265.83 202.452C265.83 203.946 265.954 205.439 266.328 206.684C266.701 207.928 267.199 208.924 267.946 209.795C268.692 210.666 269.563 211.288 270.684 211.786C271.804 212.284 273.048 212.533 274.542 212.533C276.035 212.533 277.404 212.284 278.524 211.786C279.644 211.288 280.64 210.542 281.386 209.67C282.133 208.799 282.755 207.679 283.129 206.435C283.502 205.19 283.751 203.821 283.751 202.328C283.751 200.834 283.502 199.341 283.129 198.221C282.88 196.852 282.382 195.856 281.635 194.985ZM280.889 205.688C280.64 206.684 280.266 207.555 279.769 208.177C279.271 208.924 278.524 209.422 277.777 209.795C276.906 210.168 276.035 210.417 274.915 210.417C273.67 210.417 272.675 210.168 271.804 209.795C270.932 209.422 270.31 208.799 269.812 208.053C269.315 207.306 268.941 206.435 268.817 205.439C268.568 204.443 268.443 203.448 268.443 202.328C268.443 201.208 268.568 200.212 268.817 199.216C269.066 198.221 269.439 197.35 269.937 196.727C270.435 195.981 271.181 195.483 271.928 195.11C272.799 194.736 273.67 194.487 274.79 194.487C276.035 194.487 277.031 194.736 277.902 195.11C278.773 195.607 279.395 196.105 279.893 196.852C280.391 197.599 280.764 198.47 280.889 199.465C281.137 200.461 281.262 201.457 281.262 202.577C281.262 203.572 281.137 204.692 280.889 205.688Z" fill="white"/>
<path d="M307.521 183.535C307.397 183.535 307.272 183.411 307.148 183.411C307.024 183.411 306.775 183.411 306.526 183.411C306.277 183.411 306.152 183.411 305.904 183.411C305.779 183.411 305.655 183.411 305.53 183.535C305.406 183.535 305.406 183.66 305.281 183.66C305.281 183.784 305.281 183.784 305.281 183.909V195.234C304.41 194.238 303.415 193.492 302.543 192.994C301.548 192.496 300.552 192.247 299.432 192.247C298.063 192.247 296.943 192.496 295.947 192.994C294.952 193.492 294.081 194.114 293.458 195.11C292.836 195.981 292.214 197.101 291.965 198.345C291.592 199.59 291.467 201.083 291.467 202.701C291.467 204.07 291.592 205.315 291.84 206.559C292.089 207.804 292.587 208.799 293.209 209.795C293.832 210.666 294.578 211.413 295.574 211.911C296.57 212.408 297.69 212.657 299.059 212.657C300.303 212.657 301.423 212.408 302.543 211.786C303.663 211.164 304.659 210.293 305.655 209.297V212.035C305.655 212.159 305.655 212.159 305.779 212.284C305.779 212.408 305.904 212.408 306.028 212.408C306.152 212.408 306.277 212.533 306.401 212.533C306.526 212.533 306.775 212.533 306.899 212.533C307.148 212.533 307.273 212.533 307.397 212.533C307.521 212.533 307.646 212.533 307.77 212.408C307.895 212.408 307.895 212.284 307.895 212.284C307.895 212.159 307.895 212.159 307.895 212.035V184.033C307.895 183.909 307.895 183.909 307.77 183.784C307.646 183.66 307.646 183.535 307.521 183.535ZM305.281 206.435C304.659 207.181 304.161 207.804 303.539 208.301C303.041 208.799 302.543 209.173 302.045 209.546C301.548 209.919 301.05 210.044 300.552 210.293C300.054 210.417 299.556 210.542 299.059 210.542C298.063 210.542 297.192 210.293 296.57 209.795C295.947 209.297 295.325 208.675 294.952 207.928C294.578 207.181 294.205 206.31 294.081 205.315C293.956 204.319 293.832 203.323 293.832 202.328C293.832 201.332 293.956 200.461 294.081 199.465C294.329 198.47 294.578 197.723 295.076 196.976C295.45 196.23 296.072 195.607 296.694 195.11C297.316 194.612 298.188 194.363 299.183 194.363C300.179 194.363 301.299 194.736 302.17 195.358C303.166 195.981 304.161 196.976 305.157 198.221V206.435H305.281Z" fill="white"/>
<path d="M327.434 203.323C326.936 202.95 326.438 202.577 325.816 202.328C325.194 202.079 324.696 201.83 324.074 201.581C323.452 201.332 322.829 201.083 322.331 200.834C321.709 200.585 321.211 200.337 320.714 199.963C320.216 199.714 319.842 199.341 319.593 198.843C319.345 198.47 319.22 197.972 319.22 197.35C319.22 196.852 319.345 196.479 319.469 196.105C319.593 195.732 319.842 195.358 320.216 195.11C320.589 194.861 320.962 194.612 321.46 194.487C321.958 194.363 322.58 194.238 323.203 194.238C323.825 194.238 324.447 194.363 324.945 194.487C325.443 194.612 325.816 194.861 326.189 194.985C326.563 195.11 326.812 195.358 327.061 195.483C327.31 195.607 327.434 195.732 327.558 195.732C327.683 195.732 327.683 195.732 327.807 195.607C327.932 195.607 327.932 195.483 327.932 195.358C327.932 195.234 328.056 195.11 328.056 194.985C328.056 194.861 328.056 194.736 328.056 194.487C328.056 194.363 328.056 194.238 328.056 194.114C328.056 193.99 328.056 193.865 328.056 193.865C328.056 193.741 328.056 193.741 327.932 193.616C327.932 193.492 327.807 193.492 327.683 193.367C327.558 193.243 327.31 193.118 327.061 192.994C326.812 192.869 326.438 192.745 326.065 192.621C325.692 192.496 325.318 192.372 324.82 192.372C324.323 192.247 323.949 192.247 323.452 192.247C322.331 192.247 321.336 192.372 320.589 192.745C319.718 192.994 319.096 193.492 318.598 193.99C318.1 194.487 317.727 195.11 317.478 195.732C317.229 196.354 317.104 196.976 317.104 197.599C317.104 198.47 317.229 199.092 317.478 199.714C317.727 200.337 318.1 200.834 318.598 201.208C319.096 201.581 319.593 201.954 320.091 202.328C320.714 202.577 321.211 202.826 321.834 203.075C322.456 203.323 323.078 203.572 323.576 203.821C324.198 204.07 324.696 204.319 325.069 204.568C325.567 204.817 325.941 205.19 326.189 205.564C326.438 205.937 326.563 206.435 326.563 207.057C326.563 207.679 326.438 208.177 326.189 208.55C325.941 209.048 325.692 209.297 325.318 209.67C324.945 209.919 324.447 210.168 323.949 210.293C323.452 210.417 322.829 210.542 322.207 210.542C321.46 210.542 320.714 210.417 320.091 210.293C319.469 210.044 318.971 209.919 318.473 209.67C317.976 209.422 317.727 209.173 317.353 209.048C317.104 208.799 316.856 208.799 316.731 208.799C316.607 208.799 316.607 208.799 316.482 208.924C316.358 208.924 316.358 209.048 316.358 209.173C316.358 209.297 316.233 209.422 316.233 209.546C316.233 209.67 316.233 209.795 316.233 210.044C316.233 210.417 316.233 210.666 316.358 210.915C316.482 211.164 316.482 211.288 316.731 211.413C316.856 211.537 317.104 211.662 317.478 211.911C317.851 212.035 318.225 212.284 318.722 212.408C319.22 212.533 319.718 212.657 320.34 212.782C320.962 212.906 321.585 212.906 322.207 212.906C323.203 212.906 324.198 212.782 325.069 212.533C325.941 212.284 326.687 211.911 327.31 211.413C327.932 210.915 328.43 210.293 328.679 209.546C329.052 208.799 329.176 208.053 329.176 207.181C329.176 206.435 329.052 205.688 328.803 205.19C328.305 204.195 327.932 203.821 327.434 203.323Z" fill="white"/>
<path d="M351.08 194.861C350.458 194.114 349.586 193.367 348.591 192.994C347.595 192.496 346.351 192.247 344.982 192.247C343.613 192.247 342.493 192.496 341.373 192.994C340.252 193.492 339.381 194.114 338.635 194.985C337.888 195.856 337.266 196.976 336.892 198.221C336.519 199.465 336.27 200.959 336.27 202.452C336.27 204.07 336.519 205.564 336.892 206.808C337.266 208.053 337.888 209.173 338.635 210.044C339.381 210.915 340.377 211.537 341.497 212.035C342.617 212.533 343.862 212.657 345.355 212.657C346.226 212.657 347.097 212.533 347.844 212.408C348.591 212.284 349.337 212.16 349.835 211.911C350.458 211.786 350.831 211.537 351.204 211.413C351.578 211.288 351.827 211.164 351.827 211.039C351.951 210.915 351.951 210.915 351.951 210.791C351.951 210.666 352.075 210.666 352.075 210.542C352.075 210.417 352.075 210.417 352.075 210.293C352.075 210.168 352.075 210.168 352.075 210.044C352.075 209.795 352.075 209.67 352.075 209.546C352.075 209.422 352.075 209.297 351.951 209.173C351.951 209.048 351.827 209.048 351.827 208.924C351.702 208.924 351.702 208.799 351.578 208.799C351.453 208.799 351.204 208.924 350.831 209.048C350.458 209.173 350.084 209.422 349.586 209.546C349.089 209.67 348.466 209.919 347.844 210.044C347.097 210.168 346.351 210.293 345.479 210.293C344.235 210.293 343.239 210.168 342.368 209.795C341.497 209.422 340.875 208.924 340.252 208.302C339.755 207.679 339.381 206.808 339.132 205.937C338.884 204.941 338.759 203.946 338.759 202.826H351.578C351.827 202.826 352.075 202.701 352.324 202.577C352.573 202.452 352.698 202.079 352.698 201.581V201.083C352.698 199.963 352.573 198.843 352.2 197.723C352.2 196.603 351.702 195.607 351.08 194.861ZM339.008 200.71C339.008 199.839 339.257 199.092 339.506 198.345C339.755 197.599 340.128 196.852 340.626 196.354C341.124 195.732 341.746 195.358 342.493 194.985C343.239 194.612 343.986 194.487 344.982 194.487C346.848 194.487 348.217 195.11 349.213 196.23C350.209 197.35 350.582 198.968 350.582 200.959H339.008V200.71Z" fill="white"/>
<path d="M372.236 193.118C372.236 192.994 372.236 192.994 372.112 192.994L371.988 192.869C371.863 192.869 371.739 192.745 371.49 192.621C371.241 192.496 370.992 192.496 370.743 192.372C370.494 192.372 370.245 192.247 369.996 192.247C369.747 192.247 369.498 192.247 369.374 192.247C369.001 192.247 368.503 192.247 368.13 192.372C367.756 192.496 367.383 192.621 366.885 192.869C366.512 193.118 366.014 193.492 365.516 193.99C365.018 194.487 364.52 195.11 364.023 195.856V192.869C364.023 192.745 364.023 192.745 364.023 192.621C364.023 192.496 363.898 192.496 363.898 192.496C363.774 192.496 363.649 192.372 363.525 192.372C363.4 192.372 363.151 192.372 362.903 192.372C362.654 192.372 362.529 192.372 362.28 192.372C362.156 192.372 362.031 192.372 361.907 192.496C361.782 192.496 361.782 192.621 361.658 192.621C361.658 192.745 361.658 192.745 361.658 192.869V211.662C361.658 211.786 361.658 211.786 361.658 211.911C361.658 212.035 361.782 212.035 361.907 212.035C362.031 212.035 362.156 212.16 362.28 212.16C362.405 212.16 362.654 212.16 362.903 212.16C363.151 212.16 363.4 212.16 363.525 212.16C363.649 212.16 363.774 212.035 363.898 212.035C364.023 212.035 364.023 211.911 364.147 211.911C364.147 211.786 364.271 211.786 364.271 211.662V198.968C364.769 198.096 365.267 197.35 365.765 196.852C366.263 196.23 366.636 195.856 367.009 195.483C367.383 195.11 367.756 194.861 368.13 194.736C368.503 194.612 368.876 194.487 369.25 194.487C369.623 194.487 369.872 194.487 370.121 194.612C370.37 194.736 370.619 194.736 370.867 194.861C371.116 194.985 371.241 194.985 371.49 195.11C371.614 195.11 371.863 195.234 371.988 195.234C372.112 195.234 372.112 195.234 372.236 195.11C372.236 195.11 372.361 194.985 372.361 194.861C372.361 194.736 372.361 194.612 372.485 194.487C372.485 194.363 372.485 194.114 372.485 193.99C372.485 193.741 372.485 193.616 372.485 193.492C372.236 193.367 372.236 193.243 372.236 193.118Z" fill="white"/>
<path d="M394.389 192.621C394.264 192.621 394.14 192.496 394.015 192.496C393.891 192.496 393.642 192.496 393.517 192.496C393.269 192.496 393.02 192.496 392.895 192.496C392.771 192.496 392.646 192.496 392.522 192.621C392.397 192.621 392.397 192.745 392.273 192.745C392.273 192.869 392.149 192.869 392.149 192.994L386.424 209.422V209.546V209.422L380.574 192.994C380.574 192.869 380.45 192.869 380.45 192.745C380.45 192.621 380.326 192.621 380.201 192.621C380.077 192.621 379.952 192.496 379.828 192.496C379.703 192.496 379.454 192.496 379.081 192.496C378.832 192.496 378.708 192.496 378.459 192.496C378.334 192.496 378.21 192.496 378.085 192.621C377.961 192.621 377.961 192.745 377.837 192.745C377.837 192.869 377.712 192.869 377.712 192.994V193.118V193.243C377.712 193.367 377.712 193.367 377.837 193.492L384.681 211.786C384.681 211.911 384.806 211.911 384.806 212.035C384.93 212.16 385.055 212.16 385.179 212.16C385.304 212.16 385.428 212.284 385.677 212.284C385.801 212.284 386.05 212.284 386.299 212.284C386.548 212.284 386.797 212.284 386.922 212.284C387.046 212.284 387.295 212.284 387.419 212.16C387.544 212.16 387.668 212.035 387.793 212.035C387.917 211.911 387.917 211.911 388.042 211.786L394.886 193.492V193.367V193.243V193.118V192.994C394.886 192.869 394.886 192.869 394.886 192.745C394.513 192.745 394.513 192.621 394.389 192.621Z" fill="white"/>
<path d="M403.349 185.029C402.727 185.029 402.354 185.153 402.105 185.402C401.856 185.651 401.731 186.149 401.731 186.771C401.731 187.394 401.856 187.891 402.105 188.14C402.354 188.389 402.727 188.514 403.349 188.514C403.972 188.514 404.345 188.389 404.594 188.14C404.843 187.891 404.967 187.394 404.967 186.771C404.967 186.149 404.843 185.651 404.594 185.402C404.345 185.153 403.972 185.029 403.349 185.029Z" fill="white"/>
<path d="M404.345 192.621C404.22 192.621 404.096 192.496 403.971 192.496C403.847 192.496 403.598 192.496 403.349 192.496C403.1 192.496 402.976 192.496 402.727 192.496C402.602 192.496 402.478 192.496 402.353 192.621C402.229 192.621 402.229 192.745 402.105 192.745C402.105 192.869 402.105 192.869 402.105 192.994V211.786C402.105 211.911 402.105 211.911 402.105 212.035C402.105 212.16 402.229 212.16 402.353 212.16C402.478 212.16 402.602 212.284 402.727 212.284C402.851 212.284 403.1 212.284 403.349 212.284C403.598 212.284 403.847 212.284 403.971 212.284C404.096 212.284 404.22 212.16 404.345 212.16C404.469 212.16 404.469 212.035 404.594 212.035C404.594 211.911 404.718 211.911 404.718 211.786V192.994C404.718 192.869 404.718 192.869 404.594 192.745C404.469 192.745 404.469 192.621 404.345 192.621Z" fill="white"/>
<path d="M427.742 208.177C427.742 208.053 427.618 208.053 427.618 207.928C427.493 207.928 427.493 207.804 427.369 207.804C427.245 207.804 426.996 207.928 426.622 208.177C426.249 208.426 425.876 208.675 425.502 209.048C425.004 209.422 424.507 209.67 423.884 209.919C423.262 210.168 422.515 210.293 421.644 210.293C420.773 210.293 419.902 210.168 419.28 209.795C418.533 209.422 417.911 208.924 417.537 208.302C417.04 207.679 416.666 206.808 416.417 205.812C416.168 204.817 416.044 203.697 416.044 202.328C416.044 199.714 416.542 197.723 417.537 196.354C418.533 194.985 419.902 194.238 421.769 194.238C422.64 194.238 423.387 194.363 424.009 194.612C424.631 194.861 425.129 195.11 425.627 195.483C426.125 195.732 426.373 196.105 426.747 196.354C426.996 196.603 427.245 196.727 427.493 196.727C427.618 196.727 427.742 196.603 427.867 196.479C427.991 196.354 427.991 195.981 427.991 195.607C427.991 195.483 427.991 195.234 427.991 195.11C427.991 194.985 427.991 194.861 427.867 194.736C427.867 194.612 427.742 194.487 427.742 194.487C427.618 194.363 427.618 194.238 427.369 194.114C427.245 193.99 426.871 193.741 426.498 193.492C426.124 193.243 425.751 192.994 425.253 192.869C424.756 192.621 424.258 192.496 423.635 192.372C423.013 192.247 422.515 192.247 421.893 192.247C420.773 192.247 419.653 192.496 418.657 192.869C417.662 193.243 416.791 193.865 416.044 194.736C415.297 195.607 414.675 196.603 414.302 197.972C413.804 199.216 413.679 200.834 413.679 202.701C413.679 204.319 413.804 205.812 414.177 207.057C414.55 208.302 415.048 209.297 415.671 210.168C416.293 211.039 417.164 211.662 418.16 212.16C419.155 212.657 420.275 212.782 421.644 212.782C422.266 212.782 422.889 212.657 423.511 212.533C424.133 212.408 424.631 212.284 425.253 212.035C425.751 211.786 426.249 211.537 426.622 211.288C426.996 211.039 427.369 210.791 427.493 210.542C427.618 210.417 427.742 210.293 427.867 210.168C427.867 210.044 427.991 210.044 427.991 209.919C427.991 209.795 427.991 209.67 428.116 209.546C428.116 209.422 428.116 209.297 428.116 209.048C428.116 208.799 428.116 208.675 428.116 208.55C427.867 208.426 427.742 208.302 427.742 208.177Z" fill="white"/>
<path d="M449.521 194.861C448.899 194.114 448.028 193.367 447.032 192.994C446.037 192.496 444.792 192.247 443.423 192.247C442.054 192.247 440.934 192.496 439.814 192.994C438.694 193.492 437.823 194.114 437.076 194.985C436.329 195.856 435.707 196.976 435.334 198.221C434.96 199.465 434.712 200.959 434.712 202.452C434.712 204.07 434.96 205.564 435.334 206.808C435.707 208.053 436.329 209.173 437.076 210.044C437.823 210.915 438.818 211.537 439.939 212.035C441.059 212.533 442.303 212.657 443.797 212.657C444.668 212.657 445.539 212.533 446.286 212.408C447.032 212.284 447.779 212.16 448.277 211.911C448.899 211.786 449.272 211.537 449.646 211.413C450.019 211.288 450.268 211.164 450.268 211.039C450.392 210.915 450.392 210.915 450.392 210.791C450.392 210.666 450.517 210.666 450.517 210.542C450.517 210.417 450.517 210.417 450.517 210.293C450.517 210.168 450.517 210.168 450.517 210.044C450.517 209.795 450.517 209.67 450.517 209.546C450.517 209.422 450.517 209.297 450.392 209.173C450.392 209.048 450.268 209.048 450.268 208.924C450.144 208.924 450.144 208.799 450.019 208.799C449.895 208.799 449.646 208.924 449.272 209.048C448.899 209.173 448.526 209.422 448.028 209.546C447.53 209.67 446.908 209.919 446.286 210.044C445.539 210.168 444.792 210.293 443.921 210.293C442.676 210.293 441.681 210.168 440.81 209.795C439.938 209.422 439.316 208.924 438.694 208.302C438.196 207.679 437.823 206.808 437.574 205.937C437.325 204.941 437.201 203.946 437.201 202.826H450.019C450.268 202.826 450.517 202.701 450.766 202.577C451.015 202.452 451.139 202.079 451.139 201.581V201.083C451.139 199.963 451.015 198.843 450.641 197.723C450.641 196.603 450.144 195.607 449.521 194.861ZM437.449 200.71C437.449 199.839 437.698 199.092 437.947 198.345C438.196 197.599 438.57 196.852 439.067 196.354C439.565 195.732 440.187 195.358 440.934 194.985C441.681 194.612 442.428 194.487 443.423 194.487C445.29 194.487 446.659 195.11 447.655 196.23C448.65 197.35 449.024 198.968 449.024 200.959H437.449V200.71Z" fill="white"/>
<path d="M501.294 185.651C501.169 185.527 501.045 185.527 500.92 185.402C500.796 185.402 500.671 185.278 500.547 185.278H499.054C498.805 185.278 498.556 185.278 498.431 185.402C498.182 185.402 498.058 185.527 497.809 185.651C497.685 185.776 497.436 186.025 497.311 186.149C497.187 186.398 497.062 186.647 496.813 187.02L487.604 208.301H487.479L478.643 186.896C478.519 186.647 478.394 186.398 478.27 186.149C478.146 185.9 478.021 185.776 477.772 185.651C477.523 185.527 477.399 185.402 477.025 185.278C476.777 185.153 476.403 185.153 476.154 185.153H474.785C474.536 185.153 474.288 185.278 474.039 185.402C473.79 185.651 473.665 185.9 473.665 186.398V211.662C473.665 211.786 473.665 211.786 473.665 211.911C473.665 212.035 473.79 212.035 473.914 212.035C474.039 212.035 474.163 212.159 474.288 212.159C474.412 212.159 474.661 212.159 474.91 212.159C475.159 212.159 475.408 212.159 475.532 212.159C475.657 212.159 475.781 212.035 475.905 212.035C476.03 212.035 476.03 211.911 476.154 211.911C476.154 211.786 476.154 211.786 476.154 211.662V187.518L486.235 211.911C486.235 211.911 486.235 212.035 486.359 212.035C486.359 212.035 486.484 212.159 486.608 212.159C486.733 212.159 486.857 212.284 486.982 212.284C487.106 212.284 487.231 212.284 487.479 212.284C487.604 212.284 487.853 212.284 487.977 212.284C488.102 212.284 488.226 212.284 488.351 212.159C488.475 212.159 488.475 212.035 488.6 212.035L488.724 211.911L499.302 187.518V211.786C499.302 211.911 499.302 211.911 499.427 212.035C499.427 212.159 499.551 212.159 499.676 212.159C499.8 212.159 499.925 212.284 500.049 212.284C500.174 212.284 500.422 212.284 500.671 212.284C500.92 212.284 501.169 212.284 501.294 212.284C501.418 212.284 501.543 212.159 501.667 212.159C501.791 212.159 501.791 212.035 501.916 212.035C501.916 211.911 502.04 211.911 502.04 211.786V186.522C502.04 186.273 502.04 186.025 501.916 185.9C501.543 185.9 501.418 185.776 501.294 185.651Z" fill="white"/>
<path d="M524.068 194.114C523.57 193.492 522.823 193.118 521.952 192.745C521.081 192.372 519.961 192.247 518.716 192.247C518.094 192.247 517.347 192.372 516.725 192.496C516.103 192.621 515.48 192.745 514.858 192.994C514.236 193.243 513.738 193.367 513.365 193.616C512.867 193.865 512.618 194.114 512.494 194.238C512.369 194.363 512.245 194.612 512.12 194.736C512.12 194.861 511.996 195.11 511.996 195.483C511.996 195.607 511.996 195.732 511.996 195.856C511.996 195.981 511.996 196.105 512.12 196.105C512.12 196.23 512.245 196.23 512.245 196.23C512.369 196.23 512.369 196.23 512.494 196.23C512.618 196.23 512.867 196.105 513.24 195.981C513.614 195.732 513.987 195.607 514.485 195.358C514.983 195.11 515.605 194.861 516.227 194.736C516.849 194.487 517.596 194.487 518.467 194.487C519.338 194.487 520.085 194.612 520.707 194.861C521.33 195.11 521.828 195.358 522.201 195.856C522.574 196.23 522.823 196.727 523.072 197.35C523.196 197.972 523.321 198.719 523.321 199.465V201.083H520.085C518.716 201.083 517.472 201.208 516.352 201.457C515.232 201.706 514.236 202.079 513.489 202.577C512.743 203.075 512.12 203.697 511.622 204.443C511.249 205.19 511 206.061 511 207.181C511 208.053 511.125 208.799 511.498 209.422C511.747 210.044 512.245 210.666 512.743 211.164C513.24 211.662 513.987 212.035 514.734 212.284C515.48 212.533 516.352 212.657 517.347 212.657C518.467 212.657 519.463 212.408 520.459 211.911C521.454 211.413 522.45 210.666 523.196 209.795V211.911C523.196 212.035 523.196 212.16 523.321 212.284C523.445 212.408 523.57 212.408 523.694 212.408C523.819 212.408 524.068 212.408 524.317 212.408C524.565 212.408 524.814 212.408 524.939 212.408C525.063 212.408 525.188 212.284 525.312 212.284C525.437 212.16 525.437 212.16 525.437 211.911V199.216C525.437 198.096 525.312 197.225 525.063 196.354C524.939 195.358 524.565 194.612 524.068 194.114ZM523.072 207.43C522.076 208.426 521.205 209.297 520.334 209.795C519.463 210.293 518.592 210.542 517.596 210.542C516.352 210.542 515.356 210.168 514.734 209.546C513.987 208.924 513.738 208.053 513.738 206.933C513.738 206.31 513.863 205.812 514.111 205.315C514.36 204.817 514.734 204.443 515.232 204.07C515.729 203.697 516.352 203.448 517.098 203.323C517.845 203.199 518.716 203.075 519.712 203.075H523.196V207.43H523.072Z" fill="white"/>
<path d="M550.078 192.621H544.477C544.104 192.496 543.606 192.496 543.108 192.372C542.611 192.247 542.113 192.247 541.615 192.247C540.619 192.247 539.624 192.372 538.753 192.745C537.881 193.118 537.135 193.492 536.512 194.114C535.89 194.736 535.392 195.358 535.019 196.23C534.646 197.101 534.521 197.972 534.521 199.092C534.521 199.963 534.646 200.71 534.895 201.332C535.143 201.954 535.392 202.577 535.89 203.075C535.392 203.572 535.019 204.195 534.646 204.817C534.272 205.439 534.148 206.186 534.148 207.057C534.148 207.679 534.272 208.177 534.646 208.675C535.019 209.173 535.517 209.67 536.264 210.044C535.766 210.417 535.392 210.791 535.143 211.164C534.77 211.537 534.521 211.911 534.272 212.284C534.023 212.657 533.899 213.031 533.775 213.528C533.65 213.902 533.65 214.4 533.65 214.897C533.65 215.644 533.774 216.266 534.148 216.889C534.397 217.511 534.895 218.009 535.641 218.507C536.264 219.004 537.135 219.253 538.13 219.627C539.126 219.876 540.37 220 541.864 220C543.357 220 544.726 219.876 545.846 219.502C546.966 219.129 547.838 218.755 548.584 218.133C549.331 217.511 549.829 216.889 550.202 216.142C550.576 215.395 550.7 214.524 550.7 213.777C550.7 213.031 550.576 212.284 550.202 211.662C549.829 211.039 549.455 210.542 548.833 210.168C548.211 209.795 547.589 209.422 546.842 209.297C546.095 209.048 545.224 208.924 544.477 208.924L539.375 208.675C538.628 208.675 537.881 208.426 537.384 208.053C536.886 207.679 536.637 207.306 536.637 206.684C536.637 206.186 536.761 205.812 536.886 205.439C537.01 205.066 537.259 204.817 537.633 204.443C538.006 204.817 538.628 205.066 539.375 205.315C540.122 205.564 540.993 205.688 541.739 205.688C542.735 205.688 543.731 205.564 544.602 205.19C545.473 204.941 546.22 204.443 546.842 203.821C547.464 203.199 547.962 202.577 548.335 201.706C548.709 200.834 548.833 199.963 548.833 198.843C548.833 198.096 548.709 197.35 548.46 196.603C548.211 195.856 547.838 195.234 547.215 194.612H550.202C550.451 194.612 550.576 194.487 550.7 194.363C550.824 194.238 550.824 193.99 550.824 193.492C550.824 193.118 550.824 192.869 550.7 192.745C550.451 192.621 550.327 192.621 550.078 192.621ZM536.512 212.782C536.761 212.408 537.01 212.16 537.259 211.786C537.633 211.413 538.006 211.039 538.504 210.666L543.98 210.791C545.224 210.791 546.22 211.039 546.966 211.537C547.713 212.035 548.087 212.782 548.087 213.653C548.087 214.151 547.962 214.649 547.713 215.146C547.464 215.644 547.215 216.018 546.718 216.391C546.22 216.764 545.597 217.013 544.851 217.262C544.104 217.511 543.108 217.635 541.988 217.635C540.122 217.635 538.753 217.387 537.633 216.889C536.637 216.391 536.139 215.644 536.139 214.524C536.139 214.151 536.139 213.902 536.264 213.528C536.139 213.404 536.264 213.155 536.512 212.782ZM545.722 200.71C545.597 201.332 545.224 201.706 544.851 202.203C544.477 202.577 543.98 202.95 543.482 203.199C542.859 203.448 542.237 203.572 541.491 203.572C540.122 203.572 539.002 203.199 538.13 202.328C537.384 201.581 537.01 200.461 537.01 199.092C537.01 198.47 537.135 197.848 537.259 197.225C537.384 196.603 537.757 196.105 538.13 195.732C538.504 195.358 539.002 194.985 539.499 194.736C539.997 194.487 540.744 194.363 541.491 194.363C542.984 194.363 544.104 194.736 544.851 195.607C545.597 196.354 545.971 197.474 545.971 198.968C546.095 199.465 545.971 200.088 545.722 200.71Z" fill="white"/>
<path d="M569.618 194.114C569.12 193.492 568.373 193.118 567.502 192.745C566.631 192.372 565.511 192.247 564.266 192.247C563.644 192.247 562.897 192.372 562.275 192.496C561.653 192.621 561.03 192.745 560.408 192.994C559.786 193.243 559.288 193.367 558.915 193.616C558.417 193.865 558.168 194.114 558.044 194.238C557.919 194.363 557.795 194.612 557.67 194.736C557.67 194.861 557.546 195.11 557.546 195.483C557.546 195.607 557.546 195.732 557.546 195.856C557.546 195.981 557.546 196.105 557.67 196.105C557.67 196.23 557.795 196.23 557.795 196.23C557.919 196.23 557.919 196.23 558.044 196.23C558.168 196.23 558.417 196.105 558.79 195.981C559.164 195.732 559.537 195.607 560.035 195.358C560.533 195.11 561.155 194.861 561.777 194.736C562.399 194.487 563.146 194.487 564.017 194.487C564.888 194.487 565.635 194.612 566.257 194.861C566.88 195.11 567.377 195.358 567.751 195.856C568.124 196.23 568.373 196.727 568.622 197.35C568.746 197.972 568.871 198.719 568.871 199.465V201.083H565.884C564.515 201.083 563.27 201.208 562.15 201.457C561.03 201.706 560.035 202.079 559.288 202.577C558.541 203.075 557.919 203.697 557.421 204.443C557.048 205.19 556.799 206.061 556.799 207.181C556.799 208.053 556.923 208.799 557.297 209.422C557.546 210.044 558.043 210.666 558.541 211.164C559.039 211.662 559.786 212.035 560.533 212.284C561.279 212.533 562.15 212.657 563.146 212.657C564.266 212.657 565.262 212.408 566.257 211.911C567.253 211.413 568.249 210.666 568.995 209.795V211.911C568.995 212.035 568.995 212.16 569.12 212.284C569.244 212.408 569.369 212.408 569.493 212.408C569.618 212.408 569.866 212.408 570.115 212.408C570.364 212.408 570.613 212.408 570.738 212.408C570.862 212.408 570.987 212.284 571.111 212.284C571.235 212.16 571.235 212.16 571.235 211.911V199.216C571.235 198.096 571.111 197.225 570.862 196.354C570.613 195.358 570.115 194.612 569.618 194.114ZM568.622 207.43C567.626 208.426 566.755 209.297 565.884 209.795C565.013 210.293 564.142 210.542 563.146 210.542C561.902 210.542 560.906 210.168 560.284 209.546C559.537 208.924 559.288 208.053 559.288 206.933C559.288 206.31 559.412 205.812 559.661 205.315C559.91 204.817 560.284 204.443 560.781 204.07C561.279 203.697 561.902 203.448 562.648 203.323C563.395 203.199 564.266 203.075 565.262 203.075H568.746V207.43H568.622Z" fill="white"/>
<path d="M592.391 210.417C592.391 210.293 592.267 210.293 592.143 210.168C592.018 210.168 592.018 210.044 591.894 210.044H582.311L591.271 195.981C591.396 195.732 591.52 195.607 591.645 195.358C591.769 195.234 591.769 194.985 591.894 194.861C591.894 194.736 592.018 194.612 592.018 194.487C592.018 194.363 592.018 194.238 592.018 194.114V193.616C592.018 193.367 592.018 193.243 591.894 193.118C591.894 192.994 591.769 192.869 591.769 192.745C591.645 192.62 591.645 192.62 591.52 192.496C591.396 192.496 591.271 192.372 591.147 192.372H580.693C580.569 192.372 580.569 192.372 580.444 192.496C580.32 192.496 580.32 192.62 580.195 192.745C580.195 192.869 580.071 192.994 580.071 193.118C580.071 193.243 580.071 193.367 580.071 193.616C580.071 193.989 580.195 194.238 580.32 194.487C580.444 194.612 580.569 194.736 580.817 194.736H589.654L580.693 208.799C580.569 209.048 580.444 209.173 580.32 209.297C580.195 209.422 580.195 209.546 580.071 209.795C580.071 209.919 579.946 210.044 579.946 210.168C579.946 210.293 579.946 210.417 579.946 210.542V211.164C579.946 211.537 580.071 211.786 580.195 212.035C580.32 212.159 580.569 212.284 580.817 212.284H592.018C592.143 212.284 592.267 212.284 592.267 212.159C592.391 212.159 592.391 212.035 592.516 211.911C592.516 211.786 592.64 211.662 592.64 211.537C592.64 211.413 592.64 211.288 592.64 211.039C592.64 210.915 592.64 210.666 592.64 210.542C592.516 210.542 592.516 210.417 592.391 210.417Z" fill="white"/>
<path d="M603.344 192.62C603.219 192.62 603.095 192.496 602.97 192.496C602.846 192.496 602.597 192.496 602.348 192.496C602.099 192.496 601.975 192.496 601.726 192.496C601.601 192.496 601.477 192.496 601.352 192.62C601.228 192.62 601.228 192.745 601.104 192.745C601.104 192.869 601.104 192.869 601.104 192.994V211.786C601.104 211.911 601.104 211.911 601.104 212.035C601.104 212.159 601.228 212.159 601.352 212.159C601.477 212.159 601.601 212.284 601.726 212.284C601.85 212.284 602.099 212.284 602.348 212.284C602.597 212.284 602.846 212.284 602.97 212.284C603.095 212.284 603.219 212.159 603.344 212.159C603.468 212.159 603.468 212.035 603.593 212.035C603.593 211.911 603.717 211.911 603.717 211.786V192.994C603.717 192.869 603.717 192.869 603.593 192.745C603.593 192.745 603.468 192.62 603.344 192.62Z" fill="white"/>
<path d="M602.472 185.029C601.85 185.029 601.477 185.153 601.228 185.402C600.979 185.651 600.854 186.149 600.854 186.771C600.854 187.394 600.979 187.891 601.228 188.14C601.477 188.389 601.85 188.514 602.472 188.514C603.095 188.514 603.468 188.389 603.717 188.14C603.966 187.891 604.09 187.394 604.09 186.771C604.09 186.149 603.966 185.651 603.717 185.402C603.468 185.153 603.095 185.029 602.472 185.029Z" fill="white"/>
<path d="M627.612 194.612C627.114 193.865 626.368 193.367 625.621 192.869C624.75 192.496 623.754 192.247 622.509 192.247C621.514 192.247 620.394 192.496 619.398 193.118C618.403 193.616 617.283 194.487 616.162 195.732V193.118C616.162 192.994 616.162 192.994 616.162 192.869C616.162 192.745 616.038 192.745 616.038 192.745C615.914 192.745 615.789 192.621 615.665 192.621C615.54 192.621 615.291 192.621 615.042 192.621C614.793 192.621 614.669 192.621 614.42 192.621C614.296 192.621 614.171 192.621 614.047 192.745C613.922 192.745 613.922 192.869 613.798 192.869C613.798 192.994 613.798 192.994 613.798 193.118V211.911C613.798 212.035 613.798 212.035 613.798 212.16C613.798 212.284 613.922 212.284 614.047 212.284C614.171 212.284 614.296 212.408 614.42 212.408C614.545 212.408 614.793 212.408 615.042 212.408C615.291 212.408 615.54 212.408 615.665 212.408C615.789 212.408 615.914 212.284 616.038 212.284C616.162 212.284 616.162 212.16 616.287 212.16C616.287 212.035 616.411 212.035 616.411 211.911V198.345C617.407 196.976 618.527 195.981 619.398 195.358C620.394 194.736 621.265 194.363 622.261 194.363C623.007 194.363 623.63 194.487 624.252 194.736C624.874 194.985 625.247 195.483 625.621 195.981C625.994 196.479 626.243 197.101 626.492 197.848C626.616 198.594 626.741 199.465 626.741 200.71V211.911C626.741 212.035 626.741 212.035 626.865 212.16C626.865 212.284 626.99 212.284 627.114 212.284C627.239 212.284 627.363 212.408 627.488 212.408C627.612 212.408 627.861 212.408 628.11 212.408C628.359 212.408 628.483 212.408 628.732 212.408C628.857 212.408 628.981 212.284 629.105 212.284C629.23 212.284 629.23 212.16 629.354 212.16C629.354 212.035 629.479 212.035 629.479 211.911V200.461C629.479 199.092 629.354 197.972 629.105 197.101C628.483 196.105 628.11 195.234 627.612 194.612Z" fill="white"/>
<path d="M653.995 197.599C653.747 196.603 653.249 195.607 652.626 194.861C652.004 194.114 651.133 193.367 650.137 192.994C649.142 192.496 647.897 192.247 646.528 192.247C645.159 192.247 644.039 192.496 642.919 192.994C641.799 193.492 640.928 194.114 640.181 194.985C639.435 195.856 638.812 196.976 638.439 198.221C638.066 199.465 637.817 200.959 637.817 202.452C637.817 204.07 638.066 205.564 638.439 206.808C638.812 208.053 639.435 209.173 640.181 210.044C640.928 210.915 641.924 211.537 643.044 212.035C644.164 212.533 645.408 212.657 646.902 212.657C647.773 212.657 648.644 212.533 649.391 212.408C650.137 212.284 650.884 212.16 651.382 211.911C652.004 211.786 652.378 211.537 652.751 211.413C653.124 211.288 653.373 211.164 653.373 211.039C653.498 210.915 653.498 210.915 653.498 210.791C653.498 210.666 653.622 210.666 653.622 210.542C653.622 210.417 653.622 210.417 653.622 210.293C653.622 210.168 653.622 210.168 653.622 210.044C653.622 209.795 653.622 209.67 653.622 209.546C653.622 209.422 653.622 209.297 653.498 209.173C653.498 209.048 653.373 209.048 653.373 208.924C653.249 208.924 653.249 208.799 653.124 208.799C653 208.799 652.751 208.924 652.378 209.048C652.004 209.173 651.631 209.422 651.133 209.546C650.635 209.67 650.013 209.919 649.391 210.044C648.644 210.168 647.897 210.293 647.026 210.293C645.782 210.293 644.786 210.168 643.915 209.795C643.044 209.422 642.421 208.924 641.799 208.302C641.301 207.679 640.928 206.808 640.679 205.937C640.43 204.941 640.306 203.946 640.306 202.826H653.124C653.373 202.826 653.622 202.701 653.871 202.577C654.12 202.452 654.244 202.079 654.244 201.581V201.083C654.493 199.839 654.369 198.719 653.995 197.599ZM640.43 200.71C640.43 199.839 640.679 199.092 640.928 198.345C641.177 197.599 641.55 196.852 642.048 196.354C642.546 195.732 643.168 195.358 643.915 194.985C644.662 194.612 645.408 194.487 646.404 194.487C648.271 194.487 649.64 195.11 650.635 196.23C651.631 197.35 652.004 198.968 652.004 200.959H640.43V200.71Z" fill="white"/>
<path d="M39.3269 74.8888H0V167.357H36.0911V145.826H39.2024C62.1016 145.702 83.6318 137.862 83.6318 110.358C83.6318 82.7292 62.226 75.0132 39.3269 74.8888ZM40.0736 118.323H35.7178V102.766H40.0736C46.0473 102.766 48.7852 106.126 48.7852 110.482C48.7852 114.962 46.0473 118.198 40.0736 118.323Z" fill="white"/>
<path d="M177.842 108.989C177.842 81.3603 155.565 75.0132 132.542 74.8888H92.717V167.357H128.808V142.84H131.297L142.996 167.357H179.336V164.494L164.152 135.87C172.366 130.892 177.842 122.429 177.842 108.989ZM133.288 115.087H128.31V102.642H133.288C139.262 102.642 142 104.633 142 108.989C142 113.469 139.262 114.962 133.288 115.087Z" fill="white"/>
<path d="M355.933 115.46H390.406C384.432 56.8432 292.96 58.5855 292.711 121.309C292.96 183.909 385.055 185.153 390.406 126.536H356.057C351.826 142.342 328.553 140.848 328.429 121.309C328.553 101.895 351.328 100.028 355.933 115.46Z" fill="white"/>
<path d="M449.397 106.002H432.844V74.8888H396.878V167.357H432.844V135.124H449.397V167.357H485.363V74.8888H449.397V106.002Z" fill="white"/>
<path d="M497.186 167.357H571.235V140.102H533.152V134.128H569.866V108.366H533.152V102.144H571.235V74.8888H497.186V167.357Z" fill="white"/>
<path d="M656.982 103.139V74.8888H582.809V167.357H618.775V136.368H655.489V109.238H618.775V103.139H656.982Z" fill="white"/>
<path d="M236.832 36.433C239.819 28.717 246.788 8.80466 238.574 2.08425C235.214 -0.653696 232.352 0.093016 229.489 0.093016C217.666 0.093016 217.293 19.0097 217.666 25.6057C218.04 31.5794 218.662 63.0658 218.662 63.0658C218.662 63.1902 233.098 63.688 234.094 63.3147C242.308 60.3278 233.347 53.8563 234.219 45.518C234.467 42.2823 235.712 39.4199 236.832 36.433ZM231.978 12.7871C230.112 12.7871 228.618 11.2937 228.618 9.42692C228.618 7.56014 230.112 6.06672 231.978 6.06672C233.845 6.06672 235.339 7.56014 235.339 9.42692C235.214 11.2937 233.721 12.7871 231.978 12.7871Z" fill="white"/>
<path d="M217.169 163.374C217.169 163.374 261.225 167.232 261.225 88.7031C261.225 80.2404 250.398 79.3692 239.819 79.3692H217.169V163.374Z" fill="white"/>
<path d="M237.828 105.006L239.943 113.469C240.068 114.091 240.69 114.465 241.312 114.465L250.024 113.842C251.393 113.718 252.015 115.585 250.771 116.331L243.304 121.06C242.806 121.434 242.557 122.056 242.806 122.678L246.042 130.768C246.539 132.012 245.046 133.132 243.926 132.261L237.206 126.661C236.708 126.287 235.961 126.287 235.463 126.661L228.743 132.261C227.623 133.132 226.129 132.012 226.627 130.768L229.863 122.678C230.112 122.056 229.863 121.434 229.365 121.06L221.898 116.331C220.778 115.585 221.276 113.718 222.645 113.842L231.356 114.465C231.979 114.465 232.601 114.091 232.725 113.469L234.841 105.006C235.588 103.637 237.579 103.637 237.828 105.006Z" fill="#00987C"/>
</svg>
