<svg width="558" height="152" viewBox="0 0 558 152" fill="none" xmlns="http://www.w3.org/2000/svg">
<path d="M206.607 16.1485C206.607 10.9838 206.607 5.81884 206.607 0.654129C197.753 -0.821501 187.424 -0.0835958 180.784 5.81893C174.143 11.7214 173.405 20.5755 173.405 28.6915H166.027C166.027 33.8562 166.027 39.0207 166.027 44.1854H172.667C173.405 44.1854 173.405 44.1854 174.143 44.1854V53.0393C174.143 65.5821 174.143 78.8629 174.143 91.4058H182.259C185.21 91.4058 188.9 91.4058 191.851 91.4058C191.851 78.1251 191.851 65.5819 191.851 52.3012V44.1854H203.656C203.656 39.0207 203.656 33.8562 203.656 28.6915L191.851 28.6915C191.851 25.0024 191.851 21.3131 194.802 18.3619C197.015 14.6728 202.18 16.1485 206.607 16.1485Z" fill="url(#paint0_linear_2342_692)"/>
<path d="M140.89 90.6684H149.006H153.433H158.598C158.598 77.3878 158.598 64.1071 158.598 50.0886C158.598 41.9726 155.646 33.1189 148.268 29.4299C137.201 24.2652 124.658 25.0031 113.591 27.2165C113.591 33.119 113.591 38.2836 113.591 44.1862C120.969 42.7105 129.085 41.2351 136.463 43.4485C140.152 44.9242 140.89 47.8752 141.627 51.5643C136.463 50.8265 131.298 49.3511 126.133 50.8267C120.231 51.5645 114.329 54.5154 110.64 59.6801C104.737 67.7961 106.95 80.339 115.066 86.9794C122.444 92.8819 134.249 92.1441 141.627 86.9794C140.89 88.455 140.89 89.9306 140.89 90.6684ZM140.152 77.3879C135.725 78.8635 129.823 80.3391 126.133 77.3879C122.444 74.4366 122.444 68.5341 126.871 66.3206C131.298 64.1072 135.725 64.8452 140.89 65.583C140.89 69.2721 140.89 73.6988 140.152 77.3879Z" fill="url(#paint1_linear_2342_692)"/>
<path d="M48.6956 5.82022C56.0738 5.82022 63.4521 5.82022 70.0924 5.82022C59.763 19.8387 49.4333 34.5949 38.366 48.6134C47.9576 62.6319 56.8118 76.6505 66.4034 90.669C59.0252 90.669 51.6471 90.669 44.2689 90.669C36.1529 78.1261 27.299 65.5834 19.183 53.0406C19.183 65.5834 19.183 78.1261 19.183 90.669C12.5427 90.669 6.64034 90.669 0 90.669C0 62.632 0 33.8572 0 5.82022C6.64034 5.82022 12.5427 5.82022 19.183 5.82022C19.183 19.1009 19.183 32.3818 19.183 45.6624C29.5124 32.3818 39.104 19.1009 48.6956 5.82022Z" fill="url(#paint2_linear_2342_692)"/>
<path d="M71.5781 28.6914C77.4806 28.6914 83.3832 28.6914 90.0235 28.6914C90.0235 32.3805 90.0235 36.8072 90.0235 40.4963C92.9748 33.8559 99.6152 29.4292 106.256 28.6914C106.256 34.5939 106.256 40.4962 106.256 46.3987C98.8774 47.1365 90.7613 53.039 90.0235 61.155C90.0235 70.7466 90.0235 81.076 90.0235 90.6676C84.121 90.6676 77.4806 90.6676 71.5781 90.6676C71.5781 70.0088 71.5781 49.3502 71.5781 28.6914Z" fill="url(#paint3_linear_2342_692)"/>
<path d="M394.037 78.1262C391.824 78.864 391.086 79.6022 388.135 80.34C385.184 81.0778 381.495 81.0778 378.543 80.34C368.952 76.6509 374.854 61.8946 374.854 61.8946C414.696 52.303 408.794 30.906 398.464 30.1682C391.824 30.1682 368.214 30.9064 357.146 58.2055C355.671 61.8946 344.604 91.4068 368.952 92.8825C374.116 92.8825 379.281 92.1449 384.446 89.9315C388.873 87.718 392.562 84.0291 395.513 80.34C397.726 76.6509 394.037 78.1262 394.037 78.1262ZM388.872 37.5463C391.824 38.2841 384.446 53.7784 384.446 53.7784C381.494 54.5162 378.543 55.9917 376.33 55.9917C377.068 53.7783 382.232 34.5951 388.872 37.5463Z" fill="url(#paint4_linear_2342_692)"/>
<path d="M486.285 84.0284C485.547 83.2906 484.809 83.2903 484.072 83.2903C481.12 81.0769 483.334 75.9124 484.072 72.9612L492.925 40.4971C493.663 38.2837 497.352 27.9541 482.596 30.1675C470.053 32.381 461.937 39.7595 461.937 39.7595C462.675 36.8082 464.151 32.3813 461.937 30.9056C459.724 30.1678 444.967 34.5944 441.278 37.5457C440.541 37.5457 439.065 39.0215 440.54 40.4971C442.016 42.7106 442.754 44.1862 441.278 47.8753C439.065 53.7778 433.162 75.1744 431.687 79.6013C430.211 83.2903 427.998 91.4065 431.687 93.6199C433.9 95.8334 444.968 91.4065 446.443 89.9308C447.919 89.193 449.394 88.4553 450.132 87.7175C452.346 85.504 449.394 84.7661 452.346 73.6988C452.346 72.961 456.035 62.6317 458.248 53.0401C460.461 45.6619 467.102 41.9726 470.053 41.2348C473.742 40.497 473.004 44.1864 472.267 47.1377C468.578 58.2049 464.888 75.1745 463.413 78.8636C461.937 83.2905 458.986 91.4062 463.413 92.8818C467.102 95.0953 483.334 88.455 484.809 86.9794C487.76 84.766 487.761 84.0284 486.285 84.0284Z" fill="url(#paint5_linear_2342_692)"/>
<path d="M424.999 84.0284C424.261 83.2906 423.523 83.2903 422.786 83.2903C419.834 81.0768 422.048 75.9124 422.786 72.9611L432.377 40.4971C433.115 36.808 434.59 32.3812 432.377 30.9056C429.426 30.1678 414.669 34.5944 410.98 37.5456C410.242 37.5456 408.767 39.0215 410.243 40.4971C411.718 42.7105 411.718 44.1862 410.98 47.8752C409.505 53.7778 402.127 75.9121 400.651 79.6012C399.175 84.0281 396.962 92.1442 401.389 93.6199C405.078 95.8333 419.834 89.9309 422.047 87.7174C426.474 85.504 426.474 84.0284 424.999 84.0284Z" fill="url(#paint6_linear_2342_692)"/>
<path d="M421.363 22.7882C422.1 25.0016 431.692 20.5749 436.119 18.3615C436.857 17.6236 438.333 16.148 439.07 14.6724C439.808 10.9833 440.546 9.50767 441.284 7.29422C442.022 6.55641 442.021 5.0806 440.546 4.34278C438.332 3.60497 426.527 5.08096 423.576 10.2457C422.1 11.7213 418.411 21.3125 421.363 22.7882Z" fill="url(#paint7_linear_2342_692)"/>
<path d="M557.78 58.2055C556.304 52.303 547.45 50.8274 543.761 54.5164C541.548 56.7299 540.81 60.419 541.548 61.8946C550.402 59.6812 551.877 67.0591 550.402 70.0104C547.451 74.4373 546.713 75.9128 542.286 75.9128H515.724C514.987 75.175 514.987 75.1751 515.724 73.6995C517.2 71.486 543.762 35.3329 544.499 33.8573C545.237 33.1194 546.713 30.1682 543.024 30.1682L513.511 30.1682C510.56 30.1682 509.084 30.906 506.133 33.8573C503.919 36.0707 501.706 44.1869 500.231 49.3516C500.231 49.3516 500.23 51.5648 503.181 48.6136C503.919 47.8757 504.657 46.4002 506.133 46.4002H523.841C529.743 46.4002 500.231 74.4371 490.639 89.1934C489.163 91.4068 491.377 91.4072 492.852 91.4072H531.219C540.81 91.4072 539.335 92.8825 544.499 85.5043C544.499 85.5043 559.993 64.8459 557.78 58.2055Z" fill="url(#paint8_linear_2342_692)"/>
<path d="M345.326 75.174L355.655 33.8561C363.034 8.77034 366.723 8.0328 369.674 5.08154L352.704 5.08154C346.802 5.08154 342.375 13.935 340.899 19.0998L333.521 44.9233H318.027C318.027 44.9233 326.881 11.7216 328.357 8.03253C329.094 6.5569 329.094 4.34345 326.143 4.34345C325.405 4.34345 293.679 3.606 283.35 6.55726C278.923 8.03289 272.282 12.4596 270.069 18.3621C268.593 22.0512 266.38 28.6915 270.807 40.4966C271.544 41.9722 272.283 42.7102 273.02 43.448C274.496 44.1858 287.776 42.7099 287.039 42.7099C287.776 42.7099 288.515 41.9722 287.777 40.4966C287.039 38.2831 284.087 33.1186 283.35 28.6917C281.136 10.9841 293.679 8.03253 295.893 8.03253C298.844 7.29471 301.795 7.29471 304.746 8.03253C305.484 8.03253 308.435 8.77043 309.173 9.50825C309.911 11.7217 308.435 15.4107 307.697 19.0998C306.96 22.051 298.106 53.7774 295.155 61.8934C293.679 68.5337 287.039 82.552 280.399 84.7655C278.923 85.5033 276.709 85.5033 274.496 84.7655C272.282 84.0277 270.069 83.2899 268.593 82.5521C264.904 78.8631 261.953 70.0093 261.215 64.1068C260.477 56.7286 261.953 50.8262 260.477 50.8262C257.526 50.8262 248.672 54.5152 245.721 56.7286C244.246 57.4664 244.245 58.2043 244.245 58.2043C243.508 59.68 243.508 65.5825 243.508 69.2716C244.983 76.6497 249.41 85.5034 255.313 89.9303C271.545 100.998 300.319 81.0765 303.271 78.8631C307.698 74.4362 310.649 69.2713 312.125 64.8444C313.6 59.6797 315.814 50.8262 315.814 50.8262H331.308C331.308 50.8262 325.405 73.6984 323.929 78.8631C322.454 83.2899 321.716 91.4057 325.405 90.6679C340.899 90.6679 346.802 84.7655 347.54 84.7655C348.277 84.0277 348.277 83.2899 347.54 82.5521C346.802 84.0278 343.851 80.3387 345.326 75.174Z" fill="url(#paint9_linear_2342_692)"/>
<path d="M235.378 72.2223C235.378 70.7466 235.378 70.0088 235.378 68.5332C235.378 67.7954 235.378 66.32 235.378 65.5822V64.8441C235.378 63.3685 235.378 61.8929 235.378 61.155C235.378 55.9903 235.378 50.0877 235.378 44.923C239.805 44.923 244.232 44.923 248.659 44.923C248.659 39.7583 248.659 34.5938 248.659 29.4291C244.232 29.4291 239.805 29.4291 235.378 29.4291C235.378 23.5266 235.378 18.3619 235.378 12.4594C229.476 12.4594 223.574 12.4594 217.671 12.4594V29.4291H210.293C210.293 34.5938 210.293 39.7583 210.293 44.923H217.671C217.671 49.3499 217.671 58.9417 217.671 58.9417V61.155C217.671 61.155 217.671 67.0578 217.671 69.2713C217.671 76.6494 220.622 84.765 226.525 89.1919C232.427 92.881 239.068 93.6191 245.708 93.6191C239.805 87.7166 236.854 79.6004 235.378 72.2223Z" fill="url(#paint10_linear_2342_692)"/>
<path d="M1.53125 114.279L1.53125 150.432H9.64749V136.413H26.6171V129.035H9.64749V121.657H28.8305V114.279H1.53125Z" fill="url(#paint11_linear_2342_692)"/>
<path d="M49.4336 132.723C49.4336 122.393 57.5498 113.54 68.6171 113.54C79.6843 113.54 87.8001 121.656 87.8001 131.985C87.8001 142.315 79.6843 150.431 68.6171 150.431C57.5498 151.168 49.4336 143.052 49.4336 132.723ZM79.6843 132.723C79.6843 126.082 75.2574 120.918 68.6171 120.918C61.9767 120.918 57.5498 126.083 57.5498 131.985C57.5498 137.888 61.9767 143.052 68.6171 143.052C75.2574 143.79 79.6843 138.625 79.6843 132.723Z" fill="url(#paint12_linear_2342_692)"/>
<path d="M109.191 132.723C109.191 122.393 117.307 113.54 128.374 113.54C139.442 113.54 147.558 121.656 147.558 131.985C147.558 142.315 139.442 150.431 128.374 150.431C117.307 151.168 109.191 143.052 109.191 132.723ZM139.442 132.723C139.442 126.082 135.015 120.918 128.374 120.918C121.734 120.918 117.307 126.083 117.307 131.985C117.307 137.888 121.734 143.052 128.374 143.052C135.015 143.79 139.442 138.625 139.442 132.723Z" fill="url(#paint13_linear_2342_692)"/>
<path d="M170.488 114.279H184.507C195.574 114.279 203.69 122.395 203.69 131.986C203.69 142.316 195.574 150.432 184.507 150.432H170.488V114.279ZM184.507 143.054C191.147 143.054 195.574 138.627 195.574 131.986C195.574 125.346 191.147 120.919 184.507 120.919H178.604V143.054H184.507Z" fill="url(#paint14_linear_2342_692)"/>
<path d="M223.633 145.266L228.06 139.363C231.011 142.315 234.7 143.79 239.127 143.79C242.078 143.79 244.292 142.314 244.292 140.101C244.292 137.888 242.816 137.15 236.913 135.674C229.535 133.461 225.109 131.985 225.109 124.607C225.109 117.967 230.273 113.54 237.651 113.54C242.816 113.54 247.243 115.015 250.932 117.967L246.505 123.869C243.554 121.655 239.865 120.18 236.913 120.18C233.962 120.18 232.487 121.656 232.487 123.131C232.487 125.345 233.962 126.082 240.602 127.558C247.981 129.771 252.407 131.985 252.407 138.625C252.407 146.003 247.243 149.692 239.127 149.692C233.224 151.168 228.06 148.955 223.633 145.266Z" fill="url(#paint15_linear_2342_692)"/>
<path d="M274.438 114.279V150.432H302.475V143.791H282.554V135.675H299.523V129.035H282.554V121.657H301.737V114.279H274.438Z" fill="url(#paint16_linear_2342_692)"/>
<path d="M324.663 114.279H340.895C345.322 114.279 349.011 115.754 351.224 117.968C353.438 120.181 354.176 123.132 354.176 126.083C354.176 131.986 351.224 135.675 346.06 137.151L354.913 150.432H345.322L337.206 138.626H331.303V150.432H323.188V114.279H324.663ZM340.895 131.986C344.584 131.986 346.798 129.773 346.798 126.822C346.798 123.132 344.584 121.657 340.157 121.657H332.041V131.986H340.895Z" fill="url(#paint17_linear_2342_692)"/>
<path d="M401.416 114.279L391.825 140.102L382.971 114.279H374.117L388.873 151.169H395.514L410.27 114.279H401.416Z" fill="url(#paint18_linear_2342_692)"/>
<path d="M439.721 114.279H431.605V150.432H439.721V114.279Z" fill="url(#paint19_linear_2342_692)"/>
<path d="M462.66 132.723C462.66 122.393 470.776 113.54 481.844 113.54C488.484 113.54 492.911 115.753 495.862 119.442L490.697 125.345C487.746 123.131 484.795 120.918 481.106 120.918C475.203 120.918 470.776 126.083 470.776 131.985C470.776 137.888 475.203 143.052 481.106 143.052C485.532 143.052 487.746 141.576 490.697 138.625L495.862 143.79C492.173 147.479 487.746 150.431 481.106 150.431C470.776 151.168 462.66 143.052 462.66 132.723Z" fill="url(#paint20_linear_2342_692)"/>
<path d="M517.945 114.279V150.432H545.983V143.791H526.062V135.675H543.031V129.035H526.062V121.657H545.245V114.279H517.945Z" fill="url(#paint21_linear_2342_692)"/>
<defs>
<linearGradient id="paint0_linear_2342_692" x1="179.481" y1="-7.55823" x2="159.604" y2="176.868" gradientUnits="userSpaceOnUse">
<stop stop-color="#084F7D"/>
<stop offset="0.59862" stop-color="#003261"/>
</linearGradient>
<linearGradient id="paint1_linear_2342_692" x1="124.31" y1="20.1033" x2="116.146" y2="153.512" gradientUnits="userSpaceOnUse">
<stop stop-color="#084F7D"/>
<stop offset="0.59862" stop-color="#003261"/>
</linearGradient>
<linearGradient id="paint2_linear_2342_692" x1="23.2387" y1="-1.19582" x2="13.2409" y2="171.41" gradientUnits="userSpaceOnUse">
<stop stop-color="#084F7D"/>
<stop offset="0.59862" stop-color="#003261"/>
</linearGradient>
<linearGradient id="paint3_linear_2342_692" x1="83.0752" y1="23.5667" x2="72.3359" y2="149.148" gradientUnits="userSpaceOnUse">
<stop stop-color="#084F7D"/>
<stop offset="0.59862" stop-color="#003261"/>
</linearGradient>
<linearGradient id="paint4_linear_2342_692" x1="370.845" y1="24.9824" x2="363.584" y2="152.575" gradientUnits="userSpaceOnUse">
<stop stop-color="#084F7D"/>
<stop offset="0.59862" stop-color="#003261"/>
</linearGradient>
<linearGradient id="paint5_linear_2342_692" x1="450.955" y1="24.5359" x2="444.666" y2="155.62" gradientUnits="userSpaceOnUse">
<stop stop-color="#084F7D"/>
<stop offset="0.59862" stop-color="#003261"/>
</linearGradient>
<linearGradient id="paint6_linear_2342_692" x1="410.302" y1="25.591" x2="399.138" y2="153.788" gradientUnits="userSpaceOnUse">
<stop stop-color="#084F7D"/>
<stop offset="0.59862" stop-color="#003261"/>
</linearGradient>
<linearGradient id="paint7_linear_2342_692" x1="427.384" y1="2.57484" x2="425.709" y2="41.747" gradientUnits="userSpaceOnUse">
<stop stop-color="#084F7D"/>
<stop offset="0.59862" stop-color="#003261"/>
</linearGradient>
<linearGradient id="paint8_linear_2342_692" x1="512.646" y1="25.0945" x2="507.236" y2="150.101" gradientUnits="userSpaceOnUse">
<stop stop-color="#084F7D"/>
<stop offset="0.59862" stop-color="#003261"/>
</linearGradient>
<linearGradient id="paint9_linear_2342_692" x1="285.337" y1="-3.09721" x2="279.214" y2="178.341" gradientUnits="userSpaceOnUse">
<stop stop-color="#084F7D"/>
<stop offset="0.59862" stop-color="#003261"/>
</linearGradient>
<linearGradient id="paint10_linear_2342_692" x1="223.013" y1="5.74842" x2="206.415" y2="169.724" gradientUnits="userSpaceOnUse">
<stop stop-color="#084F7D"/>
<stop offset="0.59862" stop-color="#003261"/>
</linearGradient>
<linearGradient id="paint11_linear_2342_692" x1="10.5821" y1="111.289" x2="5.92479" y2="184.786" gradientUnits="userSpaceOnUse">
<stop stop-color="#084F7D"/>
<stop offset="0.59862" stop-color="#003261"/>
</linearGradient>
<linearGradient id="paint12_linear_2342_692" x1="62.1537" y1="110.485" x2="58.688" y2="185.719" gradientUnits="userSpaceOnUse">
<stop stop-color="#084F7D"/>
<stop offset="0.59862" stop-color="#003261"/>
</linearGradient>
<linearGradient id="paint13_linear_2342_692" x1="121.912" y1="110.485" x2="118.446" y2="185.719" gradientUnits="userSpaceOnUse">
<stop stop-color="#084F7D"/>
<stop offset="0.59862" stop-color="#003261"/>
</linearGradient>
<linearGradient id="paint14_linear_2342_692" x1="181.496" y1="111.289" x2="177.662" y2="184.882" gradientUnits="userSpaceOnUse">
<stop stop-color="#084F7D"/>
<stop offset="0.59862" stop-color="#003261"/>
</linearGradient>
<linearGradient id="paint15_linear_2342_692" x1="233.173" y1="110.512" x2="228.639" y2="184.971" gradientUnits="userSpaceOnUse">
<stop stop-color="#084F7D"/>
<stop offset="0.59862" stop-color="#003261"/>
</linearGradient>
<linearGradient id="paint16_linear_2342_692" x1="283.733" y1="111.289" x2="279.197" y2="184.801" gradientUnits="userSpaceOnUse">
<stop stop-color="#084F7D"/>
<stop offset="0.59862" stop-color="#003261"/>
</linearGradient>
<linearGradient id="paint17_linear_2342_692" x1="333.706" y1="111.289" x2="329.694" y2="184.863" gradientUnits="userSpaceOnUse">
<stop stop-color="#084F7D"/>
<stop offset="0.59862" stop-color="#003261"/>
</linearGradient>
<linearGradient id="paint18_linear_2342_692" x1="386.104" y1="111.228" x2="382.436" y2="186.347" gradientUnits="userSpaceOnUse">
<stop stop-color="#084F7D"/>
<stop offset="0.59862" stop-color="#003261"/>
</linearGradient>
<linearGradient id="paint19_linear_2342_692" x1="434.296" y1="111.289" x2="419.251" y2="181.874" gradientUnits="userSpaceOnUse">
<stop stop-color="#084F7D"/>
<stop offset="0.59862" stop-color="#003261"/>
</linearGradient>
<linearGradient id="paint20_linear_2342_692" x1="473.668" y1="110.485" x2="469.666" y2="185.665" gradientUnits="userSpaceOnUse">
<stop stop-color="#084F7D"/>
<stop offset="0.59862" stop-color="#003261"/>
</linearGradient>
<linearGradient id="paint21_linear_2342_692" x1="527.241" y1="111.289" x2="522.705" y2="184.801" gradientUnits="userSpaceOnUse">
<stop stop-color="#084F7D"/>
<stop offset="0.59862" stop-color="#003261"/>
</linearGradient>
</defs>
</svg>
