<svg width="69" height="69" viewBox="0 0 69 69" fill="none" xmlns="http://www.w3.org/2000/svg">
<path d="M69 34.5C69 53.5479 53.5479 69 34.5 69C15.4521 69 0 53.5618 0 34.5C0 15.4382 15.4521 0 34.5 0C53.5618 0 69 15.4521 69 34.5Z" fill="#F3C000"/>
<path fill-rule="evenodd" clip-rule="evenodd" d="M46.4272 42.039V18.8123C46.4272 18.8123 42.4983 20.159 42.4844 25.3652V41.5809H40.3325V42.039H46.4272ZM43.9977 24.9904C43.7617 24.9904 43.5812 24.8099 43.5812 24.5739C43.5812 24.3378 43.7755 24.1574 43.9977 24.1574C44.2198 24.1574 44.4142 24.3378 44.4142 24.5739C44.4142 24.796 44.2337 24.9904 43.9977 24.9904ZM43.9977 26.9618C43.7617 26.9618 43.5812 26.7813 43.5812 26.5453C43.5812 26.3232 43.7755 26.1288 43.9977 26.1288C44.2198 26.1288 44.4142 26.3093 44.4142 26.5453C44.4142 26.7813 44.2337 26.9618 43.9977 26.9618ZM43.9977 28.9332C43.7617 28.9332 43.5812 28.7527 43.5812 28.5167C43.5812 28.2807 43.7755 28.1002 43.9977 28.1002C44.2198 28.1002 44.4142 28.2807 44.4142 28.5167C44.4142 28.7388 44.2337 28.9332 43.9977 28.9332ZM43.9977 30.9046C43.7617 30.9046 43.5812 30.7242 43.5812 30.4881C43.5812 30.2521 43.7755 30.0716 43.9977 30.0716C44.2198 30.0716 44.4142 30.2521 44.4142 30.4881C44.4142 30.7103 44.2337 30.9046 43.9977 30.9046ZM43.9977 32.8761C43.7617 32.8761 43.5812 32.6956 43.5812 32.4596C43.5812 32.2236 43.7755 32.0431 43.9977 32.0431C44.2198 32.0431 44.4142 32.2236 44.4142 32.4596C44.4142 32.6956 44.2337 32.8761 43.9977 32.8761ZM44.0116 35.9859C44.2337 35.9859 44.4281 36.1664 44.4281 36.4024C44.4281 36.6384 44.2337 36.8189 44.0116 36.8189C43.7755 36.8189 43.5951 36.6384 43.5951 36.4024C43.5951 36.1664 43.7755 35.9859 44.0116 35.9859ZM44.0116 34.0145C44.2337 34.0145 44.4281 34.195 44.4281 34.431C44.4281 34.667 44.2337 34.8475 44.0116 34.8475C43.7755 34.8475 43.5951 34.667 43.5951 34.431C43.5951 34.2089 43.7755 34.0145 44.0116 34.0145ZM54.4518 19.5342L53.9936 20.27L54.4518 21.0891L53.9936 21.825L54.4518 22.5469L53.9936 23.2688L54.4518 23.9908L53.9936 24.7127L54.4518 25.4346L53.9936 26.1565L54.4518 26.8785L53.9936 27.6004L54.4518 28.3223L53.9936 29.0443L54.4518 29.7662L53.9936 30.4881L54.4518 31.2101L53.9936 31.932L54.4518 32.6539L53.9936 33.3759L54.4518 34.0978L53.9936 34.8197L54.4518 35.5417L53.9936 36.2636L54.4518 36.9855L53.9936 37.7075L54.4518 38.4294L53.9936 39.1513L54.4518 39.8733L53.9936 40.5952L54.4518 41.3171L53.9936 42.039H48.3709V41.5809H50.5228V20.992L53.6882 18.7984L54.4518 19.5342ZM31.5305 35.8193C31.5305 34.6809 31.2945 33.7368 30.7947 32.9871C30.3087 32.2374 29.684 31.6266 28.9482 31.1545C28.1985 30.6964 27.3655 30.3632 26.4631 30.1411C25.5606 29.9328 24.6999 29.794 23.853 29.7246V29.5996C24.3667 29.5302 25.0053 29.4052 25.7411 29.1831C26.4769 28.9749 27.185 28.6555 27.8792 28.2529C28.5594 27.8364 29.1425 27.3227 29.6285 26.6841C30.1144 26.0594 30.3504 25.268 30.3504 24.3517C30.3504 23.3105 30.1144 22.4497 29.6146 21.7694C29.1148 21.0891 28.49 20.5338 27.7264 20.1312C26.9629 19.7147 26.116 19.4231 25.1997 19.2566C24.2834 19.0761 23.3949 18.9928 22.5619 18.9928C21.6594 18.9928 20.757 19.0205 19.8824 19.0483C18.9938 19.09 18.1053 19.1038 17.2029 19.1038H12.3438V19.5481H15.3148V41.5948H12.3438V42.0529H17.2029C18.1053 42.0529 19.0077 42.0668 19.8963 42.0807C20.7848 42.0946 21.6872 42.1085 22.5896 42.1085C23.3949 42.1085 24.325 42.0113 25.3524 41.8308C26.3798 41.6503 27.3516 41.3171 28.2679 40.8451C29.1842 40.373 29.9478 39.7344 30.5864 38.9153C31.2112 38.0962 31.5305 37.0688 31.5305 35.8193ZM21.2985 29.5024H19.9796V19.5481L19.9796 19.5481C20.2156 19.5203 20.4516 19.4926 20.6876 19.4787C20.9236 19.4648 21.1596 19.4509 21.3957 19.4509C22.2148 19.4509 22.8951 19.5481 23.4087 19.7702C23.9224 19.9924 24.3389 20.3117 24.6444 20.7559C24.9359 21.2002 25.158 21.7555 25.283 22.4358C25.4079 23.1161 25.4773 23.9213 25.4773 24.8654C25.4773 25.4485 25.4496 26.0177 25.3663 26.573C25.2969 27.1284 25.1164 27.6282 24.8387 28.0724C24.5611 28.5028 24.1446 28.8638 23.5892 29.1137C23.02 29.3775 22.2703 29.5024 21.2985 29.5024ZM26.1993 33.9867C26.2687 34.6115 26.2965 35.0974 26.2965 35.4584C26.2965 36.7773 26.1854 37.8324 25.991 38.6238C25.7828 39.429 25.4912 40.0676 25.1025 40.5119C24.7138 40.9562 24.2556 41.2616 23.7003 41.4282C23.1588 41.5809 22.5341 41.6642 21.8538 41.6642C21.2013 41.6642 20.5765 41.6364 19.9934 41.567V29.9328H21.8538C22.9367 29.9328 23.7697 30.1549 24.3528 30.5992C24.9359 31.0435 25.3802 31.571 25.6717 32.168C25.9633 32.765 26.1299 33.3759 26.1993 33.9867ZM34.8347 19.673C35.2928 19.2149 35.8204 18.9928 36.4452 18.9928C37.0699 18.9928 37.5975 19.2288 38.0556 19.673C38.5138 20.1312 38.7359 20.6588 38.7359 21.2835C38.7359 21.9083 38.5138 22.4497 38.0556 22.894C37.6114 23.3521 37.0699 23.5743 36.4452 23.5743C35.8204 23.5743 35.279 23.3382 34.8347 22.894C34.3765 22.4497 34.1544 21.9083 34.1544 21.2835C34.1544 20.6588 34.3765 20.1173 34.8347 19.673ZM34.4876 34.0561C36.8339 32.7095 36.4452 28.2113 36.4452 28.2113C36.4452 28.2113 38.4027 29.6551 38.4166 35.5139V42.039H32.3218V41.5809H34.4876V34.0561ZM48.3012 50.05H49.0648L51.3972 43.8581H51.6055L53.9656 50.05H54.7292V50.175H52.0636V50.05H53.0216L52.1191 47.6482H50.1061L49.1898 50.05H50.1477V50.175H48.2873V50.05H48.3012ZM51.1057 45.0104L50.1477 47.5233H52.0497L51.1057 45.0104ZM33.07 50.0502H34.014V44.1359H33.0561V44.011H34.6665H34.9026C34.9442 44.011 34.9859 44.0075 35.0275 44.0041C35.0692 44.0006 35.1108 43.9971 35.1525 43.9971H35.3885H35.6384C35.805 43.9971 35.9577 43.9971 36.0965 44.011C36.2353 44.011 36.3603 44.0249 36.4852 44.0388L36.4853 44.0388L36.5156 44.0425C36.6187 44.0553 36.73 44.069 36.8185 44.0943C36.9295 44.1221 37.0406 44.1498 37.1655 44.1915C37.5126 44.3025 37.8181 44.4553 38.0818 44.6496C38.3317 44.844 38.5539 45.0661 38.7205 45.316C38.8871 45.5659 38.9981 45.8436 39.0814 46.149C39.1647 46.4545 39.1925 46.7599 39.1925 47.0931C39.1925 47.4818 39.1509 47.815 39.0537 48.1205C38.9565 48.4259 38.8315 48.6897 38.6788 48.9257C38.5122 49.1617 38.3317 49.3561 38.1096 49.5365C37.8875 49.7031 37.6653 49.842 37.4154 49.953C37.2766 50.0224 37.1517 50.0641 37.0268 50.1057L37.0267 50.1058L36.6519 50.1891C36.5269 50.2029 36.3742 50.2168 36.2215 50.2168C36.0688 50.2307 35.8883 50.2307 35.68 50.2307H35.4024C35.3538 50.2307 35.3052 50.2272 35.2566 50.2238C35.208 50.2203 35.1594 50.2168 35.1108 50.2168C35.0622 50.2168 35.0136 50.2134 34.965 50.2099C34.9164 50.2064 34.8679 50.2029 34.8193 50.2029H34.5416H33.07V50.0502ZM34.8887 50.0502C34.9418 50.0578 34.999 50.0613 35.0627 50.0651H35.0627C35.1156 50.0683 35.1728 50.0717 35.2358 50.078C35.2951 50.078 35.3606 50.0811 35.4295 50.0844H35.4295H35.4296H35.4296H35.4297H35.4297H35.4298C35.5059 50.0881 35.586 50.0919 35.6661 50.0919C35.8605 50.0919 36.0548 50.078 36.2491 50.0641L36.2492 50.0641C36.4436 50.0502 36.6241 49.9947 36.8046 49.9392C36.9851 49.8697 37.1517 49.7726 37.2905 49.6615C37.4432 49.5365 37.582 49.3699 37.707 49.1756C37.8875 48.8563 38.0263 48.5508 38.0957 48.2176C38.1651 47.8983 38.2068 47.5374 38.2068 47.1486C38.2068 46.6905 38.1651 46.274 38.0818 45.913C37.9985 45.5382 37.8597 45.2327 37.6515 44.9551C37.4571 44.6913 37.1933 44.4969 36.8601 44.3442C36.5269 44.2054 36.1243 44.1221 35.6384 44.1221H35.6383C35.4995 44.1221 35.3607 44.1221 35.2496 44.1359C35.1386 44.1498 35.0136 44.1498 34.9026 44.1498V50.0502H34.8887ZM15.2707 50.05H14.2989V50.1749H16.3536V50.05H15.3957V44.2467H15.4096L17.4643 50.1749L19.5329 44.1773H19.5607V50.05H18.5888V50.1749H21.3794V50.05H20.4214V44.1357H21.3794V44.0107H19.4635L17.8669 48.6616H17.853L16.2565 44.0107H14.2989V44.1357H15.2707V50.05ZM25.378 50.05H24.4201V50.1472H29.6957V48.259H29.5985C29.5928 48.285 29.587 48.3127 29.5809 48.3422L29.5809 48.3423C29.5574 48.455 29.5286 48.5938 29.4736 48.7588C29.4181 48.9532 29.3209 49.1614 29.1821 49.3419C29.0571 49.5363 28.8766 49.689 28.6684 49.8278C28.4601 49.9667 28.1963 50.0361 27.877 50.0361H26.2388V46.9123H26.933C27.1412 46.9123 27.3217 46.954 27.4466 47.0234C27.5716 47.0928 27.6688 47.19 27.7521 47.315C27.8354 47.4399 27.8909 47.5787 27.9326 47.7315C27.9742 47.8842 28.0159 48.0508 28.0575 48.2174H28.1547V45.524H28.0575C27.9881 45.7878 27.9326 45.996 27.8631 46.1626C27.8076 46.3292 27.7243 46.4542 27.6271 46.5514C27.5299 46.6486 27.4189 46.718 27.28 46.7457C27.1412 46.7874 26.9885 46.8013 26.7941 46.8013H26.2388V44.1357H27.6688C27.9048 44.1357 28.113 44.1634 28.2796 44.219C28.4462 44.2745 28.5851 44.3717 28.71 44.4828C28.8211 44.5938 28.9322 44.7465 29.0155 44.9131C29.1126 45.0936 29.1959 45.288 29.2654 45.5101H29.3625V44.0107H24.4201V44.1357H25.378V50.05ZM43.6485 50.05H42.6767V50.1749H45.4672V50.05H44.5093V44.1357H45.4672V44.0107H42.6767V44.1357H43.6485V50.05Z" fill="black"/>
</svg>
