<svg width="23" height="18" viewBox="0 0 23 18" fill="none" xmlns="http://www.w3.org/2000/svg">
<path fill-rule="evenodd" clip-rule="evenodd" d="M18.2221 12.9334V0.815104C18.2221 0.815104 16.1722 1.51772 16.1649 4.23402V12.6944H15.0422V12.9334H18.2221ZM16.9545 4.03844C16.8313 4.03844 16.7372 3.94428 16.7372 3.82114C16.7372 3.698 16.8386 3.60384 16.9545 3.60384C17.0704 3.60384 17.1718 3.698 17.1718 3.82114C17.1718 3.93704 17.0776 4.03844 16.9545 4.03844ZM16.9545 5.06702C16.8313 5.06702 16.7372 4.97285 16.7372 4.84971C16.7372 4.73382 16.8386 4.63241 16.9545 4.63241C17.0704 4.63241 17.1718 4.72657 17.1718 4.84971C17.1718 4.97285 17.0776 5.06702 16.9545 5.06702ZM16.9545 6.09559C16.8313 6.09559 16.7372 6.00142 16.7372 5.87828C16.7372 5.75515 16.8386 5.66098 16.9545 5.66098C17.0704 5.66098 17.1718 5.75515 17.1718 5.87828C17.1718 5.99418 17.0776 6.09559 16.9545 6.09559ZM16.9545 7.12416C16.8313 7.12416 16.7372 7.02999 16.7372 6.90686C16.7372 6.78372 16.8386 6.68955 16.9545 6.68955C17.0704 6.68955 17.1718 6.78372 17.1718 6.90686C17.1718 7.02275 17.0776 7.12416 16.9545 7.12416ZM16.9545 8.15273C16.8313 8.15273 16.7372 8.05857 16.7372 7.93543C16.7372 7.81229 16.8386 7.71812 16.9545 7.71812C17.0704 7.71812 17.1718 7.81229 17.1718 7.93543C17.1718 8.05857 17.0776 8.15273 16.9545 8.15273ZM16.9617 9.77527C17.0776 9.77527 17.179 9.86943 17.179 9.99257C17.179 10.1157 17.0776 10.2099 16.9617 10.2099C16.8386 10.2099 16.7444 10.1157 16.7444 9.99257C16.7444 9.86943 16.8386 9.77527 16.9617 9.77527ZM16.9617 8.74669C17.0776 8.74669 17.179 8.84086 17.179 8.964C17.179 9.08714 17.0776 9.1813 16.9617 9.1813C16.8386 9.1813 16.7444 9.08714 16.7444 8.964C16.7444 8.8481 16.8386 8.74669 16.9617 8.74669ZM22.4088 1.19176L22.1698 1.57567L22.4088 2.00303L22.1698 2.38694L22.4088 2.7636L22.1698 3.14026L22.4088 3.51692L22.1698 3.89358L22.4088 4.27024L22.1698 4.6469L22.4088 5.02356L22.1698 5.40022L22.4088 5.77688L22.1698 6.15354L22.4088 6.5302L22.1698 6.90686L22.4088 7.28352L22.1698 7.66017L22.4088 8.03684L22.1698 8.41349L22.4088 8.79016L22.1698 9.16682L22.4088 9.54348L22.1698 9.92014L22.4088 10.2968L22.1698 10.6735L22.4088 11.0501L22.1698 11.4268L22.4088 11.8034L22.1698 12.1801L22.4088 12.5568L22.1698 12.9334H19.2362V12.6944H20.3589V1.95233L22.0104 0.807861L22.4088 1.19176ZM10.4499 9.68834C10.4499 9.09438 10.3267 8.60183 10.066 8.21068C9.81243 7.81953 9.48647 7.50082 9.10257 7.25454C8.71142 7.01551 8.27682 6.84166 7.80599 6.72577C7.33517 6.61712 6.88607 6.54468 6.44422 6.50846V6.44327C6.71223 6.40706 7.04543 6.34187 7.42933 6.22597C7.81323 6.11732 8.18265 5.95072 8.54482 5.74066C8.89975 5.52335 9.20398 5.25535 9.4575 4.92215C9.71102 4.59619 9.83416 4.18331 9.83416 3.70525C9.83416 3.16199 9.71102 2.71289 9.45026 2.35796C9.18949 2.00303 8.86354 1.71329 8.46515 1.50323C8.06675 1.28593 7.6249 1.13382 7.14684 1.0469C6.66877 0.952731 6.20519 0.909269 5.77058 0.909269C5.29975 0.909269 4.82893 0.923757 4.37259 0.938244C3.90901 0.959974 3.44543 0.967217 2.9746 0.967217H0.439392V1.19901H1.98949V12.7016H0.439392V12.9407H2.9746C3.44543 12.9407 3.91625 12.9479 4.37983 12.9551C4.84342 12.9624 5.31424 12.9696 5.78507 12.9696C6.20519 12.9696 6.6905 12.9189 7.22651 12.8248C7.76253 12.7306 8.26957 12.5568 8.74764 12.3105C9.22571 12.0642 9.6241 11.731 9.9573 11.3036C10.2833 10.8763 10.4499 10.3403 10.4499 9.68834ZM5.11142 6.39257H4.4233V1.19901L4.4233 1.19901C4.54644 1.18452 4.66957 1.17003 4.79271 1.16279C4.91585 1.15555 5.03899 1.1483 5.16213 1.1483C5.58949 1.1483 5.94442 1.19901 6.21243 1.3149C6.48044 1.4308 6.69774 1.5974 6.8571 1.82919C7.00921 2.06098 7.12511 2.35072 7.1903 2.70565C7.25549 3.06058 7.29171 3.4807 7.29171 3.97325C7.29171 4.27748 7.27722 4.57446 7.23376 4.8642C7.19754 5.15394 7.10338 5.4147 6.95851 5.64649C6.81364 5.87104 6.59633 6.05937 6.30659 6.18975C6.00961 6.32738 5.61847 6.39257 5.11142 6.39257ZM7.66836 8.73221C7.70458 9.05816 7.71907 9.31168 7.71907 9.50001C7.71907 10.1881 7.66112 10.7386 7.55971 11.1515C7.45106 11.5716 7.29895 11.9048 7.09613 12.1366C6.89331 12.3684 6.65428 12.5278 6.36454 12.6147C6.08205 12.6944 5.75609 12.7378 5.40116 12.7378C5.06072 12.7378 4.73476 12.7234 4.43054 12.6871V6.61712H5.40116C5.96615 6.61712 6.40076 6.73301 6.70499 6.9648C7.00921 7.19659 7.241 7.47185 7.39311 7.78331C7.54523 8.09478 7.63215 8.4135 7.66836 8.73221ZM12.1738 1.2642C12.4128 1.02517 12.6881 0.909269 13.014 0.909269C13.34 0.909269 13.6152 1.03241 13.8543 1.2642C14.0933 1.50323 14.2092 1.77848 14.2092 2.10444C14.2092 2.4304 14.0933 2.71289 13.8543 2.94468C13.6225 3.18372 13.34 3.29961 13.014 3.29961C12.6881 3.29961 12.4056 3.17647 12.1738 2.94468C11.9348 2.71289 11.8189 2.4304 11.8189 2.10444C11.8189 1.77848 11.9348 1.49599 12.1738 1.2642ZM11.9927 8.76843C13.2169 8.06581 13.014 5.71893 13.014 5.71893C13.014 5.71893 14.0354 6.47225 14.0426 9.52899V12.9334H10.8627V12.6944H11.9927V8.76843ZM19.1998 17.1131H19.5982L20.8151 13.8825H20.9238L22.1551 17.1131H22.5535V17.1782H21.1628V17.1131H21.6626L21.1918 15.8599H20.1415L19.6634 17.1131H20.1632V17.1782H19.1926V17.1131H19.1998ZM20.663 14.4837L20.1632 15.7948H21.1556L20.663 14.4837ZM11.2538 17.1132H11.7463V14.0275H11.2465V13.9623H12.0868H12.2099C12.2316 13.9623 12.2534 13.9605 12.2751 13.9587C12.2968 13.9568 12.3185 13.955 12.3403 13.955H12.4634H12.5938C12.6807 13.955 12.7604 13.955 12.8328 13.9623C12.9053 13.9623 12.9704 13.9695 13.0356 13.9768L13.0356 13.9768L13.0515 13.9787C13.1052 13.9854 13.1634 13.9926 13.2095 14.0057C13.2674 14.0202 13.3254 14.0347 13.3906 14.0564C13.5717 14.1144 13.731 14.1941 13.8686 14.2955C13.999 14.3969 14.1149 14.5128 14.2018 14.6432C14.2888 14.7735 14.3467 14.9184 14.3902 15.0778C14.4336 15.2371 14.4481 15.3965 14.4481 15.5703C14.4481 15.7731 14.4264 15.947 14.3757 16.1063C14.325 16.2657 14.2598 16.4033 14.1801 16.5265C14.0932 16.6496 13.999 16.751 13.8831 16.8452C13.7672 16.9321 13.6513 17.0045 13.521 17.0625C13.4485 17.0987 13.3834 17.1204 13.3182 17.1421L13.3181 17.1422L13.1226 17.1856C13.0574 17.1929 12.9777 17.2001 12.898 17.2001C12.8183 17.2073 12.7242 17.2073 12.6155 17.2073H12.4707C12.4453 17.2073 12.42 17.2055 12.3947 17.2037L12.3946 17.2037L12.3945 17.2037C12.3692 17.2019 12.3439 17.2001 12.3185 17.2001C12.2932 17.2001 12.2678 17.1983 12.2425 17.1965C12.2171 17.1947 12.1918 17.1929 12.1664 17.1929H12.0216H11.2538V17.1132ZM12.2026 17.1132C12.2304 17.1171 12.2602 17.1189 12.2935 17.1209C12.321 17.1226 12.3509 17.1244 12.3837 17.1277C12.4147 17.1277 12.4489 17.1293 12.4849 17.131L12.4849 17.131C12.5247 17.1329 12.5665 17.1349 12.6083 17.1349C12.7097 17.1349 12.8111 17.1277 12.9125 17.1204C13.0139 17.1132 13.1081 17.0842 13.2022 17.0552L13.2022 17.0552C13.2964 17.019 13.3833 16.9683 13.4558 16.9104C13.5354 16.8452 13.6079 16.7583 13.6731 16.6568C13.7672 16.4902 13.8397 16.3309 13.8759 16.157C13.9121 15.9904 13.9338 15.8021 13.9338 15.5993C13.9338 15.3603 13.9121 15.143 13.8686 14.9546C13.8252 14.7591 13.7527 14.5997 13.6441 14.4548C13.5427 14.3172 13.4051 14.2158 13.2312 14.1361C13.0574 14.0637 12.8473 14.0202 12.5938 14.0202H12.5937C12.5213 14.0202 12.4489 14.0202 12.391 14.0275C12.333 14.0347 12.2678 14.0347 12.2099 14.0347V17.1132H12.2026ZM1.96759 17.113H1.46054V17.1782H2.53258V17.113H2.03278V14.0853H2.04002L3.11205 17.1782L4.19133 14.0491H4.20582V17.113H3.69877V17.1782H5.15471V17.113H4.65491V14.0273H5.15471V13.9621H4.15511L3.32211 16.3887H3.31487L2.48187 13.9621H1.46054V14.0273H1.96759V17.113ZM7.24089 17.113H6.74109V17.1637H9.4936V16.1786H9.4429C9.43989 16.1922 9.43688 16.2067 9.43367 16.2221L9.43367 16.2221C9.42145 16.2809 9.4064 16.3533 9.37771 16.4394C9.34873 16.5408 9.29803 16.6495 9.22559 16.7436C9.1604 16.845 9.06624 16.9247 8.95759 16.9971C8.84893 17.0696 8.71131 17.1058 8.54471 17.1058H7.68998V15.476H8.05215C8.16081 15.476 8.25497 15.4978 8.32016 15.534C8.38535 15.5702 8.43606 15.6209 8.47952 15.6861C8.52298 15.7513 8.55195 15.8237 8.57368 15.9034C8.59541 15.9831 8.61714 16.07 8.63887 16.1569H8.68958V14.7517H8.63887C8.60266 14.8893 8.57368 14.998 8.53747 15.0849C8.50849 15.1718 8.46503 15.237 8.41433 15.2877C8.36362 15.3384 8.30567 15.3746 8.23324 15.3891C8.16081 15.4108 8.08113 15.4181 7.97972 15.4181H7.68998V14.0273H8.43606C8.5592 14.0273 8.66785 14.0418 8.75477 14.0708C8.84169 14.0998 8.91413 14.1505 8.97932 14.2084C9.03726 14.2664 9.09521 14.346 9.13867 14.433C9.18938 14.5271 9.23284 14.6285 9.26905 14.7444H9.31976V13.9621H6.74109V14.0273H7.24089V17.113ZM16.7732 17.113H16.2662V17.1782H17.7221V17.113H17.2223V14.0273H17.7221V13.9621H16.2662V14.0273H16.7732V17.113Z" fill="black"/>
</svg>
