<svg width="155" height="44" viewBox="0 0 155 44" fill="none" xmlns="http://www.w3.org/2000/svg">
<path d="M100.877 35.0752C100.877 35.7474 101.267 36.3762 102.308 36.3762C102.85 36.3762 103.349 36.2027 103.848 35.9426L102.026 33.6875C101.354 34.0344 100.877 34.4464 100.877 35.0752Z" fill="#DA0505"/>
<path d="M121.672 35.8125C121.672 36.3112 121.997 36.6582 122.583 36.6582C123.103 36.6582 123.558 36.3763 123.558 36.051V34.7067C122.648 34.7717 121.672 34.9235 121.672 35.8125Z" fill="#DA0505"/>
<path d="M104.021 30.5001C104.021 30.1315 103.717 29.6978 103.175 29.6978C102.655 29.6978 102.373 30.0664 102.373 30.5001C102.373 30.8253 102.547 31.1072 102.937 31.5626C103.566 31.2807 104.021 30.9554 104.021 30.5001Z" fill="#DA0505"/>
<path d="M150.943 24.6457H60.0901C57.9651 24.6457 56.2305 26.5321 56.2305 28.8739L56.3172 40.1925C56.3172 42.5343 57.9434 43.8353 60.0684 43.8353H150.921C153.046 43.8353 154.759 41.9489 154.759 39.6071V28.8739C154.781 26.5321 153.068 24.6457 150.943 24.6457ZM69.8042 37.699C69.3922 37.9808 68.6116 38.2627 67.7442 38.2627C66.1614 38.2627 63.928 37.5255 63.928 34.4898C63.928 31.4542 66.1614 30.6736 67.7442 30.6736C68.4815 30.6736 69.1537 30.8471 69.6524 31.1289C70.1077 31.3891 70.3029 31.6927 70.3029 32.0179C70.3029 32.3866 70.0644 32.8636 69.7391 33.2973C69.2838 32.8853 68.785 32.5817 68.1129 32.5817C67.0938 32.5817 66.595 33.3406 66.595 34.5115C66.595 35.7041 67.0938 36.3329 68.1129 36.3329C68.8718 36.3329 69.4572 35.8992 69.7825 35.574C70.0427 35.8992 70.3462 36.5281 70.3462 36.94C70.3245 37.1569 70.2161 37.4388 69.8042 37.699ZM77.0247 38.2844C76.2441 38.2844 75.8321 38.0242 75.702 37.5472C75.3334 37.9375 74.6612 38.2844 73.6421 38.2844C72.4712 38.2844 71.3003 37.6773 71.3003 36.0293C71.3003 33.6659 74.2058 33.5141 75.5068 33.5141V33.1888C75.5068 32.5384 75.0949 32.3866 74.401 32.3866C73.6421 32.3866 73.0133 32.6251 72.2327 32.9937C71.9074 32.5817 71.7123 32.1047 71.7123 31.8879C71.7123 31.3024 72.9916 30.6736 74.8347 30.6736C77.1114 30.6736 77.9787 31.5626 77.9787 33.4924V36.4413C77.9787 37.0485 78.0655 37.6773 78.2389 38.0892C77.7836 38.241 77.5017 38.2844 77.0247 38.2844ZM82.1419 38.2844C81.383 38.2844 79.4749 38.1543 79.4749 36.9834C79.4749 36.5497 79.7351 36.0944 80.0169 35.7041C80.4289 36.0727 81.2312 36.5497 82.0335 36.5497C82.5539 36.5497 82.9225 36.3112 82.9225 35.9426C82.9225 34.7934 79.4965 35.6174 79.4965 32.9937C79.4965 31.4108 80.8626 30.6736 82.5756 30.6736C83.9633 30.6736 85.3293 31.0856 85.3293 31.8228C85.3293 32.1264 85.0908 32.6468 84.7872 33.0587C84.2669 32.6684 83.5947 32.4083 82.8574 32.4083C82.4455 32.4083 82.0768 32.5167 82.0768 32.8636C82.0768 34.0128 85.4594 33.1238 85.4594 35.7691C85.4377 37.3087 84.2452 38.2844 82.1419 38.2844ZM93.7641 38.0459H91.1404V33.7526C91.1404 33.1455 91.0971 32.7118 90.4249 32.7118C89.8611 32.7118 89.5359 32.972 89.5359 33.2973V38.0459H86.9122V28.1583C87.2158 28.0933 87.5844 28.0716 87.8663 28.0716C88.6902 28.0716 89.5142 28.3101 89.5142 29.4593V31.5409C89.7744 31.1506 90.3815 30.6736 91.4874 30.6736C93.3304 30.6736 93.7641 31.8879 93.7641 33.6225V38.0459ZM106.796 38.2844C105.993 38.2844 105.495 37.9591 105.083 37.4821C104.085 37.9808 102.958 38.2844 101.852 38.2844C99.792 38.2844 98.3392 37.2436 98.3392 35.4439C98.3392 33.7743 99.6186 32.9503 100.963 32.3649C100.443 31.6493 100.247 31.0856 100.247 30.4351C100.247 28.8739 101.635 28.0716 103.175 28.0716C104.692 28.0716 106.167 28.8739 106.167 30.3267C106.167 31.6493 105.148 32.3215 103.999 32.8419L105.451 34.5983C105.863 34.1212 106.254 33.6008 106.535 33.1455C107.164 33.5358 107.75 33.9911 107.75 34.6633C107.75 34.8585 107.706 35.0536 107.576 35.2921C107.403 35.6174 107.143 35.9426 106.817 36.2462L108.183 37.8724C107.75 38.1326 107.338 38.2844 106.796 38.2844ZM117.811 37.699C117.399 37.9808 116.618 38.2627 115.751 38.2627C114.168 38.2627 111.935 37.5255 111.935 34.4898C111.935 31.4542 114.168 30.6736 115.751 30.6736C116.488 30.6736 117.16 30.8471 117.659 31.1289C118.114 31.3891 118.309 31.6927 118.309 32.0179C118.309 32.3866 118.071 32.8636 117.746 33.2973C117.29 32.8853 116.792 32.5817 116.119 32.5817C115.1 32.5817 114.602 33.3406 114.602 34.5115C114.602 35.7041 115.1 36.3329 116.119 36.3329C116.878 36.3329 117.464 35.8992 117.789 35.574C118.049 35.8992 118.353 36.5281 118.353 36.94C118.331 37.1569 118.223 37.4388 117.811 37.699ZM125.031 38.2844C124.251 38.2844 123.839 38.0242 123.709 37.5472C123.34 37.9375 122.668 38.2844 121.627 38.2844C120.456 38.2844 119.285 37.6773 119.285 36.0293C119.285 33.6659 122.191 33.5141 123.492 33.5141V33.1888C123.492 32.5384 123.08 32.3866 122.386 32.3866C121.627 32.3866 120.998 32.6251 120.218 32.9937C119.892 32.5817 119.697 32.1047 119.697 31.8879C119.697 31.3024 120.977 30.6736 122.82 30.6736C125.096 30.6736 125.964 31.5626 125.964 33.4924V36.4413C125.964 37.0485 126.05 37.6773 126.224 38.0892C125.79 38.241 125.508 38.2844 125.031 38.2844ZM132.599 33.384C132.208 33.0587 131.861 32.907 131.406 32.907C130.842 32.907 130.495 33.2322 130.495 33.6876V38.0459H127.872V30.9121C128.175 30.8471 128.544 30.8254 128.826 30.8254C129.628 30.8254 130.17 31.0639 130.365 31.5843C130.582 31.2157 131.211 30.6953 132.013 30.6953C132.555 30.6953 133.206 30.8687 133.206 31.4976C133.206 32.018 132.859 32.8636 132.599 33.384ZM138.952 33.384C138.562 33.0587 138.215 32.907 137.759 32.907C137.196 32.907 136.849 33.2322 136.849 33.6876V38.0459H134.225V30.9121C134.529 30.8471 134.897 30.8254 135.179 30.8254C135.981 30.8254 136.523 31.0639 136.719 31.5843C136.935 31.2157 137.564 30.6953 138.366 30.6953C138.909 30.6953 139.559 30.8687 139.559 31.4976C139.559 32.018 139.234 32.8636 138.952 33.384ZM145.413 38.241C144.655 40.4094 143.766 41.2333 141.966 41.2333C141.033 41.2333 140.296 40.9948 140.296 40.2359C140.296 39.889 140.448 39.4987 140.773 38.9349C141.077 39.1517 141.445 39.2385 141.814 39.2385C142.334 39.2385 142.725 39.0433 143.093 38.3494L140.34 31.0856C140.73 30.9555 141.25 30.8471 141.727 30.8471C142.833 30.8471 143.115 31.3458 143.354 32.3432L144.156 35.6607L144.98 32.3432C145.24 31.3024 145.587 30.8471 146.628 30.8471C147.04 30.8471 147.473 30.9338 147.885 31.0856L145.413 38.241Z" fill="#DA0505"/>
<path d="M73.6641 35.8125C73.6641 36.3112 73.9893 36.6582 74.5748 36.6582C75.0952 36.6582 75.5505 36.3763 75.5505 36.051V34.7067C74.6398 34.7717 73.6641 34.9235 73.6641 35.8125Z" fill="#DA0505"/>
<path d="M122.429 19.0947C123.426 19.0947 124.662 18.5743 124.662 18.5743L123.383 14.1076C122.927 12.4597 122.147 11.5706 121.084 11.2237V11.1587C122.45 10.6599 124.142 9.14212 124.142 7.29905C124.142 4.11162 121.713 2.78894 116.878 2.78894C114.84 2.78894 112.931 2.89736 111.717 3.13588V18.5743H115.512V12.2862H116.639C118.417 12.2862 119.263 13.0234 119.762 14.9315L120.521 17.7287C120.802 18.7695 121.583 19.0947 122.429 19.0947ZM116.986 9.9444H115.49V5.47766C115.794 5.36924 116.401 5.28251 117.181 5.28251C119.22 5.28251 120.304 6.14984 120.304 7.66767C120.304 9.12044 119.089 9.9444 116.986 9.9444ZM133.596 18.8128C138.821 18.8128 141.662 15.4086 141.662 10.5515C141.662 6.1932 139.038 2.63716 133.899 2.63716C128.63 2.63716 125.876 6.19321 125.876 10.5732C125.855 14.693 128.326 18.8128 133.596 18.8128ZM133.769 15.929C130.972 15.929 129.844 13.4354 129.844 10.4865C129.844 7.55925 130.95 5.52103 133.769 5.52103C136.566 5.52103 137.65 7.81944 137.65 10.6599C137.672 13.739 136.544 15.929 133.769 15.929ZM74.3353 11.9393H79.1924V9.01202H74.3353V5.80291H79.7995C80.8403 5.80291 81.2523 5.41261 81.2523 3.93816C81.2523 3.61291 81.2306 3.20092 81.1872 2.87568H70.6275V18.5526H81.5558C81.5992 18.3141 81.6209 17.8371 81.6209 17.4902C81.6209 16.0157 81.2089 15.6254 80.1681 15.6254H74.3353V11.9393ZM83.8759 18.5526H94.5007C94.5441 18.2491 94.5657 17.8371 94.5657 17.4902C94.5657 16.0157 94.1538 15.6254 93.113 15.6254H87.6488V4.3935C87.6488 3.02746 86.7164 2.61548 85.6756 2.61548C84.8733 2.61548 84.418 2.76726 83.8759 3.07083V18.5526ZM148.47 18.8128C152.915 18.8128 154.823 16.5795 154.823 14.0859C154.823 11.5706 153.392 10.3347 150.14 9.20717C147.841 8.4049 146.996 8.20975 146.996 7.03885C146.996 6.25826 147.668 5.49934 149.923 5.49934C151.658 5.49934 152.915 6.10648 153.674 6.49677C153.674 6.49677 154.325 5.39093 154.325 4.54529C154.325 3.98152 154.021 3.48281 153.24 3.20092C152.46 2.91904 151.181 2.61548 149.164 2.61548C145.131 2.61548 143.071 4.45855 143.071 6.99548C143.071 9.57579 144.762 10.79 147.711 11.6574C150.227 12.3946 150.877 13.0885 150.877 14.1726C150.877 15.2134 150.292 15.8639 147.863 15.8639C145.977 15.8639 144.654 15.2134 143.591 14.6497C143.591 14.6497 142.876 16.0591 142.876 16.7963C142.876 17.4902 143.266 17.8371 143.96 18.1406C144.892 18.5526 146.345 18.8128 148.47 18.8128ZM62.106 18.8128C66.551 18.8128 68.4592 16.5795 68.4592 14.0859C68.4592 11.5706 67.0281 10.3347 63.7756 9.20717C61.4772 8.4049 60.6315 8.20975 60.6315 7.03885C60.6315 6.25826 61.3037 5.49934 63.5588 5.49934C65.2934 5.49934 66.551 6.10648 67.31 6.49677C67.31 6.49677 67.9605 5.39093 67.9605 4.54529C67.9605 3.98152 67.6569 3.48281 66.8763 3.20092C66.0957 2.91904 64.8164 2.61548 62.7998 2.61548C58.7668 2.61548 56.7069 4.45855 56.7069 6.99548C56.7069 9.57579 58.3982 10.79 61.3471 11.6574C63.8623 12.3946 64.5128 13.0885 64.5128 14.1726C64.5128 15.2134 63.9274 15.8639 61.4989 15.8639C59.6124 15.8639 58.2897 15.2134 57.2273 14.6497C57.2273 14.6497 56.5117 16.0591 56.5117 16.7963C56.5117 17.4902 56.902 17.8371 57.5959 18.1406C58.5283 18.5526 59.9593 18.8128 62.106 18.8128ZM103.304 18.8128C105.342 18.8128 107.315 18.4225 108.573 17.9889V9.85767H102.654V12.4813H105.039V15.6688C104.67 15.8422 104.02 15.929 103.434 15.929C100.225 15.929 98.3169 13.7606 98.3169 10.6816C98.3169 7.68935 100.095 5.52103 103.239 5.52103C104.518 5.52103 105.754 5.82459 107.12 6.51845C107.446 5.84628 107.836 4.76212 107.836 4.1333C107.836 3.61291 107.532 3.20093 106.817 3.00578C105.993 2.76726 104.865 2.63716 103.759 2.63716C97.8833 2.63716 94.3489 5.78123 94.3489 10.8985C94.3489 13.1318 95.2813 15.2785 96.7774 16.6445C98.3169 18.0756 100.355 18.8128 103.304 18.8128Z" fill="#DA0505"/>
<path d="M36.0282 19.3088C29.2413 21.4772 26.249 21.694 24.9697 21.7807C24.6445 21.8024 24.4276 21.8241 24.2975 21.8458C23.6471 22.0192 23.0616 22.5613 22.8881 23.1468C22.8881 23.1901 22.8665 23.2335 22.8665 23.2769C22.7364 23.8406 22.4545 25.185 18.725 25.185C18.0094 25.185 17.2071 25.1416 16.3398 25.0332C10.7672 24.4261 4.11049 22.4312 2.07227 21.5205C4.56583 28.8495 9.03257 35.4845 13.9547 36.3302C26.9212 38.5202 46.0241 22.9733 46.2843 13.1508C45.2869 14.3651 42.338 17.2923 36.0282 19.3088Z" fill="#DA0505"/>
<path d="M1.29151 19.0053C1.39993 19.027 1.53003 19.027 1.68181 19.0486C3.32973 19.2438 7.16766 19.6991 12.0681 19.6991C16.0361 19.6991 19.7873 19.3956 23.2566 18.8101C37.1555 16.4683 44.6146 11.8932 45.9806 11.0042C45.9155 10.809 45.8505 10.6139 45.7638 10.4187C45.6553 10.1585 45.5036 9.92002 45.3735 9.65982C43.2485 10.6789 39.996 11.6113 36.1798 12.3052L33.361 12.8039C27.0295 13.9531 23.1915 14.647 21.8255 14.647C21.6954 14.647 21.587 14.647 21.5003 14.6253C20.5462 14.4952 20.2209 13.888 19.874 13.3243L19.3103 12.4136C18.6598 11.3294 18.0526 10.3103 13.3691 10.2236C6.62558 10.1152 5.60647 9.18279 5.49805 8.4022C5.45468 8.18536 5.51973 8.03358 5.60647 7.94685C5.77993 7.73002 6.14855 7.66497 7.10261 7.66497C7.64469 7.66497 8.4036 7.68665 9.35766 7.70833L12.827 7.79507C17.0335 7.8818 17.6406 7.94685 18.4212 8.25041C19.8306 8.79249 20.351 9.61646 20.763 10.2886L20.7847 10.3103C21.11 10.8524 21.3268 11.221 21.9122 11.2427C22.2592 11.2644 22.8012 11.2861 23.5168 11.2861C26.8994 11.2861 30.5855 10.7873 34.4451 9.78992C38.5649 8.72744 41.5355 7.8818 43.3136 7.33972C34.2717 -0.054251 7.42786 -1.91901 2.7226 2.00565C-0.594928 4.80279 -0.638296 11.9366 1.29151 19.0053ZM5.80162 12.2401L5.88835 11.8932C6.04013 11.6764 6.36538 11.4812 6.58221 11.4595L7.55795 11.5679C8.5337 11.698 10.0082 11.8932 11.3525 11.9582L14.9953 12.0016H15.906C16.5565 12.0016 17.207 12.11 17.207 12.7822V12.9557C17.207 13.2159 17.1853 13.2809 16.9251 13.4977C16.7733 13.6278 16.4264 13.6495 15.7759 13.6495C15.5374 13.6495 15.2555 13.6495 14.9086 13.6495H14.8001L12.1765 13.5845C9.42271 13.6062 7.68805 13.3676 6.88578 13.2375H6.86409L6.66894 13.2159C5.93172 13.1075 5.86666 12.5871 5.8233 12.3485L5.80162 12.2401ZM5.19449 15.8612C5.25954 15.4926 5.67151 15.1674 5.93171 15.1023L6.64726 15.189C7.38449 15.3408 8.924 15.6444 11.2658 15.6444C11.4826 15.6444 11.7211 15.6444 11.938 15.6444C15.1471 15.5793 16.5998 15.124 17.3154 14.9288C17.3371 14.9288 17.6623 14.8204 17.7491 14.7987C17.9442 14.7554 18.1394 14.6903 18.3562 14.6903C18.7031 14.6903 18.9416 14.8638 19.0934 15.2107C19.1151 15.2758 19.1585 15.3625 19.1802 15.4492C19.2669 15.7962 19.1585 16.013 19.0934 16.1214C18.8115 16.7069 17.8575 17.1405 13.8678 17.5308C13.3257 17.5742 12.7402 17.6176 12.1765 17.6176C8.68548 17.6176 5.88835 16.6418 5.47637 16.4033C5.19449 16.2298 5.1728 15.9913 5.19449 15.8612Z" fill="#DA0505"/>
</svg>
