<svg width="98" height="46" viewBox="0 0 98 46" fill="none" xmlns="http://www.w3.org/2000/svg">
<path d="M6.69577 9.73589L7.07571 22.3213H0.046875V0H9.83026L13.8671 12.0155H14.0096L17.524 0H27.6398V22.3213H20.3735L20.611 9.78338L20.421 9.73589L16.2417 22.3213H10.9701L6.88574 9.6884H6.69577V9.73589Z" fill="#E42518"/>
<path d="M38.0419 0.0475159H46.0206L54.7117 22.3688H46.543L45.3557 19.0919H38.2794L37.187 22.3688H29.2559L38.0419 0.0475159ZM41.9363 7.83623L40.0841 13.3453H43.6935L41.9363 7.83623Z" fill="#E42518"/>
<path d="M63.7356 15.15V22.3213H56.2793V0H65.8727C67.0125 0 68.1048 0.142475 69.1972 0.332444C70.2895 0.569904 71.2868 0.997335 72.1417 1.56724C72.9965 2.13715 73.7089 2.89702 74.2313 3.84686C74.7537 4.79671 75.0387 6.0315 75.0387 7.45626C75.0387 8.83354 74.8012 10.0208 74.2788 11.0182C73.7564 11.968 73.0915 12.7754 72.2367 13.3928C71.3818 14.0102 70.432 14.4376 69.2921 14.7226C68.1998 15.0075 67.06 15.15 65.9202 15.15H63.7356ZM63.7356 5.84153V9.45094H65.3028C65.8727 9.45094 66.3951 9.30846 66.87 9.02351C67.345 8.73855 67.5824 8.26363 67.5824 7.59874C67.5824 7.21881 67.5349 6.93385 67.3925 6.74388C67.25 6.50642 67.1075 6.36395 66.87 6.22147C66.6326 6.07899 66.3951 6.0315 66.1102 5.93652C65.8252 5.88903 65.5403 5.84153 65.2553 5.84153H63.7356Z" fill="#E42518"/>
<path d="M85.2961 15.15V22.3213H77.8398V0H87.4333C88.5731 0 89.6654 0.142475 90.7577 0.332444C91.85 0.569904 92.8474 0.997335 93.7022 1.56724C94.5571 2.13715 95.2695 2.89702 95.7919 3.84686C96.3143 4.79671 96.5992 6.0315 96.5992 7.45626C96.5992 8.83354 96.3618 10.0208 95.8394 11.0182C95.3169 11.968 94.6521 12.7754 93.7972 13.3928C92.9423 14.0102 91.9925 14.4376 90.8527 14.7226C89.7604 15.0075 88.6206 15.15 87.4808 15.15H85.2961ZM85.2961 5.84153V9.45094H86.8634C87.4333 9.45094 87.9557 9.30846 88.4306 9.02351C88.9055 8.73855 89.143 8.26363 89.143 7.59874C89.143 7.21881 89.0955 6.93385 88.953 6.74388C88.8105 6.50642 88.6681 6.36395 88.4306 6.22147C88.1931 6.07899 87.9557 6.0315 87.6707 5.93652C87.3858 5.88903 87.1008 5.84153 86.8634 5.84153H85.2961Z" fill="#E42518"/>
<path d="M65.9668 25.6458V33.8144C65.9668 36.9014 65.9193 39.4185 65.7294 42.0305L65.7769 42.078C66.8692 40.0834 68.1989 37.9462 69.7187 35.6666L76.6051 25.6458H79.3596V45.07H76.7475V36.8064C76.7475 33.6719 76.795 31.3448 76.985 28.9227L76.89 28.8752C75.8452 31.0124 74.3729 33.2445 72.9007 35.4291L66.2043 45.07H63.2598V25.6458H65.9668Z" fill="#E42518"/>
<path d="M60.1727 43.0754C59.4603 43.2179 58.653 43.2653 57.8931 43.2653C52.6689 43.2653 49.6769 40.2258 49.6769 35.4766C49.6769 30.395 53.0014 27.4505 57.9881 27.4505C58.7954 27.4505 59.4603 27.5454 60.1252 27.6404V25.5508C59.4603 25.4558 58.7954 25.3608 57.8931 25.3608C51.2917 25.3608 46.7324 29.4926 46.7324 35.5716C46.7324 41.9356 51.2442 45.4025 57.2757 45.4025C58.368 45.4025 59.2703 45.3075 60.1252 45.165V43.0754H60.1727Z" fill="#E42518"/>
<path d="M45.0705 43.0754C44.3581 43.2179 43.5983 43.2653 42.7909 43.2653C37.5668 43.2653 34.5748 40.2258 34.5748 35.4766C34.5748 30.395 37.8992 27.4505 42.9334 27.4505C43.6932 27.4505 44.4056 27.5454 45.0705 27.6404V25.5508C44.4056 25.4558 43.7407 25.3608 42.8384 25.3608C36.237 25.3608 31.6777 29.4926 31.6777 35.5716C31.6777 41.9356 36.1895 45.4025 42.221 45.4025C43.3133 45.4025 44.2157 45.3075 45.0705 45.165V43.0754Z" fill="#E42518"/>
<path d="M89.5683 35.2392C87.6211 35.2392 85.3415 34.1944 85.3415 31.4398C85.3415 28.4478 87.5262 27.7829 88.8559 27.7829H96.9771V25.5033H89.0459C85.8164 25.5033 82.6345 27.118 82.6345 31.2498C82.6345 35.4766 85.7689 37.0914 87.7636 37.4238L82.207 45.0226H85.5315L90.7556 37.4238H94.365V45.0226H97.0246V35.1917H89.5683V35.2392Z" fill="#E42518"/>
<path d="M8.12116 25.5514H0.0474932V27.831H7.2663C9.45094 27.831 11.1132 29.0183 11.1132 31.4879C11.1132 34.1475 9.49843 35.4298 7.12382 35.4298H0V45.1656H2.65956V37.7094H8.07366C12.3005 37.7094 13.8677 34.2425 13.8677 31.5354C13.8677 28.2584 11.6831 25.5514 8.12116 25.5514Z" fill="#E42518"/>
<path d="M28.7813 25.6458L25.4568 33.8144C24.9344 35.1917 24.507 36.3315 24.127 37.3288H24.0795C23.5571 36.189 23.0822 35.0492 22.5123 33.9094L18.238 25.6458H15.1035L22.1798 38.7061C22.4173 39.181 22.5123 39.466 22.2748 39.8934C21.6099 41.2707 20.3276 43.2178 18.0955 43.2178C18.048 43.2178 18.048 43.2178 18.0005 43.2178V45.355C18.0955 45.355 18.238 45.355 18.333 45.355C20.2327 45.355 21.7999 44.5476 23.1772 42.9804C24.6494 41.1757 25.9792 38.1837 27.1665 35.6191L31.6308 25.6458H28.7813Z" fill="#E42518"/>
</svg>
