<svg width="122" height="41" viewBox="0 0 122 41" fill="none" xmlns="http://www.w3.org/2000/svg">
<path d="M53.0951 22.4193C53.0489 34.2669 34.573 34.3824 34.5268 22.4193C34.5499 10.433 53.0489 10.4561 53.0951 22.4193Z" fill="#DC1915"/>
<path d="M3.41804 39.1631L1.47807 36.715L3.30257 34.6365C3.32566 34.5903 3.34876 34.5672 3.37185 34.5441C3.39494 34.521 3.39495 34.4979 3.39495 34.4517C3.39495 34.4286 3.39495 34.4286 3.39495 34.4055C3.39495 34.3824 3.37185 34.3824 3.37185 34.3824C3.34876 34.3824 3.32566 34.3593 3.30257 34.3593C3.27947 34.3593 3.23328 34.3593 3.18709 34.3593C3.1409 34.3593 3.09471 34.3593 3.07162 34.3593C3.04852 34.3593 3.00233 34.3593 2.97924 34.3824C2.95614 34.3824 2.93305 34.4055 2.90995 34.4055C2.88686 34.4286 2.86376 34.4286 2.86376 34.4517L0.923796 36.715V34.4517C0.923796 34.4286 0.923797 34.4286 0.900702 34.4055C0.900702 34.3824 0.877607 34.3824 0.854512 34.3824C0.831417 34.3824 0.808323 34.3593 0.785228 34.3593C0.762133 34.3593 0.715943 34.3593 0.669753 34.3593C0.623564 34.3593 0.600469 34.3593 0.554279 34.3593C0.531184 34.3593 0.50809 34.3824 0.484995 34.3824C0.4619 34.3824 0.4619 34.4055 0.438805 34.4055C0.438805 34.4286 0.41571 34.4286 0.41571 34.4517V39.3016C0.41571 39.3247 0.41571 39.3247 0.438805 39.3478C0.438805 39.3709 0.4619 39.3709 0.484995 39.3709C0.50809 39.3709 0.531184 39.394 0.554279 39.394C0.577374 39.394 0.623564 39.394 0.669753 39.394C0.715943 39.394 0.762133 39.394 0.785228 39.394C0.808323 39.394 0.831417 39.3709 0.854512 39.3709C0.877607 39.3709 0.877607 39.3478 0.900702 39.3478C0.900702 39.3247 0.923796 39.3247 0.923796 39.3016V36.7381L2.93305 39.3016C2.95614 39.3247 2.97924 39.3478 3.00233 39.3709C3.02543 39.394 3.07162 39.394 3.11781 39.394C3.164 39.394 3.21019 39.394 3.25638 39.394C3.30257 39.394 3.34876 39.394 3.37185 39.394C3.39494 39.394 3.41804 39.3709 3.44114 39.3709C3.46423 39.3709 3.46423 39.3478 3.46423 39.3478C3.46423 39.3247 3.46423 39.3247 3.46423 39.3016C3.46423 39.2785 3.46423 39.2785 3.44114 39.2554C3.48732 39.2554 3.46423 39.2092 3.41804 39.1631Z" fill="#1F3C53"/>
<path d="M6.74367 35.8374C6.74367 35.8143 6.74367 35.8143 6.72057 35.8143L6.69748 35.7912C6.67439 35.7912 6.65129 35.7681 6.6051 35.745C6.55891 35.7219 6.51272 35.7219 6.46653 35.6988C6.42034 35.6988 6.37415 35.6758 6.32796 35.6758C6.28177 35.6758 6.23558 35.6758 6.21249 35.6758C6.1432 35.6758 6.05082 35.6757 5.98154 35.6988C5.91226 35.7219 5.84297 35.745 5.75059 35.7912C5.68131 35.8374 5.58893 35.9067 5.49655 35.9991C5.40417 36.0915 5.31179 36.2069 5.21941 36.3455V35.7912C5.21941 35.7681 5.21941 35.7681 5.21941 35.745C5.21941 35.7219 5.19632 35.7219 5.19632 35.7219C5.17322 35.7219 5.15013 35.6988 5.12703 35.6988C5.10394 35.6988 5.05775 35.6988 5.01156 35.6988C4.96537 35.6988 4.94227 35.6988 4.89608 35.6988C4.87299 35.6988 4.84989 35.6988 4.8268 35.7219C4.8037 35.7219 4.8037 35.745 4.78061 35.745C4.78061 35.7681 4.78061 35.7681 4.78061 35.7912V39.2785C4.78061 39.3016 4.78061 39.3016 4.78061 39.3247C4.78061 39.3478 4.8037 39.3478 4.8268 39.3478C4.84989 39.3478 4.87299 39.3709 4.89608 39.3709C4.91918 39.3709 4.96537 39.3709 5.01156 39.3709C5.05775 39.3709 5.10394 39.3709 5.12703 39.3709C5.15013 39.3709 5.17322 39.3478 5.19632 39.3478C5.21941 39.3478 5.21941 39.3247 5.24251 39.3247C5.24251 39.3016 5.2656 39.3016 5.2656 39.2785V36.9229C5.35798 36.7612 5.45036 36.6226 5.54274 36.5303C5.63512 36.4148 5.7044 36.3455 5.77369 36.2762C5.84297 36.2069 5.91226 36.1607 5.98154 36.1376C6.05082 36.1146 6.12011 36.0915 6.18939 36.0915C6.25868 36.0915 6.30487 36.0915 6.35106 36.1146C6.39725 36.1376 6.44344 36.1376 6.48963 36.1607C6.53582 36.1838 6.55891 36.1838 6.6051 36.2069C6.6282 36.2069 6.67439 36.23 6.69748 36.23C6.72058 36.23 6.72058 36.23 6.74367 36.2069C6.74367 36.2069 6.76677 36.1838 6.76677 36.1607C6.76677 36.1376 6.76677 36.1146 6.78986 36.0915C6.78986 36.0684 6.78986 36.0222 6.78986 35.9991C6.78986 35.9529 6.78986 35.9298 6.78986 35.9067C6.74367 35.8836 6.74367 35.8605 6.74367 35.8374Z" fill="#1F3C53"/>
<path d="M10.1386 36.0222C10.0462 35.9067 9.90768 35.8374 9.74602 35.7681C9.58435 35.6988 9.3765 35.6758 9.14555 35.6758C9.03007 35.6758 8.89151 35.6988 8.77603 35.7219C8.66056 35.745 8.54508 35.7681 8.42961 35.8143C8.31413 35.8605 8.22176 35.8836 8.15247 35.9298C8.06009 35.976 8.0139 36.0222 7.99081 36.0453C7.96771 36.0684 7.94462 36.1146 7.92152 36.1376C7.92152 36.1607 7.89843 36.2069 7.89843 36.2762C7.89843 36.2993 7.89843 36.3224 7.89843 36.3455C7.89843 36.3686 7.89843 36.3917 7.92152 36.3917C7.92152 36.4148 7.94462 36.4148 7.94462 36.4148C7.96771 36.4148 7.96771 36.4148 7.99081 36.4148C8.0139 36.4148 8.06009 36.3917 8.12938 36.3686C8.19866 36.3224 8.26795 36.2993 8.36032 36.2531C8.4527 36.2069 8.56818 36.1607 8.68365 36.1376C8.79913 36.0915 8.9377 36.0915 9.09936 36.0915C9.26102 36.0915 9.39959 36.1146 9.51507 36.1607C9.63054 36.2069 9.72292 36.2531 9.7922 36.3455C9.86149 36.4148 9.90768 36.5072 9.95387 36.6226C9.97696 36.7381 10.0001 36.8767 10.0001 37.0153V37.3155H9.44578C9.19174 37.3155 8.96079 37.3386 8.75294 37.3848C8.54508 37.431 8.36032 37.5002 8.22175 37.5926C8.08319 37.685 7.96771 37.8005 7.87533 37.939C7.80605 38.0776 7.75986 38.2393 7.75986 38.4471C7.75986 38.6088 7.78295 38.7474 7.85224 38.8628C7.89843 38.9783 7.99081 39.0938 8.08319 39.1862C8.17556 39.2785 8.31413 39.3478 8.4527 39.394C8.59127 39.4402 8.75294 39.4633 8.9377 39.4633C9.14555 39.4633 9.33031 39.4171 9.51507 39.3247C9.69983 39.2324 9.88458 39.0938 10.0462 38.9321V39.3247C10.0462 39.3478 10.0462 39.3709 10.0693 39.394C10.0924 39.4171 10.1155 39.4171 10.1386 39.4171C10.1617 39.4171 10.2079 39.4171 10.2541 39.4171C10.3003 39.4171 10.3465 39.4171 10.3696 39.4171C10.3927 39.4171 10.4158 39.394 10.4389 39.394C10.462 39.3709 10.462 39.3709 10.462 39.3247V36.9691C10.462 36.7612 10.4389 36.5995 10.3927 36.4379C10.3003 36.2531 10.231 36.1146 10.1386 36.0222ZM9.95387 38.4933C9.76911 38.6781 9.60745 38.8397 9.44578 38.9321C9.28412 39.0245 9.12245 39.0707 8.9377 39.0707C8.70675 39.0707 8.52199 39.0014 8.40651 38.8859C8.26794 38.7705 8.22175 38.6088 8.22175 38.4009C8.22175 38.2855 8.24485 38.1931 8.29104 38.1007C8.33723 38.0083 8.40651 37.939 8.49889 37.8698C8.59127 37.8005 8.70675 37.7543 8.84532 37.7312C8.98389 37.7081 9.14555 37.685 9.33031 37.685H9.97696V38.4933H9.95387Z" fill="#1F3C53"/>
<path d="M16.0047 36.1376C16.0509 36.1376 16.074 36.1145 16.0971 36.0914C16.1202 36.0684 16.1202 36.0222 16.1202 35.9529C16.1202 35.9298 16.1202 35.8836 16.1202 35.8605C16.1202 35.8374 16.0971 35.8143 16.0971 35.7912C16.0971 35.7681 16.074 35.7681 16.0509 35.745C16.0278 35.745 16.0278 35.7219 16.0047 35.7219H15.0347V34.8674C15.0347 34.8443 15.0347 34.8443 15.0116 34.8212C15.0116 34.7981 14.9885 34.7981 14.9654 34.7981C14.9423 34.7981 14.9192 34.775 14.8961 34.775C14.873 34.775 14.8269 34.775 14.7807 34.775C14.7345 34.775 14.6883 34.775 14.6652 34.775C14.6421 34.775 14.619 34.775 14.5959 34.7981C14.5728 34.7981 14.5728 34.8212 14.5497 34.8212C14.5497 34.8443 14.5266 34.8443 14.5266 34.8674V35.7219H12.8176V35.3062C12.8176 35.1446 12.8176 34.9829 12.8407 34.8674C12.8638 34.7519 12.8869 34.6596 12.9331 34.5672C12.9793 34.4979 13.0486 34.4286 13.1178 34.4055C13.1871 34.3593 13.2795 34.3593 13.395 34.3593C13.4643 34.3593 13.5335 34.3593 13.6028 34.3824C13.6721 34.4055 13.7183 34.4055 13.7645 34.4286C13.8107 34.4517 13.8338 34.4517 13.88 34.4748C13.9031 34.4979 13.9262 34.4979 13.9493 34.4979C13.9723 34.4979 13.9723 34.4979 13.9723 34.4979L13.9954 34.4748C13.9954 34.4517 13.9954 34.4517 14.0185 34.4286C14.0185 34.4055 14.0185 34.3824 14.0185 34.3362C14.0185 34.3131 14.0185 34.267 14.0185 34.2439C14.0185 34.2208 14.0185 34.1977 13.9954 34.1746C13.9954 34.1515 13.9723 34.1284 13.9493 34.1284C13.9262 34.1053 13.9031 34.1053 13.88 34.0822C13.8338 34.0591 13.7876 34.0591 13.6952 34.036C13.6028 34.0129 13.5104 34.0129 13.4181 34.0129C13.2333 34.0129 13.0947 34.036 12.9562 34.0822C12.8176 34.1284 12.7021 34.2208 12.6328 34.3131C12.5405 34.4286 12.4712 34.5672 12.425 34.7289C12.3788 34.8905 12.3557 35.0984 12.3557 35.3524V35.745H11.8245C11.8014 35.745 11.8014 35.745 11.7783 35.7681C11.7552 35.7681 11.7552 35.7912 11.7552 35.8143C11.7552 35.8374 11.7321 35.8605 11.7321 35.8836C11.7321 35.9067 11.7321 35.9298 11.7321 35.976C11.7321 36.0453 11.7321 36.0914 11.7552 36.1145C11.7783 36.1376 11.8014 36.1607 11.8476 36.1607H12.3788V39.3478C12.3788 39.3709 12.3788 39.3709 12.3788 39.394C12.3788 39.4171 12.4019 39.4171 12.425 39.4171C12.4481 39.4171 12.4712 39.4402 12.4943 39.4402C12.5174 39.4402 12.5636 39.4402 12.6098 39.4402C12.6559 39.4402 12.7021 39.4402 12.7252 39.4402C12.7483 39.4402 12.7714 39.4171 12.7945 39.4171C12.8176 39.4171 12.8176 39.394 12.8407 39.394C12.8407 39.3709 12.8638 39.3709 12.8638 39.3478V36.1607H14.5728V38.3316C14.5728 38.5164 14.5959 38.7012 14.619 38.8397C14.6652 38.9783 14.7114 39.0938 14.7807 39.1862C14.85 39.2785 14.9654 39.3478 15.0809 39.394C15.1964 39.4402 15.358 39.4633 15.5197 39.4633C15.5659 39.4633 15.6352 39.4633 15.6814 39.4633C15.7276 39.4633 15.7968 39.4402 15.843 39.4402C15.8892 39.4171 15.9354 39.4171 15.9816 39.394C16.0278 39.3709 16.0509 39.3709 16.074 39.3478C16.0971 39.3247 16.0971 39.3016 16.1202 39.2785C16.1202 39.2554 16.1433 39.2093 16.1433 39.14C16.1433 39.1169 16.1433 39.0707 16.1433 39.0476C16.1433 39.0245 16.1433 39.0014 16.1202 39.0014C16.1202 38.9783 16.0971 38.9783 16.0971 38.9783H16.074C16.0509 38.9783 16.0278 38.9783 16.0047 39.0014C15.9816 39.0245 15.9354 39.0245 15.9123 39.0476C15.8661 39.0707 15.8199 39.0707 15.7737 39.0938C15.7276 39.1169 15.6583 39.1169 15.6121 39.1169C15.4042 39.1169 15.2657 39.0476 15.1964 38.909C15.1271 38.7705 15.0809 38.5626 15.0809 38.3086V36.2069H16.0047V36.1376Z" fill="#1F3C53"/>
<path d="M21.0856 34.4055C21.0625 34.4055 21.0394 34.3824 21.0163 34.3824C20.9933 34.3824 20.9471 34.3824 20.9009 34.3824C20.8547 34.3824 20.8085 34.3824 20.7854 34.3824C20.7623 34.3824 20.7392 34.4055 20.7161 34.4055C20.693 34.4055 20.693 34.4286 20.6699 34.4286C20.6699 34.4517 20.6468 34.4517 20.6468 34.4748V36.5764H18.1526V34.4748C18.1526 34.4517 18.1526 34.4517 18.1295 34.4286C18.1295 34.4055 18.1064 34.4055 18.0833 34.4055C18.0602 34.4055 18.0371 34.3824 18.014 34.3824C17.9909 34.3824 17.9447 34.3824 17.8985 34.3824C17.8524 34.3824 17.8293 34.3824 17.7831 34.3824C17.76 34.3824 17.7369 34.4055 17.7138 34.4055C17.6907 34.4055 17.6907 34.4286 17.6676 34.4286C17.6676 34.4517 17.6445 34.4517 17.6445 34.4748V39.3247C17.6445 39.3478 17.6445 39.3478 17.6676 39.3709C17.6676 39.394 17.6907 39.394 17.7138 39.394C17.7369 39.394 17.76 39.4171 17.7831 39.4171C17.8062 39.4171 17.8524 39.4171 17.8985 39.4171C17.9447 39.4171 17.9909 39.4171 18.014 39.4171C18.0371 39.4171 18.0602 39.394 18.0833 39.394C18.1064 39.394 18.1064 39.3709 18.1295 39.3709C18.1295 39.3478 18.1526 39.3478 18.1526 39.3247V36.9921H20.6468V39.3247C20.6468 39.3478 20.6468 39.3478 20.6699 39.3709C20.6699 39.394 20.693 39.394 20.7161 39.394C20.7392 39.394 20.7623 39.4171 20.7854 39.4171C20.8085 39.4171 20.8547 39.4171 20.9009 39.4171C20.9471 39.4171 20.9933 39.4171 21.0163 39.4171C21.0394 39.4171 21.0625 39.394 21.0856 39.394C21.1087 39.394 21.1087 39.3709 21.1318 39.3709C21.1318 39.3478 21.1549 39.3478 21.1549 39.3247V34.4748C21.1549 34.4517 21.1549 34.4517 21.1318 34.4286C21.1318 34.4055 21.1087 34.4055 21.0856 34.4055Z" fill="#1F3C53"/>
<path d="M25.6121 36.1607C25.4967 36.0222 25.335 35.8836 25.1502 35.8143C24.9655 35.7219 24.7345 35.6758 24.4805 35.6758C24.2265 35.6758 24.0186 35.7219 23.8107 35.8143C23.6029 35.9067 23.4412 36.0222 23.3027 36.1838C23.1641 36.3455 23.0486 36.5534 22.9793 36.7843C22.9101 37.0153 22.8639 37.2924 22.8639 37.5695C22.8639 37.8698 22.9101 38.1469 22.9793 38.3778C23.0486 38.6088 23.1641 38.8167 23.3027 38.9783C23.4412 39.14 23.626 39.2555 23.8338 39.3478C24.0417 39.4402 24.2726 39.4633 24.5498 39.4633C24.7114 39.4633 24.8731 39.4402 25.0117 39.4171C25.1502 39.394 25.2888 39.3709 25.3812 39.3247C25.4967 39.3016 25.566 39.2555 25.6352 39.2324C25.7045 39.2093 25.7507 39.1862 25.7507 39.1631C25.7738 39.14 25.7738 39.14 25.7738 39.1169C25.7738 39.0938 25.7969 39.0938 25.7969 39.0707C25.7969 39.0476 25.7969 39.0476 25.7969 39.0245C25.7969 39.0014 25.7969 39.0014 25.7969 38.9783C25.7969 38.9321 25.7969 38.909 25.7969 38.8859C25.7969 38.8628 25.7969 38.8397 25.7738 38.8166C25.7738 38.7936 25.7507 38.7936 25.7507 38.7705C25.7276 38.7705 25.7276 38.7474 25.7045 38.7474C25.6814 38.7474 25.6352 38.7705 25.566 38.7936C25.4967 38.8166 25.4274 38.8628 25.335 38.8859C25.2426 38.909 25.1272 38.9552 25.0117 38.9783C24.8731 39.0014 24.7345 39.0245 24.5729 39.0245C24.3419 39.0245 24.1572 39.0014 23.9955 38.9321C23.8338 38.8628 23.7184 38.7705 23.6029 38.655C23.5105 38.5395 23.4412 38.3778 23.395 38.2162C23.3489 38.0314 23.3258 37.8467 23.3258 37.6388H25.7045C25.7507 37.6388 25.7969 37.6157 25.8431 37.5926C25.8893 37.5695 25.9124 37.5002 25.9124 37.4079V37.3155C25.9124 37.1076 25.8893 36.8998 25.82 36.6919C25.82 36.4841 25.7276 36.2993 25.6121 36.1607ZM23.3719 37.2462C23.3719 37.0845 23.4181 36.946 23.4643 36.8074C23.5105 36.6688 23.5798 36.5303 23.6722 36.4379C23.7646 36.3224 23.88 36.2531 24.0186 36.1838C24.1572 36.1146 24.2957 36.0915 24.4805 36.0915C24.8269 36.0915 25.081 36.2069 25.2657 36.4148C25.4505 36.6226 25.5198 36.9229 25.5198 37.2924H23.3719V37.2462Z" fill="#1F3C53"/>
<path d="M28.0372 35.745C28.0141 35.745 27.991 35.7219 27.9679 35.7219C27.9448 35.7219 27.8986 35.7219 27.8524 35.7219C27.8062 35.7219 27.7831 35.7219 27.7369 35.7219C27.7138 35.7219 27.6907 35.7219 27.6676 35.745C27.6446 35.745 27.6446 35.7681 27.6215 35.7681C27.6215 35.7912 27.6215 35.7912 27.6215 35.8143V39.3016C27.6215 39.3247 27.6215 39.3247 27.6215 39.3478C27.6215 39.3709 27.6446 39.3709 27.6676 39.3709C27.6907 39.3709 27.7138 39.394 27.7369 39.394C27.76 39.394 27.8062 39.394 27.8524 39.394C27.8986 39.394 27.9448 39.394 27.9679 39.394C27.991 39.394 28.0141 39.3709 28.0372 39.3709C28.0603 39.3709 28.0603 39.3478 28.0834 39.3478C28.0834 39.3247 28.1065 39.3247 28.1065 39.3016V35.8143C28.1065 35.7912 28.1065 35.7912 28.0834 35.7681C28.0603 35.7681 28.0372 35.745 28.0372 35.745Z" fill="#1F3C53"/>
<path d="M27.8524 34.3362C27.7369 34.3362 27.6676 34.3593 27.6214 34.4055C27.5752 34.4517 27.5521 34.5441 27.5521 34.6596C27.5521 34.775 27.5752 34.8674 27.6214 34.9136C27.6676 34.9598 27.7369 34.9829 27.8524 34.9829C27.9678 34.9829 28.0371 34.9598 28.0833 34.9136C28.1295 34.8674 28.1526 34.775 28.1526 34.6596C28.1526 34.5441 28.1295 34.4517 28.0833 34.4055C28.0371 34.3593 27.9678 34.3362 27.8524 34.3362Z" fill="#1F3C53"/>
<path d="M32.5176 36.1146C32.4252 35.976 32.2866 35.8836 32.1481 35.7912C31.9864 35.7219 31.8016 35.6758 31.5707 35.6758C31.3859 35.6758 31.1781 35.7219 30.9933 35.8374C30.8085 35.9298 30.6007 36.0915 30.3928 36.3224V35.8374C30.3928 35.8143 30.3928 35.8143 30.3928 35.7912C30.3928 35.7681 30.3697 35.7681 30.3697 35.7681C30.3467 35.7681 30.3236 35.745 30.3005 35.745C30.2774 35.745 30.2312 35.745 30.185 35.745C30.1388 35.745 30.1157 35.745 30.0695 35.745C30.0464 35.745 30.0233 35.745 30.0002 35.7681C29.9771 35.7681 29.9771 35.7912 29.954 35.7912C29.954 35.8143 29.954 35.8143 29.954 35.8374V39.3247C29.954 39.3478 29.954 39.3478 29.954 39.3709C29.954 39.394 29.9771 39.394 30.0002 39.394C30.0233 39.394 30.0464 39.4171 30.0695 39.4171C30.0926 39.4171 30.1388 39.4171 30.185 39.4171C30.2312 39.4171 30.2774 39.4171 30.3005 39.4171C30.3236 39.4171 30.3467 39.394 30.3697 39.394C30.3928 39.394 30.3928 39.3709 30.4159 39.3709C30.4159 39.3478 30.439 39.3478 30.439 39.3247V36.8074C30.6238 36.5534 30.8316 36.3686 30.9933 36.2531C31.1781 36.1376 31.3397 36.0684 31.5245 36.0684C31.6631 36.0684 31.7785 36.0915 31.894 36.1376C32.0095 36.1838 32.0788 36.2762 32.1481 36.3686C32.2173 36.461 32.2635 36.5764 32.3097 36.715C32.3328 36.8536 32.3559 37.0153 32.3559 37.2462V39.3247C32.3559 39.3478 32.3559 39.3478 32.379 39.3709C32.379 39.394 32.4021 39.394 32.4252 39.394C32.4483 39.394 32.4714 39.4171 32.4945 39.4171C32.5176 39.4171 32.5638 39.4171 32.6099 39.4171C32.6561 39.4171 32.6792 39.4171 32.7254 39.4171C32.7485 39.4171 32.7716 39.394 32.7947 39.394C32.8178 39.394 32.8178 39.3709 32.8409 39.3709C32.8409 39.3478 32.864 39.3478 32.864 39.3247V37.2C32.864 36.946 32.8409 36.7381 32.7947 36.5764C32.6792 36.3917 32.6099 36.23 32.5176 36.1146Z" fill="#1F3C53"/>
<path d="M36.7439 39.0476C36.7439 39.0245 36.7208 39.0245 36.6977 39.0014C36.6746 39.0014 36.6746 38.9783 36.6515 38.9783H34.8732L36.5361 36.3686C36.5591 36.3224 36.5822 36.2993 36.6053 36.2531C36.6284 36.23 36.6284 36.1838 36.6515 36.1607C36.6515 36.1376 36.6746 36.1145 36.6746 36.0914C36.6746 36.0684 36.6746 36.0453 36.6746 36.0222V35.9298C36.6746 35.8836 36.6746 35.8605 36.6515 35.8374C36.6515 35.8143 36.6284 35.7912 36.6284 35.7681C36.6284 35.745 36.6053 35.745 36.5822 35.7219C36.5591 35.7219 36.536 35.6988 36.513 35.6988H34.573C34.5499 35.6988 34.5499 35.6988 34.5268 35.7219C34.5037 35.7219 34.5037 35.745 34.4806 35.7681C34.4806 35.7912 34.4575 35.8143 34.4575 35.8374C34.4575 35.8605 34.4575 35.8836 34.4575 35.9298C34.4575 35.9991 34.4806 36.0453 34.5037 36.0914C34.5268 36.1145 34.5499 36.1376 34.5961 36.1376H36.2358L34.573 38.7474C34.5499 38.7935 34.5268 38.8166 34.5037 38.8397C34.4806 38.8628 34.4806 38.8859 34.4575 38.9321C34.4575 38.9552 34.4344 38.9783 34.4344 39.0014C34.4344 39.0245 34.4344 39.0476 34.4344 39.0707V39.1862C34.4344 39.2554 34.4575 39.3016 34.4806 39.3478C34.5037 39.3709 34.5499 39.394 34.5961 39.394H36.6746C36.6977 39.394 36.7208 39.394 36.7208 39.3709C36.7439 39.3709 36.7439 39.3478 36.767 39.3247C36.767 39.3016 36.7901 39.2785 36.7901 39.2554C36.7901 39.2323 36.7901 39.2093 36.7901 39.1631C36.7901 39.14 36.7901 39.0938 36.7901 39.0707C36.7439 39.0707 36.7439 39.0476 36.7439 39.0476Z" fill="#1F3C53"/>
<path d="M43.3259 34.4517C43.3028 34.4286 43.3028 34.4286 43.2798 34.4055C43.2567 34.4055 43.2567 34.3824 43.2336 34.3824H41.0396C40.9934 34.3824 40.9472 34.4055 40.901 34.4286C40.8548 34.4517 40.8317 34.521 40.8317 34.6134V39.3016C40.8317 39.3247 40.8317 39.3247 40.8548 39.3478C40.8548 39.3709 40.8779 39.3709 40.901 39.3709C40.9241 39.3709 40.9472 39.394 40.9703 39.394C40.9934 39.394 41.0396 39.394 41.0857 39.394C41.1319 39.394 41.1781 39.394 41.2012 39.394C41.2243 39.394 41.2474 39.3709 41.2705 39.3709C41.2936 39.3709 41.2936 39.3478 41.3167 39.3478C41.3167 39.3247 41.3398 39.3247 41.3398 39.3016V37.1076H43.1643C43.1874 37.1076 43.1874 37.1076 43.2105 37.0845C43.2336 37.0845 43.2336 37.0614 43.2567 37.0383C43.2797 37.0152 43.2798 36.9921 43.2798 36.969C43.2798 36.946 43.2798 36.9229 43.2798 36.8767C43.2798 36.8305 43.2798 36.8074 43.2798 36.7843C43.2798 36.7612 43.2567 36.7381 43.2567 36.715C43.2567 36.6919 43.2336 36.6919 43.2105 36.6919C43.1874 36.6919 43.1874 36.6919 43.1643 36.6919H41.3398V34.7981H43.2798C43.3028 34.7981 43.3259 34.7981 43.3259 34.775C43.349 34.775 43.349 34.7519 43.3721 34.7288C43.3952 34.7058 43.3952 34.6827 43.3952 34.6596C43.3952 34.6365 43.3952 34.6134 43.3952 34.5672C43.3952 34.521 43.3952 34.4979 43.3952 34.4748C43.349 34.4979 43.349 34.4748 43.3259 34.4517Z" fill="#1F3C53"/>
<path d="M47.5292 36.1838C47.3906 36.0222 47.229 35.9067 47.0211 35.8143C46.8133 35.7219 46.5823 35.6758 46.3052 35.6758C46.028 35.6758 45.774 35.7219 45.5661 35.8143C45.3583 35.9067 45.1735 36.0453 45.035 36.2069C44.8964 36.3686 44.7809 36.5764 44.7116 36.8074C44.6424 37.0383 44.5962 37.2924 44.5962 37.5695C44.5962 37.8467 44.6193 38.1238 44.6885 38.3548C44.7578 38.5857 44.8502 38.7705 44.9888 38.9321C45.1273 39.0938 45.289 39.2093 45.4969 39.3016C45.7047 39.394 45.9357 39.4402 46.2128 39.4402C46.4899 39.4402 46.744 39.394 46.9518 39.3016C47.1597 39.2093 47.3445 39.0707 47.483 38.909C47.6216 38.7474 47.7371 38.5395 47.8063 38.3086C47.8756 38.0776 47.9218 37.8236 47.9218 37.5464C47.9218 37.2693 47.8756 36.9922 47.8063 36.7843C47.7833 36.5303 47.6678 36.3455 47.5292 36.1838ZM47.3906 38.17C47.3444 38.3548 47.2752 38.5164 47.1828 38.6319C47.0904 38.7705 46.9518 38.8628 46.8133 38.9321C46.6516 39.0014 46.4899 39.0476 46.2821 39.0476C46.0511 39.0476 45.8664 39.0014 45.7047 38.9321C45.5431 38.8628 45.4276 38.7474 45.3352 38.6088C45.2428 38.4702 45.1735 38.3086 45.1504 38.1238C45.1042 37.939 45.0812 37.7543 45.0812 37.5464C45.0812 37.3386 45.1042 37.1538 45.1504 36.9691C45.1966 36.7843 45.2659 36.6226 45.3583 36.5072C45.4507 36.3686 45.5892 36.2762 45.7278 36.2069C45.8895 36.1376 46.0511 36.0915 46.259 36.0915C46.4899 36.0915 46.6747 36.1376 46.8364 36.2069C46.998 36.2993 47.1135 36.3917 47.2059 36.5303C47.2983 36.6688 47.3675 36.8305 47.3906 37.0153C47.4368 37.2 47.4599 37.3848 47.4599 37.5926C47.4599 37.7774 47.4368 37.9852 47.3906 38.17Z" fill="#1F3C53"/>
<path d="M52.2637 36.1838C52.1251 36.0222 51.9634 35.9067 51.7556 35.8143C51.5477 35.7219 51.3168 35.6758 51.0396 35.6758C50.7625 35.6758 50.5085 35.7219 50.3006 35.8143C50.0928 35.9067 49.908 36.0453 49.7694 36.2069C49.6309 36.3686 49.5154 36.5764 49.4461 36.8074C49.3768 37.0383 49.3306 37.2924 49.3306 37.5695C49.3306 37.8467 49.3537 38.1238 49.423 38.3548C49.4923 38.5857 49.5847 38.7705 49.7232 38.9321C49.8618 39.0938 50.0235 39.2093 50.2313 39.3016C50.4392 39.394 50.6701 39.4402 50.9473 39.4402C51.2244 39.4402 51.4784 39.394 51.6863 39.3016C51.8942 39.2093 52.0789 39.0707 52.2175 38.909C52.3561 38.7474 52.4715 38.5395 52.5408 38.3086C52.6101 38.0776 52.6563 37.8236 52.6563 37.5464C52.6563 37.2693 52.6101 36.9922 52.5408 36.7843C52.4946 36.5303 52.4022 36.3455 52.2637 36.1838ZM52.1251 38.17C52.0789 38.3548 52.0096 38.5164 51.9172 38.6319C51.8249 38.7705 51.6863 38.8628 51.5477 38.9321C51.3861 39.0014 51.2244 39.0476 51.0165 39.0476C50.7856 39.0476 50.6008 39.0014 50.4392 38.9321C50.2775 38.8628 50.162 38.7474 50.0697 38.6088C49.9773 38.4702 49.908 38.3086 49.8849 38.1238C49.8387 37.939 49.8156 37.7543 49.8156 37.5464C49.8156 37.3386 49.8387 37.1538 49.8849 36.9691C49.9311 36.7843 50.0004 36.6226 50.0928 36.5072C50.1851 36.3686 50.3237 36.2762 50.4623 36.2069C50.6239 36.1376 50.7856 36.0915 50.9935 36.0915C51.2244 36.0915 51.4092 36.1376 51.5708 36.2069C51.7325 36.2993 51.848 36.3917 51.9403 36.5303C52.0327 36.6688 52.102 36.8305 52.1251 37.0153C52.1713 37.2 52.1944 37.3848 52.1944 37.5926C52.1944 37.7774 52.1713 37.9852 52.1251 38.17Z" fill="#1F3C53"/>
<path d="M57.0674 34.0591C57.0443 34.0591 57.0212 34.036 56.9981 34.036C56.975 34.036 56.9288 34.036 56.8826 34.036C56.8364 34.036 56.8133 34.036 56.7671 34.036C56.744 34.036 56.721 34.036 56.6979 34.0591C56.6748 34.0591 56.6748 34.0822 56.6517 34.0822C56.6517 34.1053 56.6517 34.1053 56.6517 34.1284V36.23C56.49 36.0453 56.3052 35.9067 56.1436 35.8143C55.9588 35.7219 55.7741 35.6757 55.5662 35.6757C55.3122 35.6757 55.1043 35.7219 54.9196 35.8143C54.7348 35.9067 54.5731 36.0222 54.4577 36.2069C54.3422 36.3686 54.2267 36.5764 54.1805 36.8074C54.1112 37.0383 54.0881 37.3155 54.0881 37.6157C54.0881 37.8697 54.1112 38.1007 54.1574 38.3316C54.2036 38.5626 54.296 38.7473 54.4115 38.9321C54.5269 39.0938 54.6655 39.2323 54.8503 39.3247C55.035 39.4171 55.2429 39.4633 55.4969 39.4633C55.7279 39.4633 55.9357 39.4171 56.1436 39.3016C56.3514 39.1862 56.5362 39.0245 56.721 38.8397V39.3478C56.721 39.3709 56.7209 39.3709 56.744 39.394C56.744 39.4171 56.7671 39.4171 56.7902 39.4171C56.8133 39.4171 56.8364 39.4402 56.8595 39.4402C56.8826 39.4402 56.9288 39.4402 56.9519 39.4402C56.9981 39.4402 57.0212 39.4402 57.0443 39.4402C57.0674 39.4402 57.0905 39.4402 57.1136 39.4171C57.1367 39.4171 57.1367 39.394 57.1367 39.394C57.1367 39.3709 57.1367 39.3709 57.1367 39.3478V34.1515C57.1367 34.1284 57.1367 34.1284 57.1136 34.1053C57.0905 34.0822 57.0905 34.0591 57.0674 34.0591ZM56.6517 38.3085C56.5362 38.4471 56.4438 38.5626 56.3283 38.655C56.236 38.7473 56.1436 38.8166 56.0512 38.8859C55.9588 38.9552 55.8664 38.9783 55.7741 39.0245C55.6817 39.0476 55.5893 39.0707 55.4969 39.0707C55.3122 39.0707 55.1505 39.0245 55.035 38.9321C54.9196 38.8397 54.8041 38.7243 54.7348 38.5857C54.6655 38.4471 54.5962 38.2855 54.5731 38.1007C54.55 37.9159 54.5269 37.7312 54.5269 37.5464C54.5269 37.3617 54.55 37.2 54.5731 37.0152C54.6193 36.8305 54.6655 36.6919 54.7579 36.5533C54.8272 36.4148 54.9426 36.2993 55.0581 36.2069C55.1736 36.1145 55.3353 36.0683 55.52 36.0683C55.7048 36.0683 55.9126 36.1376 56.0743 36.2531C56.2591 36.3686 56.4438 36.5533 56.6286 36.7843V38.3085H56.6517Z" fill="#1F3C53"/>
<path d="M60.7625 37.7312C60.6702 37.6619 60.5778 37.5926 60.4623 37.5464C60.3468 37.5002 60.2545 37.4541 60.139 37.4079C60.0235 37.3617 59.908 37.3155 59.8157 37.2693C59.7002 37.2231 59.6078 37.1769 59.5154 37.1076C59.423 37.0614 59.3538 36.9922 59.3076 36.8998C59.2614 36.8305 59.2383 36.7381 59.2383 36.6226C59.2383 36.5303 59.2614 36.461 59.2845 36.3917C59.3076 36.3224 59.3538 36.2531 59.423 36.2069C59.4923 36.1607 59.5616 36.1146 59.654 36.0915C59.7464 36.0684 59.8618 36.0453 59.9773 36.0453C60.0928 36.0453 60.2083 36.0684 60.3006 36.0915C60.393 36.1146 60.4623 36.1607 60.5316 36.1838C60.6009 36.2069 60.6471 36.2531 60.6933 36.2762C60.7394 36.2993 60.7625 36.3224 60.7856 36.3224C60.8087 36.3224 60.8087 36.3224 60.8318 36.2993C60.8549 36.2993 60.8549 36.2762 60.8549 36.2531C60.8549 36.23 60.878 36.2069 60.878 36.1838C60.878 36.1607 60.878 36.1376 60.878 36.0915C60.878 36.0684 60.878 36.0453 60.878 36.0222C60.878 35.9991 60.878 35.976 60.878 35.976C60.878 35.9529 60.878 35.9529 60.8549 35.9298C60.8549 35.9067 60.8318 35.9067 60.8087 35.8836C60.7856 35.8605 60.7394 35.8374 60.6933 35.8143C60.6471 35.7912 60.5778 35.7681 60.5085 35.745C60.4392 35.7219 60.3699 35.6988 60.2775 35.6988C60.1852 35.6757 60.1159 35.6758 60.0235 35.6758C59.8157 35.6758 59.6309 35.6988 59.4923 35.7681C59.3307 35.8143 59.2152 35.9067 59.1228 35.9991C59.0304 36.0915 58.9611 36.2069 58.915 36.3224C58.8688 36.4379 58.8457 36.5534 58.8457 36.6688C58.8457 36.8305 58.8688 36.946 58.915 37.0614C58.9611 37.1769 59.0304 37.2693 59.1228 37.3386C59.2152 37.4079 59.3076 37.4771 59.3999 37.5464C59.5154 37.5926 59.6078 37.6388 59.7233 37.685C59.8387 37.7312 59.9542 37.7774 60.0466 37.8236C60.1621 37.8698 60.2544 37.9159 60.3237 37.9621C60.4161 38.0083 60.4854 38.0776 60.5316 38.1469C60.5778 38.2162 60.6009 38.3086 60.6009 38.424C60.6009 38.5395 60.5778 38.6319 60.5316 38.7012C60.4854 38.7936 60.4392 38.8397 60.3699 38.909C60.3006 38.9552 60.2083 39.0014 60.1159 39.0245C60.0235 39.0476 59.908 39.0707 59.7926 39.0707C59.654 39.0707 59.5154 39.0476 59.3999 39.0245C59.2845 38.9783 59.1921 38.9552 59.0997 38.909C59.0073 38.8628 58.9611 38.8167 58.8919 38.7936C58.8457 38.7474 58.7995 38.7474 58.7764 38.7474C58.7533 38.7474 58.7533 38.7474 58.7302 38.7705C58.7071 38.7705 58.7071 38.7936 58.7071 38.8166C58.7071 38.8397 58.684 38.8628 58.684 38.8859C58.684 38.909 58.684 38.9321 58.684 38.9783C58.684 39.0476 58.684 39.0938 58.7071 39.14C58.7302 39.1862 58.7302 39.2093 58.7764 39.2324C58.7995 39.2555 58.8457 39.2785 58.915 39.3247C58.9842 39.3478 59.0535 39.394 59.1459 39.4171C59.2383 39.4402 59.3307 39.4633 59.4461 39.4864C59.5616 39.5095 59.6771 39.5095 59.7926 39.5095C59.9773 39.5095 60.1621 39.4864 60.3237 39.4402C60.4854 39.394 60.624 39.3247 60.7394 39.2324C60.8549 39.14 60.9473 39.0245 60.9935 38.8859C61.0628 38.7474 61.0859 38.6088 61.0859 38.4471C61.0859 38.3086 61.0628 38.17 61.0166 38.0776C60.9242 37.8929 60.8549 37.8236 60.7625 37.7312Z" fill="#1F3C53"/>
<path d="M65.1506 36.1607C65.0351 36.0222 64.8734 35.8836 64.6887 35.8143C64.5039 35.7219 64.273 35.6758 64.0189 35.6758C63.7649 35.6758 63.557 35.7219 63.3492 35.8143C63.1413 35.9067 62.9797 36.0222 62.8411 36.1838C62.7025 36.3455 62.587 36.5534 62.5178 36.7843C62.4485 37.0153 62.4023 37.2924 62.4023 37.5695C62.4023 37.8698 62.4485 38.1469 62.5178 38.3778C62.587 38.6088 62.7025 38.8167 62.8411 38.9783C62.9797 39.14 63.1644 39.2555 63.3723 39.3478C63.5801 39.4402 63.8111 39.4633 64.0882 39.4633C64.2499 39.4633 64.4115 39.4402 64.5501 39.4171C64.6887 39.394 64.8272 39.3709 64.9196 39.3247C65.0351 39.3016 65.1044 39.2555 65.1737 39.2324C65.2429 39.2093 65.2891 39.1862 65.2891 39.1631C65.3122 39.14 65.3122 39.14 65.3122 39.1169C65.3122 39.0938 65.3353 39.0938 65.3353 39.0707C65.3353 39.0476 65.3353 39.0476 65.3353 39.0245C65.3353 39.0014 65.3353 39.0014 65.3353 38.9783C65.3353 38.9321 65.3353 38.909 65.3353 38.8859C65.3353 38.8628 65.3353 38.8397 65.3122 38.8166C65.3122 38.7936 65.2891 38.7936 65.2891 38.7705C65.266 38.7705 65.266 38.7474 65.243 38.7474C65.2199 38.7474 65.1737 38.7705 65.1044 38.7936C65.0351 38.8166 64.9658 38.8628 64.8734 38.8859C64.7811 38.909 64.6656 38.9552 64.5501 38.9783C64.4115 39.0014 64.273 39.0245 64.1113 39.0245C63.8804 39.0245 63.6956 39.0014 63.5339 38.9321C63.3723 38.8628 63.2568 38.7705 63.1413 38.655C63.0489 38.5395 62.9797 38.3778 62.9335 38.2162C62.8873 38.0314 62.8642 37.8467 62.8642 37.6388H65.243C65.2891 37.6388 65.3353 37.6157 65.3815 37.5926C65.4277 37.5695 65.4508 37.5002 65.4508 37.4079V37.3155C65.4508 37.1076 65.4277 36.8998 65.3584 36.6919C65.3584 36.4841 65.266 36.2993 65.1506 36.1607ZM62.9104 37.2462C62.9104 37.0845 62.9566 36.946 63.0028 36.8074C63.0489 36.6688 63.1182 36.5303 63.2106 36.4379C63.303 36.3224 63.4185 36.2531 63.557 36.1838C63.6956 36.1146 63.8342 36.0915 64.0189 36.0915C64.3653 36.0915 64.6194 36.2069 64.8042 36.4148C64.9889 36.6226 65.0582 36.9229 65.0582 37.2924H62.9104V37.2462Z" fill="#1F3C53"/>
<path d="M69.0767 35.8374C69.0767 35.8143 69.0767 35.8143 69.0536 35.8143L69.0305 35.7912C69.0074 35.7912 68.9843 35.7681 68.9382 35.745C68.892 35.7219 68.8458 35.7219 68.7996 35.6988C68.7534 35.6988 68.7072 35.6758 68.661 35.6758C68.6148 35.6758 68.5686 35.6758 68.5455 35.6758C68.4763 35.6758 68.3839 35.6757 68.3146 35.6988C68.2453 35.7219 68.176 35.745 68.0836 35.7912C68.0144 35.8374 67.922 35.9067 67.8296 35.9991C67.7372 36.0915 67.6448 36.2069 67.5525 36.3455V35.7912C67.5525 35.7681 67.5525 35.7681 67.5525 35.745C67.5525 35.7219 67.5294 35.7219 67.5294 35.7219C67.5063 35.7219 67.4832 35.6988 67.4601 35.6988C67.437 35.6988 67.3908 35.6988 67.3446 35.6988C67.2984 35.6988 67.2753 35.6988 67.2291 35.6988C67.206 35.6988 67.1829 35.6988 67.1598 35.7219C67.1368 35.7219 67.1368 35.745 67.1137 35.745C67.1137 35.7681 67.1137 35.7681 67.1137 35.7912V39.2785C67.1137 39.3016 67.1137 39.3016 67.1137 39.3247C67.1137 39.3478 67.1368 39.3478 67.1598 39.3478C67.1829 39.3478 67.206 39.3709 67.2291 39.3709C67.2522 39.3709 67.2984 39.3709 67.3446 39.3709C67.3908 39.3709 67.437 39.3709 67.4601 39.3709C67.4832 39.3709 67.5063 39.3478 67.5294 39.3478C67.5525 39.3478 67.5525 39.3247 67.5756 39.3247C67.5756 39.3016 67.5986 39.3016 67.5986 39.2785V36.9229C67.691 36.7612 67.7834 36.6226 67.8758 36.5303C67.9682 36.4148 68.0375 36.3455 68.1067 36.2762C68.176 36.2069 68.2453 36.1607 68.3146 36.1376C68.3839 36.1146 68.4532 36.0915 68.5224 36.0915C68.5917 36.0915 68.6379 36.0915 68.6841 36.1146C68.7303 36.1376 68.7765 36.1376 68.8227 36.1607C68.8689 36.1838 68.892 36.1838 68.9382 36.2069C68.9612 36.2069 69.0074 36.23 69.0305 36.23C69.0536 36.23 69.0536 36.23 69.0767 36.2069C69.0767 36.2069 69.0998 36.1838 69.0998 36.1607C69.0998 36.1376 69.0998 36.1146 69.1229 36.0915C69.1229 36.0684 69.1229 36.0222 69.1229 35.9991C69.1229 35.9529 69.1229 35.9298 69.1229 35.9067C69.0767 35.8836 69.0767 35.8605 69.0767 35.8374Z" fill="#1F3C53"/>
<path d="M73.1876 35.745C73.1645 35.745 73.1414 35.7219 73.1183 35.7219C73.0952 35.7219 73.049 35.7219 73.0259 35.7219C72.9797 35.7219 72.9335 35.7219 72.9104 35.7219C72.8873 35.7219 72.8642 35.7219 72.8411 35.745C72.818 35.745 72.818 35.7681 72.7949 35.7681C72.7949 35.7912 72.7719 35.7912 72.7719 35.8143L71.7095 38.8628V38.8859V38.8628L70.624 35.8143C70.624 35.7912 70.6009 35.7912 70.6009 35.7681C70.6009 35.745 70.5778 35.745 70.5547 35.745C70.5317 35.745 70.5086 35.7219 70.4855 35.7219C70.4624 35.7219 70.4162 35.7219 70.3469 35.7219C70.3007 35.7219 70.2776 35.7219 70.2314 35.7219C70.2083 35.7219 70.1852 35.7219 70.1621 35.745C70.139 35.745 70.139 35.7681 70.1159 35.7681C70.1159 35.7912 70.0928 35.7912 70.0928 35.8143V35.8374V35.8605C70.0928 35.8836 70.0929 35.8836 70.1159 35.9067L71.3862 39.3016C71.3862 39.3247 71.4093 39.3247 71.4093 39.3478C71.4323 39.3709 71.4554 39.3709 71.4785 39.3709C71.5016 39.3709 71.5247 39.394 71.5709 39.394C71.594 39.394 71.6402 39.394 71.6864 39.394C71.7326 39.394 71.7788 39.394 71.8019 39.394C71.825 39.394 71.8712 39.394 71.8942 39.3709C71.9173 39.3709 71.9404 39.3478 71.9635 39.3478C71.9866 39.3247 71.9866 39.3247 72.0097 39.3016L73.2799 35.9067V35.8836V35.8605V35.8374V35.8143C73.2799 35.7912 73.2799 35.7912 73.2799 35.7681C73.2107 35.7681 73.2107 35.745 73.1876 35.745Z" fill="#1F3C53"/>
<path d="M74.8504 34.3362C74.7349 34.3362 74.6657 34.3593 74.6195 34.4055C74.5733 34.4517 74.5502 34.5441 74.5502 34.6596C74.5502 34.775 74.5733 34.8674 74.6195 34.9136C74.6657 34.9598 74.7349 34.9829 74.8504 34.9829C74.9659 34.9829 75.0352 34.9598 75.0814 34.9136C75.1276 34.8674 75.1507 34.775 75.1507 34.6596C75.1507 34.5441 75.1276 34.4517 75.0814 34.4055C75.0352 34.3593 74.9659 34.3362 74.8504 34.3362Z" fill="#1F3C53"/>
<path d="M75.0352 35.745C75.0121 35.745 74.989 35.7219 74.9659 35.7219C74.9428 35.7219 74.8966 35.7219 74.8504 35.7219C74.8042 35.7219 74.7811 35.7219 74.7349 35.7219C74.7118 35.7219 74.6887 35.7219 74.6656 35.745C74.6425 35.745 74.6425 35.7681 74.6194 35.7681C74.6194 35.7912 74.6194 35.7912 74.6194 35.8143V39.3016C74.6194 39.3247 74.6194 39.3247 74.6194 39.3478C74.6194 39.3709 74.6425 39.3709 74.6656 39.3709C74.6887 39.3709 74.7118 39.394 74.7349 39.394C74.758 39.394 74.8042 39.394 74.8504 39.394C74.8966 39.394 74.9428 39.394 74.9659 39.394C74.989 39.394 75.0121 39.3709 75.0352 39.3709C75.0582 39.3709 75.0582 39.3478 75.0813 39.3478C75.0813 39.3247 75.1044 39.3247 75.1044 39.3016V35.8143C75.1044 35.7912 75.1044 35.7912 75.0813 35.7681C75.0582 35.7681 75.0582 35.745 75.0352 35.745Z" fill="#1F3C53"/>
<path d="M79.377 38.6319C79.377 38.6088 79.354 38.6088 79.354 38.5857C79.3309 38.5857 79.3309 38.5626 79.3078 38.5626C79.2847 38.5626 79.2385 38.5857 79.1692 38.6319C79.0999 38.6781 79.0306 38.7243 78.9613 38.7936C78.869 38.8628 78.7766 38.909 78.6611 38.9552C78.5456 39.0014 78.4071 39.0245 78.2454 39.0245C78.0837 39.0245 77.9221 39.0014 77.8066 38.9321C77.668 38.8628 77.5526 38.7705 77.4833 38.655C77.3909 38.5395 77.3216 38.3778 77.2754 38.1931C77.2292 38.0083 77.2061 37.8005 77.2061 37.5464C77.2061 37.0614 77.2985 36.6919 77.4833 36.4379C77.668 36.1838 77.9221 36.0453 78.2685 36.0453C78.4302 36.0453 78.5687 36.0684 78.6842 36.1146C78.7997 36.1607 78.8921 36.2069 78.9844 36.2762C79.0768 36.3224 79.123 36.3917 79.1923 36.4379C79.2385 36.4841 79.2847 36.5072 79.3309 36.5072C79.354 36.5072 79.3771 36.4841 79.4001 36.461C79.4232 36.4379 79.4232 36.3686 79.4232 36.2993C79.4232 36.2762 79.4232 36.23 79.4232 36.2069C79.4232 36.1838 79.4232 36.1607 79.4001 36.1376C79.4001 36.1146 79.377 36.0915 79.377 36.0915C79.354 36.0684 79.354 36.0453 79.3078 36.0222C79.2847 35.9991 79.2154 35.9529 79.1461 35.9067C79.0768 35.8605 79.0075 35.8143 78.9152 35.7912C78.8228 35.745 78.7304 35.7219 78.6149 35.6988C78.4994 35.6757 78.4071 35.6758 78.2916 35.6758C78.0837 35.6758 77.8759 35.7219 77.6911 35.7912C77.5064 35.8605 77.3447 35.976 77.2061 36.1376C77.0676 36.2993 76.9521 36.4841 76.8828 36.7381C76.7904 36.9691 76.7673 37.2693 76.7673 37.6157C76.7673 37.9159 76.7904 38.1931 76.8597 38.424C76.929 38.655 77.0214 38.8397 77.1369 39.0014C77.2523 39.1631 77.414 39.2785 77.5987 39.3709C77.7835 39.4633 77.9914 39.4864 78.2454 39.4864C78.3609 39.4864 78.4764 39.4633 78.5918 39.4402C78.7073 39.4171 78.7997 39.394 78.9152 39.3478C79.0075 39.3016 79.0999 39.2555 79.1692 39.2093C79.2385 39.1631 79.3078 39.1169 79.3309 39.0707C79.354 39.0476 79.3771 39.0245 79.4001 39.0014C79.4001 38.9783 79.4232 38.9783 79.4232 38.9552C79.4232 38.9321 79.4232 38.909 79.4463 38.8859C79.4463 38.8628 79.4463 38.8397 79.4463 38.7936C79.4463 38.7474 79.4463 38.7243 79.4463 38.7012C79.4001 38.6781 79.377 38.655 79.377 38.6319Z" fill="#1F3C53"/>
<path d="M83.4186 36.1607C83.3032 36.0222 83.1415 35.8836 82.9567 35.8143C82.772 35.7219 82.541 35.6758 82.287 35.6758C82.0329 35.6758 81.8251 35.7219 81.6172 35.8143C81.4094 35.9067 81.2477 36.0222 81.1091 36.1838C80.9706 36.3455 80.8551 36.5534 80.7858 36.7843C80.7165 37.0153 80.6703 37.2924 80.6703 37.5695C80.6703 37.8698 80.7165 38.1469 80.7858 38.3778C80.8551 38.6088 80.9706 38.8167 81.1091 38.9783C81.2477 39.14 81.4325 39.2555 81.6403 39.3478C81.8482 39.4402 82.0791 39.4633 82.3563 39.4633C82.5179 39.4633 82.6796 39.4402 82.8182 39.4171C82.9567 39.394 83.0953 39.3709 83.1877 39.3247C83.3032 39.3016 83.3724 39.2555 83.4417 39.2324C83.511 39.2093 83.5572 39.1862 83.5572 39.1631C83.5803 39.14 83.5803 39.14 83.5803 39.1169C83.5803 39.0938 83.6034 39.0938 83.6034 39.0707C83.6034 39.0476 83.6034 39.0476 83.6034 39.0245C83.6034 39.0014 83.6034 39.0014 83.6034 38.9783C83.6034 38.9321 83.6034 38.909 83.6034 38.8859C83.6034 38.8628 83.6034 38.8397 83.5803 38.8166C83.5803 38.7936 83.5572 38.7936 83.5572 38.7705C83.5341 38.7705 83.5341 38.7474 83.511 38.7474C83.4879 38.7474 83.4417 38.7705 83.3724 38.7936C83.3032 38.8166 83.2339 38.8628 83.1415 38.8859C83.0491 38.909 82.9336 38.9552 82.8182 38.9783C82.6796 39.0014 82.541 39.0245 82.3794 39.0245C82.1484 39.0245 81.9637 39.0014 81.802 38.9321C81.6403 38.8628 81.5249 38.7705 81.4094 38.655C81.317 38.5395 81.2477 38.3778 81.2015 38.2162C81.1553 38.0314 81.1322 37.8467 81.1322 37.6388H83.511C83.5572 37.6388 83.6034 37.6157 83.6496 37.5926C83.6958 37.5695 83.7189 37.5002 83.7189 37.4079V37.3155C83.7189 37.1076 83.6958 36.8998 83.6265 36.6919C83.6265 36.4841 83.5341 36.2993 83.4186 36.1607ZM81.1784 37.2462C81.1784 37.0845 81.2246 36.946 81.2708 36.8074C81.317 36.6688 81.3863 36.5303 81.4787 36.4379C81.571 36.3224 81.6865 36.2531 81.8251 36.1838C81.9637 36.1146 82.1022 36.0915 82.287 36.0915C82.6334 36.0915 82.8875 36.2069 83.0722 36.4148C83.257 36.6226 83.3263 36.9229 83.3263 37.2924H81.1784V37.2462Z" fill="#1F3C53"/>
<path d="M93.026 34.4517C93.0029 34.4286 92.9799 34.4286 92.9568 34.4055C92.9337 34.4055 92.9106 34.3824 92.8875 34.3824H92.6103C92.5641 34.3824 92.518 34.3824 92.4949 34.4055C92.4487 34.4055 92.4256 34.4286 92.3794 34.4517C92.3563 34.4748 92.3101 34.521 92.287 34.5441C92.2639 34.5903 92.2408 34.6365 92.1946 34.7058L90.4856 38.655H90.4625L88.8228 34.6827C88.7997 34.6365 88.7766 34.5903 88.7535 34.5441C88.7304 34.4979 88.7073 34.4748 88.6611 34.4517C88.6149 34.4286 88.5918 34.4055 88.5225 34.3824C88.4764 34.3593 88.4071 34.3593 88.3609 34.3593H88.1068C88.0606 34.3593 88.0145 34.3824 87.9683 34.4055C87.9221 34.4517 87.899 34.4979 87.899 34.5903V39.2785C87.899 39.3016 87.899 39.3016 87.899 39.3247C87.899 39.3478 87.9221 39.3478 87.9452 39.3478C87.9683 39.3478 87.9914 39.3709 88.0145 39.3709C88.0376 39.3709 88.0837 39.3709 88.1299 39.3709C88.1761 39.3709 88.2223 39.3709 88.2454 39.3709C88.2685 39.3709 88.2916 39.3478 88.3147 39.3478C88.3378 39.3478 88.3378 39.3247 88.3609 39.3247C88.3609 39.3016 88.3609 39.3016 88.3609 39.2785V34.7981L90.2316 39.3247C90.2316 39.3247 90.2316 39.3478 90.2547 39.3478C90.2547 39.3478 90.2778 39.3709 90.3008 39.3709C90.3239 39.3709 90.347 39.394 90.3701 39.394C90.3932 39.394 90.4163 39.394 90.4625 39.394C90.4856 39.394 90.5318 39.394 90.5549 39.394C90.578 39.394 90.6011 39.394 90.6242 39.3709C90.6473 39.3709 90.6473 39.3478 90.6704 39.3478L90.6935 39.3247L92.6565 34.7981V39.3016C92.6565 39.3247 92.6565 39.3247 92.6796 39.3478C92.6796 39.3709 92.7027 39.3709 92.7258 39.3709C92.7489 39.3709 92.772 39.394 92.7951 39.394C92.8182 39.394 92.8644 39.394 92.9106 39.394C92.9568 39.394 93.0029 39.394 93.026 39.394C93.0491 39.394 93.0722 39.3709 93.0953 39.3709C93.1184 39.3709 93.1184 39.3478 93.1415 39.3478C93.1415 39.3247 93.1646 39.3247 93.1646 39.3016V34.6134C93.1646 34.5672 93.1646 34.521 93.1415 34.4979C93.0722 34.4979 93.0491 34.4748 93.026 34.4517Z" fill="#1F3C53"/>
<path d="M97.2524 36.0222C97.16 35.9067 97.0215 35.8374 96.8598 35.7681C96.6981 35.6988 96.4903 35.6758 96.2593 35.6758C96.1439 35.6758 96.0053 35.6988 95.8898 35.7219C95.7743 35.745 95.6589 35.7681 95.5434 35.8143C95.4279 35.8605 95.3355 35.8836 95.2663 35.9298C95.1739 35.976 95.1277 36.0222 95.1046 36.0453C95.0815 36.0684 95.0584 36.1146 95.0353 36.1376C95.0353 36.1607 95.0122 36.2069 95.0122 36.2762C95.0122 36.2993 95.0122 36.3224 95.0122 36.3455C95.0122 36.3686 95.0122 36.3917 95.0353 36.3917C95.0353 36.4148 95.0584 36.4148 95.0584 36.4148C95.0815 36.4148 95.0815 36.4148 95.1046 36.4148C95.1277 36.4148 95.1739 36.3917 95.2432 36.3686C95.3124 36.3224 95.3817 36.2993 95.4741 36.2531C95.5665 36.2069 95.682 36.1607 95.7974 36.1376C95.9129 36.0915 96.0515 36.0915 96.2131 36.0915C96.3748 36.0915 96.5134 36.1146 96.6288 36.1607C96.7443 36.2069 96.8367 36.2531 96.906 36.3455C96.9753 36.4148 97.0215 36.5072 97.0676 36.6226C97.0907 36.7381 97.1138 36.8767 97.1138 37.0153V37.3155H96.5134C96.2593 37.3155 96.0284 37.3386 95.8205 37.3848C95.6127 37.431 95.4279 37.5002 95.2894 37.5926C95.1508 37.685 95.0353 37.8005 94.9429 37.939C94.8736 38.0776 94.8275 38.2393 94.8275 38.4471C94.8275 38.6088 94.8505 38.7474 94.9198 38.8628C94.966 38.9783 95.0584 39.0938 95.1508 39.1862C95.2432 39.2785 95.3817 39.3478 95.5203 39.394C95.6589 39.4402 95.8205 39.4633 96.0053 39.4633C96.2131 39.4633 96.3979 39.4171 96.5827 39.3247C96.7674 39.2324 96.9522 39.0938 97.0907 38.9321V39.3247C97.0907 39.3478 97.0907 39.3709 97.1138 39.394C97.1369 39.4171 97.16 39.4171 97.1831 39.4171C97.2062 39.4171 97.2524 39.4171 97.2986 39.4171C97.3448 39.4171 97.391 39.4171 97.4141 39.4171C97.4372 39.4171 97.4603 39.394 97.4834 39.394C97.5065 39.3709 97.5064 39.3709 97.5064 39.3247V36.9691C97.5064 36.7612 97.4834 36.5995 97.4372 36.4379C97.4141 36.2531 97.3448 36.1146 97.2524 36.0222ZM97.0676 38.4933C96.8829 38.6781 96.7212 38.8397 96.5596 38.9321C96.3979 39.0245 96.2362 39.0707 96.0515 39.0707C95.8205 39.0707 95.6358 39.0014 95.5203 38.8859C95.3817 38.7705 95.3355 38.6088 95.3355 38.4009C95.3355 38.2855 95.3586 38.1931 95.4048 38.1007C95.451 38.0083 95.5203 37.939 95.6127 37.8698C95.7051 37.8005 95.8205 37.7543 95.9591 37.7312C96.0977 37.7081 96.2593 37.685 96.4441 37.685H97.0907V38.4933H97.0676Z" fill="#1F3C53"/>
<path d="M102.079 35.745H101.04C100.971 35.7219 100.878 35.7219 100.786 35.6988C100.694 35.6757 100.601 35.6758 100.509 35.6758C100.324 35.6758 100.139 35.6988 99.9776 35.7681C99.8159 35.8374 99.6773 35.9067 99.5619 36.0222C99.4464 36.1376 99.354 36.2531 99.2847 36.4148C99.2154 36.5764 99.1924 36.7381 99.1924 36.946C99.1924 37.1076 99.2154 37.2462 99.2616 37.3617C99.3078 37.4771 99.354 37.5926 99.4464 37.685C99.354 37.7774 99.2847 37.8929 99.2154 38.0083C99.1462 38.1238 99.1231 38.2624 99.1231 38.424C99.1231 38.5395 99.1462 38.6319 99.2154 38.7243C99.2847 38.8166 99.3771 38.909 99.5157 38.9783C99.4233 39.0476 99.354 39.1169 99.3078 39.1862C99.2385 39.2555 99.1923 39.3247 99.1462 39.394C99.1 39.4633 99.0769 39.5326 99.0538 39.625C99.0307 39.6943 99.0307 39.7866 99.0307 39.879C99.0307 40.0176 99.0538 40.1331 99.1231 40.2485C99.1693 40.364 99.2616 40.4564 99.4002 40.5488C99.5157 40.6411 99.6773 40.6873 99.8621 40.7566C100.047 40.8028 100.278 40.8259 100.555 40.8259C100.832 40.8259 101.086 40.8028 101.294 40.7335C101.502 40.6642 101.663 40.595 101.802 40.4795C101.941 40.364 102.033 40.2485 102.102 40.11C102.172 39.9714 102.195 39.8097 102.195 39.6712C102.195 39.5326 102.172 39.394 102.102 39.2785C102.033 39.1631 101.964 39.0707 101.848 39.0014C101.733 38.9321 101.617 38.8628 101.479 38.8397C101.34 38.7936 101.179 38.7705 101.04 38.7705L100.093 38.7243C99.9545 38.7243 99.8159 38.6781 99.7235 38.6088C99.6312 38.5395 99.585 38.4702 99.585 38.3548C99.585 38.2624 99.6081 38.1931 99.6312 38.1238C99.6542 38.0545 99.7004 38.0083 99.7697 37.939C99.839 38.0083 99.9545 38.0545 100.093 38.1007C100.232 38.1469 100.393 38.17 100.532 38.17C100.717 38.17 100.901 38.1469 101.063 38.0776C101.225 38.0314 101.363 37.939 101.479 37.8236C101.594 37.7081 101.687 37.5926 101.756 37.431C101.825 37.2693 101.848 37.1076 101.848 36.8998C101.848 36.7612 101.825 36.6226 101.779 36.4841C101.733 36.3455 101.663 36.23 101.548 36.1146H102.102C102.148 36.1146 102.172 36.0915 102.195 36.0684C102.218 36.0453 102.218 35.9991 102.218 35.9067C102.218 35.8374 102.218 35.7912 102.195 35.7681C102.148 35.745 102.125 35.745 102.079 35.745ZM99.5619 39.4864C99.6081 39.4171 99.6542 39.3709 99.7004 39.3016C99.7697 39.2324 99.839 39.1631 99.9314 39.0938L100.948 39.1169C101.179 39.1169 101.363 39.1631 101.502 39.2555C101.64 39.3478 101.71 39.4864 101.71 39.6481C101.71 39.7404 101.687 39.8328 101.64 39.9252C101.594 40.0176 101.548 40.0869 101.456 40.1561C101.363 40.2254 101.248 40.2716 101.109 40.3178C100.971 40.364 100.786 40.3871 100.578 40.3871C100.232 40.3871 99.9776 40.3409 99.7697 40.2485C99.585 40.1562 99.4926 40.0176 99.4926 39.8097C99.4926 39.7404 99.4926 39.6943 99.5157 39.625C99.4926 39.6019 99.5157 39.5557 99.5619 39.4864ZM101.271 37.2462C101.248 37.3617 101.179 37.431 101.109 37.5233C101.04 37.5926 100.948 37.6619 100.855 37.7081C100.74 37.7543 100.624 37.7774 100.486 37.7774C100.232 37.7774 100.024 37.7081 99.8621 37.5464C99.7235 37.4079 99.6542 37.2 99.6542 36.946C99.6542 36.8305 99.6773 36.715 99.7004 36.5995C99.7235 36.4841 99.7928 36.3917 99.8621 36.3224C99.9314 36.2531 100.024 36.1838 100.116 36.1376C100.209 36.0915 100.347 36.0684 100.486 36.0684C100.763 36.0684 100.971 36.1376 101.109 36.2993C101.248 36.4379 101.317 36.6457 101.317 36.9229C101.34 37.0153 101.317 37.1307 101.271 37.2462Z" fill="#1F3C53"/>
<path d="M105.705 36.0222C105.613 35.9067 105.474 35.8374 105.313 35.7681C105.151 35.6988 104.943 35.6758 104.712 35.6758C104.597 35.6758 104.458 35.6988 104.343 35.7219C104.227 35.745 104.112 35.7681 103.996 35.8143C103.881 35.8605 103.788 35.8836 103.719 35.9298C103.627 35.976 103.58 36.0222 103.557 36.0453C103.534 36.0684 103.511 36.1146 103.488 36.1376C103.488 36.1607 103.465 36.2069 103.465 36.2762C103.465 36.2993 103.465 36.3224 103.465 36.3455C103.465 36.3686 103.465 36.3917 103.488 36.3917C103.488 36.4148 103.511 36.4148 103.511 36.4148C103.534 36.4148 103.534 36.4148 103.557 36.4148C103.58 36.4148 103.627 36.3917 103.696 36.3686C103.765 36.3224 103.834 36.2993 103.927 36.2531C104.019 36.2069 104.135 36.1607 104.25 36.1376C104.366 36.0915 104.504 36.0915 104.666 36.0915C104.828 36.0915 104.966 36.1146 105.082 36.1607C105.197 36.2069 105.289 36.2531 105.359 36.3455C105.428 36.4148 105.474 36.5072 105.52 36.6226C105.543 36.7381 105.567 36.8767 105.567 37.0153V37.3155H105.012C104.758 37.3155 104.527 37.3386 104.319 37.3848C104.112 37.431 103.927 37.5002 103.788 37.5926C103.65 37.685 103.534 37.8005 103.442 37.939C103.373 38.0776 103.326 38.2393 103.326 38.4471C103.326 38.6088 103.349 38.7474 103.419 38.8628C103.465 38.9783 103.557 39.0938 103.65 39.1862C103.742 39.2785 103.881 39.3478 104.019 39.394C104.158 39.4402 104.319 39.4633 104.504 39.4633C104.712 39.4633 104.897 39.4171 105.082 39.3247C105.266 39.2324 105.451 39.0938 105.59 38.9321V39.3247C105.59 39.3478 105.59 39.3709 105.613 39.394C105.636 39.4171 105.659 39.4171 105.682 39.4171C105.705 39.4171 105.751 39.4171 105.798 39.4171C105.844 39.4171 105.89 39.4171 105.913 39.4171C105.936 39.4171 105.959 39.394 105.982 39.394C106.005 39.3709 106.005 39.3709 106.005 39.3247V36.9691C106.005 36.7612 105.982 36.5995 105.936 36.4379C105.89 36.2531 105.798 36.1146 105.705 36.0222ZM105.52 38.4933C105.336 38.6781 105.174 38.8397 105.012 38.9321C104.851 39.0245 104.689 39.0707 104.504 39.0707C104.273 39.0707 104.089 39.0014 103.973 38.8859C103.834 38.7705 103.788 38.6088 103.788 38.4009C103.788 38.2855 103.811 38.1931 103.858 38.1007C103.904 38.0083 103.973 37.939 104.065 37.8698C104.158 37.8005 104.273 37.7543 104.412 37.7312C104.55 37.7081 104.712 37.685 104.897 37.685H105.543V38.4933H105.52Z" fill="#1F3C53"/>
<path d="M109.931 39.0476C109.931 39.0245 109.908 39.0245 109.885 39.0014C109.862 39.0014 109.862 38.9783 109.839 38.9783H108.061L109.724 36.3686C109.747 36.3224 109.77 36.2993 109.793 36.2531C109.816 36.23 109.816 36.1838 109.839 36.1607C109.839 36.1376 109.862 36.1145 109.862 36.0914C109.862 36.0684 109.862 36.0453 109.862 36.0222V35.9298C109.862 35.8836 109.862 35.8605 109.839 35.8374C109.839 35.8143 109.816 35.7912 109.816 35.7681C109.793 35.745 109.793 35.745 109.77 35.7219C109.747 35.7219 109.724 35.6988 109.701 35.6988H107.761C107.737 35.6988 107.737 35.6988 107.714 35.7219C107.691 35.7219 107.691 35.745 107.668 35.7681C107.668 35.7912 107.645 35.8143 107.645 35.8374C107.645 35.8605 107.645 35.8836 107.645 35.9298C107.645 35.9991 107.668 36.0453 107.691 36.0914C107.714 36.1145 107.737 36.1376 107.784 36.1376H109.423L107.761 38.7474C107.737 38.7935 107.714 38.8166 107.691 38.8397C107.668 38.8628 107.668 38.8859 107.645 38.9321C107.645 38.9552 107.622 38.9783 107.622 39.0014C107.622 39.0245 107.622 39.0476 107.622 39.0707V39.1862C107.622 39.2554 107.645 39.3016 107.668 39.3478C107.691 39.3709 107.737 39.394 107.784 39.394H109.862C109.885 39.394 109.908 39.394 109.908 39.3709C109.931 39.3709 109.931 39.3478 109.955 39.3247C109.955 39.3016 109.978 39.2785 109.978 39.2554C109.978 39.2323 109.978 39.2093 109.978 39.1631C109.978 39.14 109.978 39.0938 109.978 39.0707C109.955 39.0707 109.955 39.0476 109.931 39.0476Z" fill="#1F3C53"/>
<path d="M111.964 35.745C111.941 35.745 111.918 35.7219 111.895 35.7219C111.871 35.7219 111.825 35.7219 111.779 35.7219C111.733 35.7219 111.71 35.7219 111.664 35.7219C111.64 35.7219 111.617 35.7219 111.594 35.745C111.571 35.745 111.571 35.7681 111.548 35.7681C111.548 35.7912 111.548 35.7912 111.548 35.8143V39.3016C111.548 39.3247 111.548 39.3247 111.548 39.3478C111.548 39.3709 111.571 39.3709 111.594 39.3709C111.617 39.3709 111.64 39.394 111.664 39.394C111.687 39.394 111.733 39.394 111.779 39.394C111.825 39.394 111.871 39.394 111.895 39.394C111.918 39.394 111.941 39.3709 111.964 39.3709C111.987 39.3709 111.987 39.3478 112.01 39.3478C112.01 39.3247 112.033 39.3247 112.033 39.3016V35.8143C112.033 35.7912 112.033 35.7912 112.01 35.7681C112.01 35.7681 111.987 35.745 111.964 35.745Z" fill="#1F3C53"/>
<path d="M111.802 34.3362C111.687 34.3362 111.617 34.3593 111.571 34.4055C111.525 34.4517 111.502 34.5441 111.502 34.6596C111.502 34.775 111.525 34.8674 111.571 34.9136C111.617 34.9598 111.687 34.9829 111.802 34.9829C111.918 34.9829 111.987 34.9598 112.033 34.9136C112.079 34.8674 112.102 34.775 112.102 34.6596C112.102 34.5441 112.079 34.4517 112.033 34.4055C111.987 34.3593 111.918 34.3362 111.802 34.3362Z" fill="#1F3C53"/>
<path d="M116.467 36.1146C116.375 35.976 116.236 35.8836 116.098 35.7912C115.936 35.7219 115.751 35.6758 115.52 35.6758C115.336 35.6758 115.128 35.7219 114.943 35.8374C114.758 35.9298 114.55 36.0915 114.343 36.3224V35.8374C114.343 35.8143 114.343 35.8143 114.343 35.7912C114.343 35.7681 114.319 35.7681 114.319 35.7681C114.296 35.7681 114.273 35.745 114.25 35.745C114.227 35.745 114.181 35.745 114.135 35.745C114.089 35.745 114.065 35.745 114.019 35.745C113.996 35.745 113.973 35.745 113.95 35.7681C113.927 35.7681 113.927 35.7912 113.904 35.7912C113.904 35.8143 113.904 35.8143 113.904 35.8374V39.3247C113.904 39.3478 113.904 39.3478 113.904 39.3709C113.904 39.394 113.927 39.394 113.95 39.394C113.973 39.394 113.996 39.4171 114.019 39.4171C114.042 39.4171 114.089 39.4171 114.135 39.4171C114.181 39.4171 114.227 39.4171 114.25 39.4171C114.273 39.4171 114.296 39.394 114.319 39.394C114.343 39.394 114.343 39.3709 114.366 39.3709C114.366 39.3478 114.389 39.3478 114.389 39.3247V36.8074C114.574 36.5534 114.781 36.3686 114.943 36.2531C115.128 36.1376 115.289 36.0684 115.474 36.0684C115.613 36.0684 115.728 36.0915 115.844 36.1376C115.959 36.1838 116.029 36.2762 116.098 36.3686C116.167 36.461 116.213 36.5764 116.259 36.715C116.283 36.8536 116.306 37.0153 116.306 37.2462V39.3247C116.306 39.3478 116.306 39.3478 116.329 39.3709C116.329 39.394 116.352 39.394 116.375 39.394C116.398 39.394 116.421 39.4171 116.444 39.4171C116.467 39.4171 116.513 39.4171 116.56 39.4171C116.606 39.4171 116.629 39.4171 116.675 39.4171C116.698 39.4171 116.721 39.394 116.744 39.394C116.768 39.394 116.768 39.3709 116.791 39.3709C116.791 39.3478 116.814 39.3478 116.814 39.3247V37.2C116.814 36.946 116.791 36.7381 116.744 36.5764C116.629 36.3917 116.56 36.23 116.467 36.1146Z" fill="#1F3C53"/>
<path d="M121.363 36.6688C121.317 36.4841 121.225 36.2993 121.109 36.1607C120.994 36.0222 120.832 35.8836 120.648 35.8143C120.463 35.7219 120.232 35.6758 119.978 35.6758C119.724 35.6758 119.516 35.7219 119.308 35.8143C119.1 35.9067 118.938 36.0222 118.8 36.1838C118.661 36.3455 118.546 36.5534 118.477 36.7843C118.407 37.0153 118.361 37.2924 118.361 37.5695C118.361 37.8698 118.407 38.1469 118.477 38.3778C118.546 38.6088 118.661 38.8167 118.8 38.9783C118.938 39.14 119.123 39.2555 119.331 39.3478C119.539 39.4402 119.77 39.4633 120.047 39.4633C120.209 39.4633 120.37 39.4402 120.509 39.4171C120.648 39.394 120.786 39.3709 120.878 39.3247C120.994 39.3016 121.063 39.2555 121.132 39.2324C121.202 39.2093 121.248 39.1862 121.248 39.1631C121.271 39.14 121.271 39.14 121.271 39.1169C121.271 39.0938 121.294 39.0938 121.294 39.0707C121.294 39.0476 121.294 39.0476 121.294 39.0245C121.294 39.0014 121.294 39.0014 121.294 38.9783C121.294 38.9321 121.294 38.909 121.294 38.8859C121.294 38.8628 121.294 38.8397 121.271 38.8166C121.271 38.7936 121.248 38.7936 121.248 38.7705C121.225 38.7705 121.225 38.7474 121.202 38.7474C121.179 38.7474 121.132 38.7705 121.063 38.7936C120.994 38.8166 120.925 38.8628 120.832 38.8859C120.74 38.909 120.624 38.9552 120.509 38.9783C120.37 39.0014 120.232 39.0245 120.07 39.0245C119.839 39.0245 119.654 39.0014 119.493 38.9321C119.331 38.8628 119.216 38.7705 119.1 38.655C119.008 38.5395 118.938 38.3778 118.892 38.2162C118.846 38.0314 118.823 37.8467 118.823 37.6388H121.202C121.248 37.6388 121.294 37.6157 121.34 37.5926C121.387 37.5695 121.41 37.5002 121.41 37.4079V37.3155C121.456 37.0845 121.433 36.8767 121.363 36.6688ZM118.846 37.2462C118.846 37.0845 118.892 36.946 118.938 36.8074C118.985 36.6688 119.054 36.5303 119.146 36.4379C119.239 36.3224 119.354 36.2531 119.493 36.1838C119.631 36.1146 119.77 36.0915 119.955 36.0915C120.301 36.0915 120.555 36.2069 120.74 36.4148C120.925 36.6226 120.994 36.9229 120.994 37.2924H118.846V37.2462Z" fill="#1F3C53"/>
<path d="M7.29797 13.8973H0V31.0567H6.6975V27.0613H7.27488C11.5243 27.0382 15.5197 25.5833 15.5197 20.4793C15.5197 15.3522 11.5474 13.9204 7.29797 13.8973ZM7.43654 21.9574H6.62822V19.0705H7.43654C8.54509 19.0705 9.05318 19.6941 9.05318 20.5024C9.05318 21.3338 8.54509 21.9343 7.43654 21.9574Z" fill="#1F3C53"/>
<path d="M33.0025 20.2253C33.0025 15.0982 28.8685 13.9204 24.596 13.8973H17.2056V31.0567H23.9031V26.5071H24.365L26.5359 31.0567H33.2796V30.5256L30.4621 25.2137C31.9863 24.2899 33.0025 22.7195 33.0025 20.2253ZM24.7345 21.3569H23.8108V19.0474H24.7345C25.8431 19.0474 26.3512 19.4169 26.3512 20.2253C26.3512 21.0567 25.8431 21.3338 24.7345 21.3569Z" fill="#1F3C53"/>
<path d="M66.0512 21.4262H72.4485C71.34 10.5485 54.3653 10.8718 54.3191 22.5116C54.3653 34.1283 71.4554 34.3593 72.4485 23.4816H66.0743C65.2891 26.4147 60.9704 26.1375 60.9473 22.5116C60.9704 18.9088 65.1967 18.5624 66.0512 21.4262Z" fill="#1F3C53"/>
<path d="M83.3955 19.671H80.3239V13.8973H73.6494V31.0567H80.3239V25.0752H83.3955V31.0567H90.0699V13.8973H83.3955V19.671Z" fill="#1F3C53"/>
<path d="M92.2639 31.0567H106.005V25.999H98.9383V24.8904H105.751V20.1098H98.9383V18.955H106.005V13.8973H92.2639V31.0567Z" fill="#1F3C53"/>
<path d="M121.918 19.1398V13.8973H108.153V31.0567H114.828V25.3061H121.641V20.2714H114.828V19.1398H121.918Z" fill="#1F3C53"/>
<path d="M43.9495 6.76096C44.5038 5.32908 45.7971 1.6339 44.2728 0.386779C43.6493 -0.121308 43.1181 0.0172612 42.5869 0.0172612C40.3929 0.0172612 40.3236 3.52768 40.3929 4.75171C40.4622 5.86026 40.5776 11.7033 40.5776 11.7033C40.5776 11.7263 43.2567 11.8187 43.4414 11.7494C44.9657 11.1952 43.3028 9.99424 43.4645 8.44688C43.5107 7.84642 43.7416 7.31523 43.9495 6.76096ZM43.0488 2.37294C42.7024 2.37294 42.4252 2.0958 42.4252 1.74937C42.4252 1.40295 42.7024 1.12581 43.0488 1.12581C43.3952 1.12581 43.6724 1.40295 43.6724 1.74937C43.6493 2.0958 43.3721 2.37294 43.0488 2.37294Z" fill="#1F3C53"/>
<path d="M40.3005 30.3177C40.3005 30.3177 48.4761 31.0337 48.4761 16.4608C48.4761 14.8904 46.4668 14.7287 44.5038 14.7287H40.3005V30.3177Z" fill="white"/>
<path d="M44.1342 19.4862L44.5268 21.0567C44.5499 21.1722 44.6654 21.2414 44.7809 21.2414L46.3975 21.126C46.6516 21.1029 46.767 21.4493 46.5361 21.5879L45.1504 22.4655C45.058 22.5347 45.0118 22.6502 45.058 22.7657L45.6585 24.2669C45.7509 24.4978 45.4737 24.7057 45.2659 24.544L44.0188 23.5047C43.9264 23.4354 43.7878 23.4354 43.6954 23.5047L42.4483 24.544C42.2405 24.7057 41.9633 24.4978 42.0557 24.2669L42.6562 22.7657C42.7024 22.6502 42.6562 22.5347 42.5638 22.4655L41.1781 21.5879C40.9702 21.4493 41.0626 21.1029 41.3167 21.126L42.9333 21.2414C43.0488 21.2414 43.1643 21.1722 43.1873 21.0567L43.58 19.4862C43.7185 19.2322 44.088 19.2322 44.1342 19.4862Z" fill="#00987C"/>
</svg>
