<svg width="89" height="24" viewBox="0 0 89 24" fill="none" xmlns="http://www.w3.org/2000/svg">
<path d="M32.5983 2.60666C32.5983 1.7917 32.5983 0.976729 32.5983 0.093853C31.2401 -0.109888 29.6102 -0.0419658 28.5235 0.908824C27.5048 1.7917 27.3011 3.21788 27.369 4.50823H26.2145C26.2145 5.3232 26.2145 6.13817 26.2145 7.02104H27.2332C27.3011 7.02104 27.369 7.02104 27.4369 7.02104V8.37932C27.4369 10.4167 27.4369 12.4541 27.4369 14.4915H28.7273C29.2706 14.4915 29.746 14.4915 30.2893 14.4915C30.2893 12.4541 30.2893 10.3488 30.2893 8.3114V7.02104H32.1909C32.1909 6.20608 32.1909 5.39111 32.1909 4.57615H30.2893C30.2893 4.03284 30.2214 3.35371 30.6968 2.94623C31.1722 2.47084 31.9192 2.60666 32.5983 2.60666Z" fill="#1F3667"/>
<path d="M22.2078 14.4913H23.4981H24.2452H25.0601C25.0601 12.386 25.0601 10.2128 25.0601 8.10744C25.0601 6.885 24.5848 5.45881 23.3623 4.9155C21.6645 4.10053 19.695 4.23636 17.8613 4.57593C17.8613 5.45881 17.8613 6.4096 17.8613 7.29247C19.0158 7.02082 20.3062 6.74916 21.4607 7.22455C22.004 7.42829 22.2078 7.97162 22.2757 8.51493C21.4607 8.44701 20.6458 8.24327 19.8308 8.37909C18.88 8.51492 17.9292 8.99032 17.3859 9.80528C16.503 11.0956 16.7747 13.133 18.0651 14.0838C19.2875 15.0346 21.0532 14.8988 22.3436 14.0838C22.2078 14.0838 22.2078 14.3555 22.2078 14.4913ZM22.1399 12.3181C21.3928 12.5218 20.5099 12.7935 19.8987 12.2502C19.2875 11.8427 19.3554 10.824 20.0345 10.4844C20.7137 10.1448 21.4607 10.2807 22.2078 10.4165C22.2078 11.0277 22.2078 11.7068 22.1399 12.3181Z" fill="#1F3667"/>
<path d="M7.60633 1.04443C8.76086 1.04443 9.91539 1.04443 11.002 1.04443C9.30417 3.28558 7.67423 5.52672 6.0443 7.76787C7.5384 10.009 9.0325 12.2502 10.5266 14.4913C9.37207 14.4913 8.14962 14.4913 6.99509 14.4913C5.70473 12.5218 4.34647 10.4844 3.05611 8.51493C3.05611 10.4844 3.05611 12.5218 3.05611 14.4913C2.03741 14.4913 1.0187 14.4913 0 14.4913C0 10.009 0 5.52673 0 1.04443C1.0187 1.04443 2.03741 1.04443 3.05611 1.04443C3.05611 3.14975 3.05611 5.25507 3.05611 7.36039C4.55021 5.25507 6.11223 3.14975 7.60633 1.04443Z" fill="#1F3667"/>
<path d="M11.2738 4.57617C12.2246 4.57617 13.1753 4.57617 14.1261 4.57617C14.1261 5.18739 14.1261 5.86654 14.1261 6.47776C14.6015 5.45906 15.6202 4.77991 16.7069 4.57617C16.7069 5.52696 16.7069 6.47776 16.7069 7.42855C15.4844 7.56438 14.194 8.51517 14.194 9.80552C14.194 11.3675 14.194 12.9295 14.194 14.4916C13.2433 14.4916 12.2246 14.4916 11.2738 14.4916C11.2738 11.1638 11.2738 7.90394 11.2738 4.57617Z" fill="#1F3667"/>
<path d="M62.3449 12.4542C61.9374 12.5901 61.8695 12.7259 61.3941 12.8617C60.9187 12.9975 60.3754 12.9975 59.9 12.8617C58.4059 12.2505 59.3567 9.87352 59.3567 9.87352C65.6047 8.37942 64.7219 4.98373 63.024 4.8479C62.0053 4.8479 58.2022 4.98373 56.4364 9.3302C56.1648 9.94142 54.5348 14.5596 58.2701 14.8991C59.085 14.8991 59.9679 14.8312 60.7829 14.4237C61.5299 14.0162 62.0732 13.5409 62.5486 12.9296C62.8882 12.1826 62.3449 12.4542 62.3449 12.4542ZM61.462 6.07036C61.9374 6.20618 60.715 8.65106 60.715 8.65106C60.2396 8.78689 59.7642 8.99063 59.4246 8.99063C59.5604 8.65106 60.4433 5.59496 61.462 6.07036Z" fill="#DC1915"/>
<path d="M76.9461 13.3372C76.8782 13.2693 76.6744 13.2693 76.6065 13.2014C76.1311 12.8618 76.5386 11.9789 76.6065 11.5035L78.0327 6.3421C78.1006 6.00253 78.6439 4.30469 76.4028 4.64426C74.5012 4.98383 73.1429 6.13837 73.1429 6.13837C73.2788 5.66297 73.4825 4.91592 73.1429 4.78009C72.7355 4.64427 70.4264 5.3234 69.8831 5.7988C69.7473 5.7988 69.4756 6.07044 69.7473 6.27418C70.0189 6.61375 70.0868 6.8175 69.8831 7.42872C69.5435 8.37951 68.5927 11.7752 68.389 12.3864C68.1173 12.9976 67.8457 14.2201 68.389 14.6276C68.7965 14.9671 70.4943 14.2201 70.6981 14.0842C70.9697 14.0163 71.1734 13.8126 71.2414 13.7447C71.5809 13.4051 71.1055 13.2693 71.5809 11.5715C71.5809 11.5035 72.1242 9.80569 72.5317 8.3795C72.8713 7.15706 73.9579 6.61374 74.3654 6.54583C74.9766 6.47792 74.8408 7.02124 74.7729 7.42872C74.2296 9.19447 73.5504 11.8431 73.3467 12.4543C73.075 13.0655 72.7355 14.3559 73.3467 14.6276C73.89 15.035 76.4707 13.8805 76.7424 13.7447C77.1498 13.5409 77.1498 13.3372 76.9461 13.3372Z" fill="#DC1915"/>
<path d="M67.0987 13.3369C66.9629 13.269 66.8271 13.269 66.7592 13.2011C66.2838 12.8615 66.6233 11.9786 66.7592 11.5032L68.2533 6.3418C68.3212 5.7985 68.6608 5.05144 68.2533 4.8477C67.7779 4.71187 65.4688 5.39101 64.8576 5.8664C64.7897 5.8664 64.518 6.13806 64.7897 6.3418C65.0613 6.68137 65.0613 6.88512 64.8576 7.49634C64.5859 8.44713 63.4993 11.9107 63.2277 12.5219C62.956 13.1332 62.6844 14.4235 63.3635 14.6952C63.9068 15.1026 66.3517 14.084 66.6234 13.8123C67.3704 13.6086 67.3704 13.3369 67.0987 13.3369Z" fill="#DC1915"/>
<path d="M66.6232 3.62557C66.759 3.96514 68.2531 3.286 68.9323 2.87852C69.0002 2.81061 69.3398 2.53896 69.4077 2.33522C69.5435 1.79191 69.6793 1.52025 69.7472 1.11276C69.8152 0.976938 69.8152 0.705296 69.6114 0.637382C69.2718 0.569469 67.3703 0.773205 66.8949 1.58817C66.759 1.99565 66.1478 3.48975 66.6232 3.62557Z" fill="#DC1915"/>
<path d="M88.1519 9.26175C87.8802 8.37887 86.454 8.10722 85.9107 8.65053C85.5712 8.9901 85.4353 9.60133 85.5032 9.80507C86.8615 9.39759 87.1332 10.62 86.8615 11.0954C86.3861 11.8425 86.2503 12.0462 85.5712 12.0462H81.2926C81.2247 11.9783 81.1568 11.9104 81.2926 11.7066C81.5643 11.3671 85.707 5.66234 85.8428 5.4586C85.9107 5.32278 86.1824 4.91528 85.5712 4.91528H80.8851C80.4097 4.91528 80.1381 5.05112 79.7306 5.4586C79.391 5.86609 78.9835 7.08853 78.7798 7.83558C78.7798 7.83558 78.7798 8.17514 79.2552 7.76766C79.3231 7.69975 79.5268 7.36018 79.7306 7.36018H82.515C83.3979 7.36018 78.7119 11.7746 77.2857 14.0836C77.014 14.4911 77.4215 14.4911 77.6932 14.4911H83.8054C85.2995 14.4911 85.0958 14.7628 85.9107 13.6082C86.0466 13.6082 88.5593 10.4163 88.1519 9.26175Z" fill="#DC1915"/>
<path d="M54.6025 11.9783L56.3003 5.45857C57.4549 1.51959 58.0661 1.38375 58.4736 0.976272H55.8249C54.8742 0.976272 54.1271 2.33454 53.9913 3.21741L52.8367 7.29223H50.4598C50.4598 7.29223 51.886 2.06288 52.0897 1.51957C52.1576 1.24792 52.1576 0.976272 51.6822 0.976272C51.6143 0.976272 46.5208 0.840449 44.9588 1.38376C44.2117 1.65541 43.193 2.26662 42.8534 3.21741C42.5818 3.76072 42.3101 4.84735 42.9893 6.74893C43.0572 7.02058 43.2609 7.15639 43.3288 7.22431C43.6005 7.36014 45.6379 7.08849 45.57 7.08849C45.7058 7.08849 45.8416 7.02058 45.6379 6.68101C45.5021 6.27353 45.0267 5.52647 44.8909 4.84733C44.5513 2.06288 46.5887 1.6554 46.9283 1.58749C47.4037 1.51958 47.8111 1.51958 48.2865 1.58749C48.4224 1.58749 48.8298 1.6554 48.8977 1.85914C49.0336 2.19871 48.8298 2.74203 48.6261 3.35325C48.4903 3.82864 47.132 8.78633 46.7245 10.1446C46.4529 11.1633 45.4342 13.4044 44.4155 13.744C44.1438 13.8119 43.8721 13.8119 43.5326 13.744C43.193 13.6761 42.9213 13.4724 42.6497 13.3365C42.0385 12.7253 41.631 11.435 41.4952 10.4163C41.4273 9.19381 41.631 8.31093 41.4273 8.31093C41.0198 8.31093 39.5936 8.85423 39.0503 9.26171C38.8465 9.39754 38.7786 9.46547 38.7786 9.46547C38.7786 9.46547 38.7786 9.46547 38.7786 9.53339C38.6428 9.80504 38.6428 10.6879 38.7107 11.2312C38.9824 12.4537 39.5936 13.8119 40.5444 14.4232C43.1251 16.1889 47.6074 12.997 48.0828 12.6574C48.8298 12.0462 49.3052 11.1633 49.441 10.4842C49.7127 9.66921 50.0523 8.31093 50.0523 8.31093H52.4293C52.4293 8.31093 51.4785 11.9104 51.2068 12.7932C50.9352 13.5403 50.7993 14.6948 51.4785 14.6269C53.8554 14.6269 54.8741 13.744 54.9421 13.6761C55.01 13.6082 55.01 13.4044 54.9421 13.3365C54.8741 13.3365 54.2629 12.7932 54.6025 11.9783Z" fill="#DC1915"/>
<path d="M37.1489 11.5034C37.1489 11.2996 37.081 11.0959 37.081 10.8921C37.081 10.7563 37.081 10.5526 37.081 10.3488C37.081 10.2809 37.081 10.213 37.081 10.213C37.081 10.0093 37.081 9.8055 37.081 9.60176C37.081 8.71889 37.081 7.90393 37.081 7.02105C37.7601 7.02105 38.5072 7.02105 39.1863 7.02105C39.1863 6.20609 39.1863 5.39112 39.1863 4.57616C38.5072 4.57616 37.7601 4.57616 37.081 4.57616C37.081 3.69329 37.081 2.81041 37.081 1.85962C36.1302 1.85962 35.1794 1.85962 34.2965 1.85962V4.57616H33.142C33.142 5.39112 33.142 6.20609 33.142 7.02105H34.2965C34.2965 7.7681 34.2965 9.26219 34.2965 9.26219V9.60176C34.2965 9.60176 34.2965 10.4847 34.2965 10.8921C34.2965 12.1146 34.7719 13.337 35.7227 14.0841C36.6056 14.6953 37.6922 14.8311 38.7788 14.8311C37.8959 13.9482 37.3526 12.6579 37.1489 11.5034Z" fill="#1F3667"/>
<path d="M0.135864 18.1589V23.9316H1.42622V21.6904H4.14276V20.5359H1.42622V19.3135H4.55025V18.1589H0.135864Z" fill="#1F3667"/>
<path d="M7.74222 21.0795C7.74222 19.4496 9.03258 18.0913 10.7983 18.0913C12.5641 18.0913 13.8544 19.3817 13.8544 21.0116C13.8544 22.6415 12.5641 23.9998 10.7983 23.9998C9.03258 23.9998 7.74222 22.7094 7.74222 21.0795ZM12.5641 21.0795C12.5641 20.0608 11.817 19.2458 10.7983 19.2458C9.77962 19.2458 9.10049 20.0608 9.10049 21.0116C9.10049 21.9624 9.84754 22.8453 10.8662 22.8453C11.817 22.8453 12.5641 22.0303 12.5641 21.0795Z" fill="#1F3667"/>
<path d="M17.1821 21.079C17.1821 19.4491 18.4724 18.0908 20.2382 18.0908C22.0039 18.0908 23.2943 19.3812 23.2943 21.0111C23.2943 22.641 22.0039 23.9993 20.2382 23.9993C18.4724 23.9993 17.1821 22.709 17.1821 21.079ZM22.0039 21.079C22.0039 20.0603 21.2569 19.2454 20.2382 19.2454C19.2195 19.2454 18.5403 20.0603 18.5403 21.0111C18.5403 21.9619 19.2874 22.8448 20.3061 22.8448C21.2569 22.8448 22.0039 22.0298 22.0039 21.079Z" fill="#1F3667"/>
<path d="M26.8936 18.1587H29.1348C30.9685 18.1587 32.1909 19.3811 32.1909 21.0111C32.1909 22.641 30.9685 23.8634 29.1348 23.8634H26.8936V18.1587ZM29.1348 22.7768C30.1535 22.7768 30.8326 22.0977 30.8326 21.079C30.8326 20.0603 30.1535 19.3811 29.1348 19.3811H28.184V22.8447H29.1348V22.7768Z" fill="#1F3667"/>
<path d="M35.3153 23.0485L36.0623 22.1656C36.6056 22.5731 37.1489 22.8448 37.7602 22.8448C38.3035 22.8448 38.5751 22.641 38.5751 22.3015C38.5751 21.9619 38.3714 21.8261 37.4206 21.5544C36.2661 21.2828 35.519 20.9432 35.519 19.7887C35.519 18.77 36.334 18.0908 37.5564 18.0908C38.3714 18.0908 39.1184 18.3625 39.6617 18.8379L38.9826 19.7887C38.4393 19.4491 37.9639 19.2454 37.4885 19.2454C37.0131 19.2454 36.7415 19.4491 36.7415 19.7208C36.7415 20.1282 37.0131 20.1961 37.9639 20.4678C39.1184 20.7394 39.7976 21.2148 39.7976 22.1656C39.7976 23.3202 38.9147 23.9314 37.6923 23.9314C36.8773 23.9993 35.9944 23.6597 35.3153 23.0485Z" fill="#1F3667"/>
<path d="M43.3965 18.1589V23.9316H47.743V22.7771H44.619V21.5546H47.3355V20.468H44.619V19.3135H47.743V18.1589H43.3965Z" fill="#1F3667"/>
<path d="M51.3427 18.1589H53.9913C54.7384 18.1589 55.2817 18.3627 55.6892 18.7702C56.0287 19.1097 56.1646 19.5172 56.1646 20.0605C56.1646 21.0113 55.6892 21.5546 54.9421 21.8263L56.3683 23.8637H54.8742L53.6518 22.03H52.6331V23.8637H51.3427V18.1589ZM53.9234 20.9434C54.5346 20.9434 54.8742 20.6038 54.8742 20.1284C54.8742 19.5851 54.4667 19.3135 53.8555 19.3135H52.6331V20.9434H53.9234Z" fill="#1F3667"/>
<path d="M63.4991 18.1589L62.005 22.2337L60.5109 18.1589H59.0847L61.3938 23.9316H62.5483L64.8574 18.1589H63.4991Z" fill="#1F3667"/>
<path d="M69.5436 18.1589H68.2533V23.9316H69.5436V18.1589Z" fill="#1F3667"/>
<path d="M73.1431 21.0793C73.1431 19.4494 74.3655 18.0911 76.1313 18.0911C77.2179 18.0911 77.8291 18.4306 78.3724 18.974L77.5575 19.9247C77.0821 19.5173 76.6746 19.2456 76.0634 19.2456C75.1126 19.2456 74.3655 20.0606 74.3655 21.0114C74.3655 21.9622 75.0447 22.845 76.0634 22.845C76.7425 22.845 77.15 22.5734 77.5575 22.1659L78.3724 22.9808C77.7612 23.5921 77.15 23.9996 75.9954 23.9996C74.4334 23.9996 73.1431 22.7092 73.1431 21.0793Z" fill="#1F3667"/>
<path d="M81.9716 18.1589V23.9316H86.3181V22.7771H83.194V21.5546H85.9106V20.468H83.194V19.3135H86.2501V18.1589H81.9716Z" fill="#1F3667"/>
</svg>
